<?xml version="1.0" standalone="no"?>
<!DOCTYPE svg PUBLIC "-//W3C//DTD SVG 1.1//EN" "http://www.w3.org/Graphics/SVG/1.1/DTD/svg11.dtd" >
<svg xmlns="http://www.w3.org/2000/svg" xmlns:xlink="http://www.w3.org/1999/xlink" version="1.1">
<metadata>
Created by FontForge 20150318 at Fri Oct 30 13:47:46 2015
 By uniteet7
(c) 1997, 2000 Adobe Systems Incorporated. All rights reserved.
</metadata>
<defs>
<font id="ChaparralProLight" horiz-adv-x="322" >
  <font-face 
    font-family="ChaparralProLight"
    font-weight="300"
    font-stretch="normal"
    units-per-em="1000"
    panose-1="2 6 4 3 3 5 5 2 2 3"
    ascent="740"
    descent="-260"
    x-height="414"
    cap-height="650"
    bbox="-161 -316 1037 860"
    underline-thickness="54"
    underline-position="-46"
    unicode-range="U+0020-FB04"
  />
<missing-glyph horiz-adv-x="500" 
d="M0 0v700h500v-700h-500zM250 395l170 255h-340zM280 350l170 -255v510zM80 50h340l-170 255zM50 605v-510l170 255z" />
    <glyph glyph-name="T_h" unicode="Th" horiz-adv-x="987" 
d="M307 611l-2 -572l97 -3q0 -24 -1 -36q-16 0 -57 0.5t-61 0.5q-19 0 -60.5 -0.5t-61.5 -0.5q0 24 1 36l85 3q4 0 4 3v569q-122 0 -148 -3q-23 -1 -26 -19l-15 -96q-30 2 -42 4q2 22 3.5 47.5t3 57t2.5 48.5q7 0 37 -0.5t54 -0.5h163q17 0 101 0.5t94 0.5q23 0 69.5 0.5
t55.5 0.5q0 -135 -3 -288l4 -1q75 41 105 51.5t61 10.5q70 0 110 -68q14 -25 14 -75q0 -39 -1 -122t-1 -123l70 -2q0 -23 -1 -33h-96q-16 0 -48 -0.5t-46 -0.5q0 22 1 32l65 4q4 0 4 4v193q0 86 -16 112q-21 35 -70 35q-67 0 -153 -63q-2 -166 -2 -281l85 -2q0 -22 -1 -33
h-111q-8 0 -42.5 -0.5t-46.5 -0.5q0 6 0.5 16.5t0.5 15.5l60 4q4 0 4 4v551q0 17 -26 18q-31 2 -216 2z" />
    <glyph glyph-name="Tcaron_h" unicode="&#x164;h" horiz-adv-x="987" 
d="M307 611l-2 -572l97 -3q0 -24 -1 -36q-16 0 -57 0.5t-61 0.5q-19 0 -60.5 -0.5t-61.5 -0.5q0 24 1 36l85 3q4 0 4 3v569q-122 0 -148 -3q-23 -1 -26 -19l-15 -96q-30 2 -42 4q2 22 3.5 47.5t3 57t2.5 48.5q7 0 37 -0.5t54 -0.5h163q17 0 101 0.5t94 0.5q23 0 69.5 0.5
t55.5 0.5q0 -135 -3 -288l4 -1q75 41 105 51.5t61 10.5q70 0 110 -68q14 -25 14 -75q0 -39 -1 -122t-1 -123l70 -2q0 -23 -1 -33h-96q-16 0 -48 -0.5t-46 -0.5q0 22 1 32l65 4q4 0 4 4v193q0 86 -16 112q-21 35 -70 35q-67 0 -153 -63q-2 -166 -2 -281l85 -2q0 -22 -1 -33
h-111q-8 0 -42.5 -0.5t-46.5 -0.5q0 6 0.5 16.5t0.5 15.5l60 4q4 0 4 4v551q0 17 -26 18q-31 2 -216 2zM312 762q23 16 106 72q9 -7 23 -25q-51 -43 -114 -96q-22 0 -32 1q-65 55 -111 92q12 17 22 26q18 -11 56 -36.5t50 -33.5z" />
    <glyph glyph-name="Tcommaaccent_h" unicode="&#x162;h" horiz-adv-x="987" 
d="M307 611l-2 -572l97 -3q0 -24 -1 -36q-16 0 -57 0.5t-61 0.5q-19 0 -60.5 -0.5t-61.5 -0.5q0 24 1 36l85 3q4 0 4 3v569q-122 0 -148 -3q-23 -1 -26 -19l-15 -96q-30 2 -42 4q2 22 3.5 47.5t3 57t2.5 48.5q7 0 37 -0.5t54 -0.5h163q17 0 101 0.5t94 0.5q23 0 69.5 0.5
t55.5 0.5q0 -135 -3 -288l4 -1q75 41 105 51.5t61 10.5q70 0 110 -68q14 -25 14 -75q0 -39 -1 -122t-1 -123l70 -2q0 -23 -1 -33h-96q-16 0 -48 -0.5t-46 -0.5q0 22 1 32l65 4q4 0 4 4v193q0 86 -16 112q-21 35 -70 35q-67 0 -153 -63q-2 -166 -2 -281l85 -2q0 -22 -1 -33
h-111q-8 0 -42.5 -0.5t-46.5 -0.5q0 6 0.5 16.5t0.5 15.5l60 4q4 0 4 4v551q0 17 -26 18q-31 2 -216 2zM287 -51q20 0 36.5 -20.5t16.5 -46.5q0 -81 -83 -130q-3 4 -9.5 12.5t-9.5 12.5q52 34 52 76q0 18 -10.5 26t-27.5 13q-4 24 7 40.5t28 16.5z" />
    <glyph glyph-name="f_f_j" unicode="ffj" horiz-adv-x="805" 
d="M43 32l60 4q3 0 3 4v331h-77q0 14 2 38q48 2 70 2q5 0 5 5q2 66 14 108.5t43 77.5q67 72 158 72q45 0 79 -14q0 -9 -10 -25.5t-19 -21.5q-34 16 -79 16q-55 0 -86 -35q-24 -27 -35.5 -65.5t-10.5 -117.5h227q5 0 5 7q0 81 13 119.5t42 70.5q67 72 156 72q63 0 113 -23
q0 -10 -10.5 -27t-19.5 -23q-3 1 -16 6t-26 9.5t-34 8.5t-40 4q-50 0 -79 -35q-16 -20 -24 -34t-15 -53t-7 -102q20 0 67.5 0.5t73.5 0.5q43 1 144 11q2 0 2 -3q0 -47 -0.5 -165t-0.5 -167q0 -71 -9 -117.5t-34 -93.5q-35 -67 -92 -101q-9 1 -25 13t-19 23q70 31 95 77
q33 59 33 171l-2 310q-31 1 -94 1h-139q0 -46 -0.5 -162t-0.5 -173l100 -2q0 -22 -1 -33h-124q-13 0 -44.5 -0.5t-46.5 -0.5q0 6 0.5 16.5t0.5 15.5l60 4q4 0 4 3q0 224 -1 332h-233q0 -225 -1 -335l100 -2q0 -22 -1 -33h-124q-13 0 -44.5 -0.5t-46.5 -0.5q0 22 1 32z" />
    <glyph glyph-name="f_j" unicode="fj" horiz-adv-x="518" 
d="M317 680q60 0 113 -23q0 -10 -11 -27.5t-20 -22.5q-2 1 -15.5 6t-26.5 9.5t-34 8.5t-40 4q-50 0 -80 -35q-16 -19 -24 -33.5t-14.5 -53.5t-6.5 -102q21 0 68 0.5t73 0.5q31 1 145 11q2 0 2 -3q-1 -48 -1.5 -165.5t-0.5 -166.5q0 -71 -9 -117.5t-34 -93.5
q-35 -67 -92 -101q-9 1 -25 13t-20 23q70 31 96 77q33 59 33 171l-2 310q-54 2 -91 2q-101 0 -142 -1q0 -46 -0.5 -162t-0.5 -173l100 -2v-33h-125q-13 0 -44.5 -0.5t-46.5 -0.5q0 6 0.5 16.5t0.5 15.5l60 4q4 0 4 3q0 225 -1 332h-77q0 14 2 38q46 2 70 2q5 0 5 7
q0 81 13 119.5t42 70.5q67 72 157 72z" />
    <glyph glyph-name="f_f" unicode="ff" horiz-adv-x="607" 
d="M322 674q44 0 78 -14q0 -9 -10 -25.5t-19 -21.5q-39 16 -80 16q-58 0 -85 -35q-24 -29 -35.5 -67t-10.5 -116h227q5 0 5 7q0 81 11.5 119.5t40.5 72.5q62 70 146 70q26 0 52 -10q0 -9 -8.5 -26.5t-17.5 -24.5q-44 11 -63 11q-17 0 -37.5 -9t-32.5 -24q-23 -29 -30.5 -64
t-6.5 -122q24 0 75 0.5t77 0.5q0 -24 -3 -40q-105 0 -150 -1q0 -225 -1 -335l100 -2q0 -22 -1 -33h-124q-13 0 -44.5 -0.5t-46.5 -0.5q0 6 0.5 16.5t0.5 15.5l60 4q3 0 3 4v331h-73h-91.5h-68.5q0 -225 -1 -335l100 -2q0 -22 -1 -33h-124q-13 0 -44.5 -0.5t-46.5 -0.5
q0 22 1 32l60 4q3 0 3 4v331h-77q0 14 2 38q48 2 70 2q5 0 5 5q2 66 14.5 109t42.5 77q66 72 159 72z" />
    <glyph glyph-name="f_f_i" unicode="ffi" horiz-adv-x="823" 
d="M43 32l60 4q3 0 3 4v331h-77q0 14 2 38q48 2 70 2q5 0 5 5q2 66 14 108.5t43 77.5q67 72 158 72q45 0 79 -14q0 -9 -10 -25.5t-19 -21.5q-34 16 -79 16q-55 0 -86 -35q-24 -27 -35.5 -65.5t-10.5 -117.5h227q5 0 5 7q0 81 13 119.5t42 70.5q67 72 156 72q63 0 113 -23
q0 -10 -10.5 -27t-19.5 -23q-2 1 -15.5 6t-26 9.5t-33.5 8.5t-40 4q-51 0 -80 -35q-16 -20 -24 -34t-15 -53t-7 -102q21 0 68 0.5t73 0.5q43 1 144 11q2 0 2 -3q0 -56 -1 -193t-1 -191l74 -2q0 -23 -1 -33h-104q-15 0 -47 -0.5t-48 -0.5q0 22 1 33l71 3q3 0 3 4v330
q-31 1 -95 1h-139q0 -46 -0.5 -162t-0.5 -173l100 -2v-33h-125q-13 0 -44.5 -0.5t-46.5 -0.5q0 6 0.5 16.5t0.5 15.5l60 4q4 0 4 3q0 224 -1 332h-233q0 -225 -1 -335l100 -2q0 -22 -1 -33h-124q-13 0 -44.5 -0.5t-46.5 -0.5q0 22 1 32z" />
    <glyph glyph-name="f_f_l" unicode="ffl" horiz-adv-x="825" 
d="M595 680q71 0 135 -19q3 -1 3 -5q0 -30 -2 -268t-2 -352l84 -2q0 -23 -1 -33h-110q-18 0 -52 -0.5t-48 -0.5q0 23 1 33l71 3q3 0 3 4q1 102 1 331h-70h-93h-70q0 -225 -1 -335l100 -2v-33h-125q-13 0 -44.5 -0.5t-46.5 -0.5q0 6 0.5 16.5t0.5 15.5l60 4q4 0 4 4
q0 224 -1 331h-73h-91.5h-68.5q-1 -49 -1.5 -165.5t-0.5 -169.5l101 -2q0 -22 -1 -33h-125q-13 0 -44 -0.5t-46 -0.5q0 22 1 32l60 4q3 0 3 4v331h-77q0 14 2 38q46 2 70 2q5 0 5 5q1 124 57 186q67 72 157 72q46 0 80 -14q0 -9 -10.5 -25t-19.5 -22q-37 16 -80 16
q-53 0 -85 -35q-24 -27 -35.5 -65.5t-10.5 -117.5h228q5 0 5 7q0 84 10.5 121.5t39.5 71.5q63 69 153 69zM580 638q-67 0 -100 -41q-22 -26 -28.5 -60.5t-6.5 -124.5q37 0 118 0.5t115 0.5q0 39 0.5 109.5t0.5 100.5q-34 15 -99 15z" />
    <glyph glyph-name="f_i" unicode="fi" horiz-adv-x="537" 
d="M317 680q62 0 113 -23q0 -10 -10.5 -27.5t-19.5 -22.5q-2 1 -15.5 6t-26.5 9.5t-34 8.5t-40 4q-51 0 -81 -35q-16 -19 -24 -33.5t-14.5 -53.5t-6.5 -102q20 0 68 0.5t74 0.5q43 1 144 11q2 0 2 -3q0 -56 -1 -193t-1 -191l74 -2q0 -23 -1 -33h-104q-15 0 -47 -0.5
t-48 -0.5v33l72 3q3 0 3 4v330q-56 2 -92 2q-102 0 -143 -1q0 -46 -0.5 -162t-0.5 -173l101 -2q0 -22 -1 -33h-125q-13 0 -44.5 -0.5t-46.5 -0.5q0 6 0.5 16.5t0.5 15.5l60 4q4 0 4 3q0 225 -1 332h-77q0 14 2 38q46 2 70 2q5 0 5 7q0 81 13 119.5t42 70.5q68 72 157 72z
" />
    <glyph glyph-name="f_l" unicode="fl" horiz-adv-x="539" 
d="M158 36l100 -2v-33h-125q-13 0 -44.5 -0.5t-46.5 -0.5q0 6 0.5 16.5t0.5 15.5l60 4q4 0 4 4q0 224 -1 332h-77q0 15 2 39q23 1 70 1q5 0 5 8q0 83 10.5 120t39.5 71q63 69 150 69q76 0 138 -20q3 -2 3 -6q0 -27 -2 -265.5t-2 -352.5l84 -2q0 -23 -1 -33h-110
q-18 0 -52 -0.5t-48 -0.5q0 23 1 33l71 3q3 0 3 4q1 102 1 332h-233q0 -226 -1 -336zM293 637q-62 0 -100 -39q-21 -26 -27.5 -61t-6.5 -125q35 0 116.5 0.5t116.5 0.5q0 38 0.5 108.5t0.5 100.5q-35 15 -100 15z" />
    <glyph glyph-name="uni021A_h" unicode="&#x21a;h" horiz-adv-x="987" 
d="M307 611l-2 -572l97 -3q0 -24 -1 -36q-16 0 -57 0.5t-61 0.5q-19 0 -60 -0.5t-61 -0.5v36l85 3q4 0 4 3v569q-122 0 -148 -3q-23 -1 -26 -19l-15 -96q-30 2 -42 4q2 22 3.5 47.5t3 57t2.5 48.5q7 0 37 -0.5t54 -0.5h163q17 0 101 0.5t94 0.5q23 0 69.5 0.5t55.5 0.5
q0 -135 -3 -288l4 -1q75 41 105 51.5t61 10.5q70 0 110 -68q14 -27 14 -75q0 -39 -1 -122t-1 -123l70 -2q0 -23 -1 -33h-96q-16 0 -48 -0.5t-46 -0.5q0 22 1 32l65 4q4 0 4 4v192q0 87 -16 113q-21 35 -70 35q-67 0 -153 -63q-2 -168 -2 -281l85 -2q0 -22 -1 -33h-111
q-8 0 -42.5 -0.5t-46.5 -0.5q0 6 0.5 16.5t0.5 15.5l60 4q4 0 4 4v550q0 18 -26 19q-31 2 -216 2zM287 -51q20 0 36.5 -20.5t16.5 -46.5q0 -79 -83 -130q-1 1 -8.5 10.5t-10.5 14.5q52 35 52 76q0 18 -10.5 26t-27.5 13q-4 24 7 40.5t28 16.5z" />
    <glyph glyph-name=".notdef" horiz-adv-x="500" 
d="M0 0v700h500v-700h-500zM250 395l170 255h-340zM280 350l170 -255v510zM80 50h340l-170 255zM50 605v-510l170 255z" />
    <glyph glyph-name=".null" horiz-adv-x="0" 
 />
    <glyph glyph-name="nonmarkingreturn" horiz-adv-x="333" 
 />
    <glyph glyph-name="space" unicode=" " horiz-adv-x="219" 
 />
    <glyph glyph-name="exclam" unicode="!" horiz-adv-x="261" 
d="M164 661q1 -1 1 -3q-8 -253 -15 -503q-21 -3 -39 -5q-1 43 -4 131.5t-3 103.5q-2 149 -8 260q10 5 36 10.5t32 5.5zM132 78q21 0 32 -15t11 -31q0 -15 -13 -28t-30 -13q-20 0 -33 12t-13 30q0 17 12.5 31t33.5 14z" />
    <glyph glyph-name="quotedbl" unicode="&#x22;" horiz-adv-x="286" 
d="M115 697q-6 -118 -7 -199q-18 -7 -41 -7q-9 147 -14 194q36 12 62 12zM238 697q-6 -118 -7 -199q-18 -7 -41 -7q-9 147 -14 194q36 12 62 12z" />
    <glyph glyph-name="numbersign" unicode="#" horiz-adv-x="513" 
d="M221 461h113q20 114 31 185q22 2 43 0q-5 -35 -31 -184h102q0 -4 -0.5 -12.5t-1 -15.5t-1.5 -12h-107q-16 -90 -24 -137h110q0 -26 -2 -38h-115q-8 -43 -21.5 -121t-14.5 -85q-13 -1 -40 -1q4 26 16.5 97.5t18.5 108.5h-114q-7 -41 -19 -112.5t-16 -92.5q-20 -2 -41 0
q12 62 35 205q-16 0 -52 -0.5t-51 -0.5q0 18 2 40h109q4 25 11.5 71t10.5 66h-110q0 26 1 38q41 1 117 1q6 38 17 106t13 79q15 2 44 2q-5 -27 -16.5 -91.5t-16.5 -95.5zM326 422h-112q-4 -22 -24 -137h114q15 84 22 137z" />
    <glyph glyph-name="dollar" unicode="$" horiz-adv-x="513" 
d="M78 452q0 68 66 112q43 30 101 34q0 19 0.5 54t0.5 50q20 6 43 6q0 -15 -1 -51t-1 -57q83 1 141 -29q0 -7 -9.5 -23t-18.5 -21q-64 34 -113 38q-1 -36 -2.5 -111t-2.5 -110q80 -25 120.5 -57t40.5 -91q0 -74 -55 -118q-45 -38 -117 -45q0 -17 -0.5 -51t-0.5 -51
q-9 -1 -40 -4q0 17 0.5 51.5t0.5 52.5q-43 -2 -95 8.5t-87 30.5q14 31 32 42q79 -45 151 -45q2 69 4 240q-77 25 -117.5 56.5t-40.5 88.5zM129 457q0 -40 25.5 -60.5t86.5 -41.5q2 61 4 209q-48 -4 -78 -28q-38 -29 -38 -79zM393 186q0 47 -27 68.5t-89 42.5
q-1 -37 -2.5 -114t-2.5 -114q55 8 83 31q38 31 38 86z" />
    <glyph glyph-name="percent" unicode="%" horiz-adv-x="734" 
d="M501 623l-2 3q-137 -4 -225 -5q23 -15 39 -48t16 -74q0 -79 -45 -129q-40 -42 -101 -42q-50 0 -84 28q-58 47 -58 132q0 75 49 124q41 40 105 40q55 0 185 4t160 8q9 -9 19 -23q-70 -127 -167 -316q-11 -22 -183 -349q-20 7 -36 16q45 84 186 354q86 167 142 277z
M187 618q-40 0 -63 -24q-35 -40 -35 -103q0 -72 36 -105q24 -24 62 -24q33 0 54 18q40 35 40 113q0 63 -34 102q-19 23 -60 23zM556 315q56 0 88 -32q48 -46 48 -127q0 -77 -44 -124q-38 -42 -100 -42q-52 0 -86 28q-56 43 -56 130q0 80 54 130q40 37 96 37zM550 281
q-38 0 -61 -26q-35 -38 -35 -105q0 -71 35 -103q25 -23 61 -23t60 21q34 36 34 110q0 62 -32 101q-22 25 -62 25z" />
    <glyph glyph-name="ampersand" unicode="&#x26;" horiz-adv-x="695" 
d="M279 360l-2 -5q90 -59 208 -198q24 31 44 83.5t25 94.5q1 8 -4 8l-63 3q0 25 1 35h99q9 0 38 1t45 0q2 -18 0 -37l-61 -2q-33 -134 -98 -216q8 -10 30.5 -38.5t32.5 -40.5t24 -12l79 -2q0 -22 -1 -34q-19 -1 -121 -4q-13 15 -39 48.5t-37 46.5q-95 -101 -231 -101
q-87 0 -140 39q-72 52 -72 135q0 121 144 198v4q-85 62 -85 141q0 69 56 113q48 35 109 35q65 0 103 -31q49 -40 49 -100q0 -105 -133 -164zM146 508q0 -42 23 -69.5t72 -58.5q59 26 89.5 57.5t30.5 78.5q0 45 -29 74t-76 29q-48 0 -78 -29q-32 -31 -32 -82zM259 29
q112 0 197 91q-113 140 -237 222q-50 -22 -89 -66.5t-39 -105.5q0 -65 49 -106q44 -35 119 -35z" />
    <glyph glyph-name="quotesingle" unicode="'" horiz-adv-x="164" 
d="M115 697q-6 -118 -7 -199q-18 -7 -41 -7q-9 147 -14 194q36 12 62 12z" />
    <glyph glyph-name="parenleft" unicode="(" horiz-adv-x="306" 
d="M66 285q0 141 65 257t151 167q11 -14 19 -30q-70 -49 -127 -153.5t-57 -240.5q0 -244 182 -394q-14 -18 -25 -29q-41 34 -70.5 65t-64.5 82.5t-54 121.5t-19 154z" />
    <glyph glyph-name="parenright" unicode=")" horiz-adv-x="306" 
d="M239 285q0 -82 -19 -151.5t-53 -120.5t-66 -84.5t-73 -65.5q-6 6 -23 28q183 148 183 393q0 136 -55.5 240.5t-125.5 153.5q12 20 18 29q86 -50 150 -166t64 -256z" />
    <glyph glyph-name="asterisk" unicode="*" horiz-adv-x="342" 
d="M186 525q2 -43 4 -127q-19 -2 -40 0q4 88 5 126l-102 -72q-18 28 -21 35q52 30 109 62q-18 10 -54.5 31t-55.5 32q2 4 20 34q20 -13 56 -37t49 -33q-1 21 -3 61t-3 61q4 0 11 0.5t10 0.5q4 0 10.5 -0.5t9.5 -0.5q-1 -39 -5 -122q35 24 105 70q15 -21 19 -34
q-18 -11 -54.5 -31.5t-54.5 -31.5q74 -42 110 -63q-11 -20 -22 -34q-10 7 -103 73z" />
    <glyph glyph-name="plus" unicode="+" horiz-adv-x="513" 
d="M449 213l-171 -1q-1 -70 -1 -199q-26 -2 -44 -2v201h-169q0 30 1 43q111 0 168 1v186q24 3 46 3q0 -26 -0.5 -89.5t-0.5 -99.5q58 1 173 1q0 -18 -2 -44z" />
    <glyph glyph-name="comma" unicode="," horiz-adv-x="230" 
d="M104 83q24 0 43.5 -23t19.5 -52q0 -88 -99 -145q-14 14 -23 29q63 37 63 84q0 32 -46 43q-4 27 9 45.5t33 18.5z" />
    <glyph glyph-name="hyphen" unicode="-" horiz-adv-x="297" 
d="M117 218h-87q0 29 1 42h89q26 0 74 0.5t73 1.5q0 -18 -2 -44h-148z" />
    <glyph glyph-name="period" unicode="." horiz-adv-x="230" 
d="M118 87q23 0 33.5 -16t10.5 -33q0 -18 -11.5 -32.5t-31.5 -14.5q-23 0 -36 13t-13 34q0 18 12.5 33.5t35.5 15.5z" />
    <glyph glyph-name="slash" unicode="/" horiz-adv-x="387" 
d="M52 -53q-12 2 -38 10q67 152 177 406q122 283 143 333q22 -3 42 -12q-88 -201 -149 -339q-88 -201 -175 -398z" />
    <glyph glyph-name="zero" unicode="0" horiz-adv-x="513" 
d="M466 333q0 -199 -87 -291q-49 -52 -128 -52q-74 0 -124 50q-79 82 -79 264q0 207 92 299q55 52 128 52q75 0 125 -53q32 -36 52.5 -106.5t20.5 -162.5zM259 618q-54 0 -90 -44q-66 -78 -66 -267q0 -156 52 -228q39 -53 103 -53q52 0 88 41q65 76 65 252q0 178 -53 249
q-36 50 -99 50z" />
    <glyph glyph-name="one" unicode="1" horiz-adv-x="513" 
d="M293 37l161 -2q1 -11 -1 -34h-187q-31 0 -97 -0.5t-101 -0.5q0 24 1 34l169 3q4 0 4 4q0 90 0.5 268.5t0.5 266.5q-22 -7 -81 -25t-97 -30q-3 7 -10 31q54 21 113 47t91 41.5t34 15.5q3 0 3 -4z" />
    <glyph glyph-name="two" unicode="2" horiz-adv-x="513" 
d="M440 474q0 -132 -179 -308q-46 -45 -130 -120l1 -4q35 -1 145 -0.5t177 1.5h3q0 -25 -3 -43h-250h-148q-7 15 -11 28q131 112 183 164q155 152 155 274q0 74 -40 114q-36 38 -108 38q-67 0 -108 -34q-3 -4 -6 -13l-19 -96q-31 3 -40 4q11 116 12 133q71 43 169 43
q85 0 135 -39q62 -50 62 -142z" />
    <glyph glyph-name="three" unicode="3" horiz-adv-x="513" 
d="M123 578l-18 -96q-30 2 -41 4q2 22 5.5 66t5.5 65q74 38 167 38q88 0 138 -39q22 -17 37 -47t15 -58q0 -61 -39 -104.5t-95 -59.5v-6q73 -9 113.5 -52.5t40.5 -102.5q0 -89 -78 -149q-63 -47 -180 -47q-79 0 -130 16q-2 14 -9.5 60t-11.5 70q21 7 40 10l25 -91
q2 -7 8 -11q34 -16 94 -16q84 0 134 40q52 43 52 113q0 62 -50 98.5t-125 36.5h-74q-1 12 -1 39q108 -3 169 38t61 107q0 53 -35 85q-33 33 -108 33q-64 0 -104 -28q-5 -8 -6 -12z" />
    <glyph glyph-name="four" unicode="4" horiz-adv-x="513" 
d="M372 36l84 -3q1 -10 -1 -33q-14 0 -51.5 0.5t-56.5 0.5q-26 0 -71.5 -0.5t-64.5 -0.5q0 11 2 33l107 3q5 0 5 4v134q-31 -1 -283 -1q-15 30 -20 46q68 99 144 203q119 166 168 228q14 1 42 -1l-3 -435q85 0 112 1q0 -28 -2 -42q-7 0 -52.5 0.5t-57.5 0.5q-1 -46 -1 -138z
M326 575h-4q-22 -32 -63.5 -90.5t-65.5 -92.5t-67 -98t-48 -72q-4 -7 3 -7q49 -1 243 -1z" />
    <glyph glyph-name="five" unicode="5" horiz-adv-x="513" 
d="M449 217q0 -55 -22.5 -100t-57.5 -72q-71 -55 -189 -55q-65 0 -114 14q-3 17 -22 130q19 6 40 9l24 -90q2 -6 9 -11q30 -13 76 -13q94 0 149 47q54 44 54 124t-53 125t-154 45q-50 0 -103 -10l-4 4q27 219 36 280h155q116 0 165 1q0 -5 -3 -44h-274q-15 -92 -30 -193
q42 5 87 5q115 0 173 -58.5t58 -137.5z" />
    <glyph glyph-name="six" unicode="6" horiz-adv-x="513" 
d="M103 311h5q83 80 176 80q77 0 120 -43q61 -57 61 -149q0 -110 -83 -172q-49 -37 -123 -37q-83 0 -133 53q-74 80 -74 228q0 186 87 295q70 89 189 89q58 0 93 -16q6 -40 14 -122q-3 0 -17 -3t-23 -4l-18 85q-2 8 -6 11q-24 12 -60 12q-45 0 -81.5 -23t-59.5 -58
q-57 -89 -67 -226zM269 25q58 0 97 39q46 46 46 124q0 75 -40 120q-38 40 -101 40q-41 0 -88 -25.5t-75 -72.5q-1 -112 52 -175q40 -50 109 -50z" />
    <glyph glyph-name="seven" unicode="7" horiz-adv-x="513" 
d="M427 597l-3 4q-227 3 -283 1q-25 -1 -30 -23l-21 -79q-6 1 -19.5 3t-19.5 3q5 27 12.5 80.5t8.5 58.5q5 0 34.5 -0.5t50.5 -0.5h312q12 -24 17 -40q-71 -121 -132.5 -255t-92.5 -229q-16 -52 -18 -118q-36 -2 -56 -2q0 70 22 127q47 128 218 470z" />
    <glyph glyph-name="eight" unicode="8" horiz-adv-x="513" 
d="M329 345v-5q145 -48 145 -167q0 -91 -78 -144q-60 -39 -148 -39q-86 0 -143 40q-66 45 -66 133q0 57 37.5 104t106.5 80v4q-108 47 -108 143q0 34 17.5 65.5t42.5 51.5q57 44 140 44q79 0 127 -42q46 -44 46 -103q0 -56 -34 -98.5t-85 -66.5zM128 500q0 -55 32.5 -84
t121.5 -57q58 25 85.5 59t27.5 84q0 51 -30 81q-37 35 -95 35q-65 0 -104 -34q-38 -35 -38 -84zM421 166q0 65 -41.5 98.5t-150.5 66.5q-60 -23 -97.5 -65.5t-37.5 -101.5q0 -64 46 -101q42 -36 112 -36q69 0 113 30q56 37 56 109z" />
    <glyph glyph-name="nine" unicode="9" horiz-adv-x="513" 
d="M409 329l-4 1q-44 -37 -82.5 -54t-87.5 -17q-75 0 -126 47q-59 55 -59 137q0 104 80 170q54 42 128 42q85 0 134 -55q70 -81 70 -235q0 -182 -82 -287q-68 -88 -192 -88q-53 0 -94 11q-11 55 -21 118q19 7 39 8l23 -79q3 -6 10 -11q17 -10 60 -10q45 0 82 21.5t58 51.5
q62 92 64 229zM251 620q-55 0 -96 -38q-24 -22 -37 -58t-13 -72q0 -71 37 -111q39 -42 104 -42q45 0 87.5 23t71.5 62q1 56 -13.5 107t-35.5 78q-41 51 -105 51z" />
    <glyph glyph-name="colon" unicode=":" horiz-adv-x="230" 
d="M119 411q23 0 33.5 -16t10.5 -32q0 -19 -12 -33.5t-32 -14.5q-23 0 -36 13.5t-13 33.5q0 18 13 33.5t36 15.5zM119 86q23 0 33 -15.5t10 -32.5q0 -18 -12 -32.5t-32 -14.5q-23 0 -35.5 13t-12.5 34q0 18 12.5 33t36.5 15z" />
    <glyph glyph-name="semicolon" unicode=";" horiz-adv-x="230" 
d="M118 411q23 0 33.5 -16t10.5 -33q0 -18 -12 -32.5t-32 -14.5q-23 0 -36 13.5t-13 33.5q0 18 13 33.5t36 15.5zM105 83q23 0 42.5 -23t19.5 -52q0 -88 -99 -145q-11 11 -23 29q63 39 63 85q0 13 -8.5 22.5t-16.5 13t-21 7.5q-4 26 9 44.5t34 18.5z" />
    <glyph glyph-name="less" unicode="&#x3c;" horiz-adv-x="513" 
d="M159 236q114 -96 234 -194q-10 -18 -25 -34q-140 111 -264 208q-1 13 -1 38q48 36 139.5 104.5t126.5 94.5q15 -16 25 -34q-160 -123 -235 -183z" />
    <glyph glyph-name="equal" unicode="=" horiz-adv-x="513" 
d="M63 281q0 16 2 42q67 1 197.5 2t189.5 1q0 -18 -2 -44q-56 0 -189.5 -0.5t-197.5 -0.5zM62 142q0 26 3 44q57 0 189.5 0.5t196.5 0.5q0 -28 -1 -42q-70 -1 -203.5 -2t-184.5 -1z" />
    <glyph glyph-name="greater" unicode="&#x3e;" horiz-adv-x="513" 
d="M334 232q-189 155 -236 192q16 24 26 33q157 -120 266 -204q0 -25 -1 -38q-230 -177 -264 -203q-13 14 -26 34q36 28 235 186z" />
    <glyph glyph-name="question" unicode="?" horiz-adv-x="408" 
d="M365 504q0 -104 -148 -216q-31 -23 -31 -39q0 -26 24 -86q-18 -11 -35 -17q-14 18 -31 61t-17 68q98 69 138 116.5t40 111.5q0 53 -31.5 85.5t-87.5 32.5q-49 0 -81 -23q-3 -3 -6 -12l-17 -87q-6 1 -21 3t-21 3q2 21 6 63.5t6 59.5q62 32 142 32q86 0 128.5 -48
t42.5 -108zM191 77q21 0 32.5 -14.5t11.5 -30.5q0 -15 -13 -28t-30 -13q-20 0 -33.5 12t-13.5 29t12.5 31t33.5 14z" />
    <glyph glyph-name="at" unicode="@" horiz-adv-x="603" 
d="M387 336h4l17 29q8 -1 33 -7q-27 -97 -56 -215q-1 -3 2.5 -5.5t6.5 -2.5q40 0 71 29q48 43 48 120t-48 129.5t-139 52.5q-96 0 -165.5 -76.5t-69.5 -195.5q0 -98 56.5 -148t133.5 -50q72 0 121 34q8 -12 15 -28q-60 -39 -150 -39t-155 60.5t-65 168.5q0 135 86 220.5
t204 85.5q95 0 157 -57.5t62 -146.5q0 -94 -61 -151q-50 -41 -124 -41q-18 0 -32 17q5 32 12 51l-7 2q-71 -69 -119 -69q-11 0 -30 10.5t-26 23.5q-1 5 -1 19q0 41 15 83q15 48 50.5 86.5t81.5 38.5q44 0 72 -28zM216 163q0 -23 24 -23q23 0 67 35.5t56 60.5q10 23 18 65
q-23 30 -68 30q-26 0 -47.5 -23t-34.5 -60q-15 -43 -15 -85z" />
    <glyph glyph-name="A" unicode="A" horiz-adv-x="597" 
d="M-14 35l58 4q4 0 5 4q43 107 132.5 341.5t105.5 275.5q9 1 31 1q38 -100 117.5 -321.5t109.5 -300.5l63 -3q0 -24 -1 -35h-86q-23 0 -64.5 -0.5t-59.5 -0.5q0 6 0.5 18t0.5 17l86 3q4 0 2 5q-31 87 -61 167q-2 5 -6 5l-254 -1q-19 -51 -63 -175l100 -3q0 -24 -1 -35h-131
q-14 0 -43 -0.5t-42 -0.5q0 24 1 35zM301 569h-4q-10 -28 -53 -142t-64 -169q-2 -6 3 -6h229q-41 118 -111 317z" />
    <glyph glyph-name="B" unicode="B" horiz-adv-x="556" 
d="M48 35l74 2q5 0 5 6v569l-79 3v35q20 0 81.5 0.5t86.5 0.5q123 0 180 -27q35 -18 56.5 -50t21.5 -70q0 -54 -34 -94.5t-87 -58.5v-5q69 -8 116 -53.5t47 -104.5q0 -85 -66 -136.5t-176 -51.5h-117h-110q0 24 1 35zM182 611l-1 -251q12 -2 55 -2q75 0 129 36.5t54 95.5
q0 57 -43 90.5t-129 33.5q-51 0 -65 -3zM181 320l-1 -244q0 -25 19 -33t77 -8q46 0 85.5 13t68.5 47.5t29 84.5q0 56 -49.5 99t-159.5 43q-61 0 -69 -2z" />
    <glyph glyph-name="C" unicode="C" horiz-adv-x="578" 
d="M52 290q0 186 129 295q89 75 222 75q80 0 126 -23l9 -159q-23 -4 -43 -5l-15 109q-1 12 -8 16q-29 20 -93 20q-106 0 -176 -71q-95 -95 -95 -237q0 -68 13.5 -113t49.5 -88q29 -34 78 -55t103 -21q82 0 184 46q7 -22 10 -39q-120 -50 -202 -50q-112 0 -187 61
q-49 38 -77 100.5t-28 138.5z" />
    <glyph glyph-name="D" unicode="D" horiz-adv-x="685" 
d="M48 35l75 2q4 0 4 5v569l-79 3q0 6 0.5 18.5t0.5 17.5q21 0 87.5 0.5t107.5 0.5q92 0 148 -12.5t106 -42.5q63 -37 99.5 -104t36.5 -149q0 -85 -30 -158t-90 -118q-88 -67 -235 -67h-121q-15 0 -53.5 -0.5t-57.5 -0.5q0 6 0.5 18t0.5 18zM183 611l-2 -534q0 -25 15.5 -33
t75.5 -8q145 0 223 69q37 33 60 90t23 120q0 84 -22 136.5t-73 95.5q-80 68 -231 68q-56 0 -69 -4z" />
    <glyph glyph-name="E" unicode="E" horiz-adv-x="547" 
d="M51 35l74 3q3 0 3 3v571l-78 2q0 24 1 36q16 0 53.5 -0.5t57.5 -0.5q15 0 110.5 0.5t107.5 0.5h83q6 -90 8 -144q-22 -4 -40 -5l-16 90q-3 14 -23 17q-48 5 -174 5q-7 0 -20 -0.5t-15 -0.5l-1 -262q31 0 88 0.5t88 1.5q25 1 26 20l5 51h38q-1 -15 -1.5 -46.5t-0.5 -46.5
v-91h-12h-14.5h-12.5l-3 55q-1 19 -26 19q-51 1 -175 1l-1 -258q0 -13 8.5 -16.5t48.5 -3.5q148 0 175 8q13 3 18 19l33 95q4 -1 18.5 -3.5t20.5 -4.5q-14 -70 -34 -150h-306h-113q0 24 1 35z" />
    <glyph glyph-name="F" unicode="F" horiz-adv-x="525" 
d="M128 611l-78 3q0 24 1 36q17 0 53.5 -0.5t55.5 -0.5q16 0 112 0.5t108 0.5q23 0 49 0.5t36 0.5q8 -98 10 -152q-16 -1 -40 -5l-19 97q-3 17 -22 18q-41 4 -186 4q-6 0 -14.5 -0.5t-10.5 -0.5l-1 -272q67 0 175 2q24 0 25 19l7 53h38q0 -16 -0.5 -49.5t-1.5 -49.5v-87
q-27 -2 -39 -1l-4 56q-1 18 -26 18q-98 2 -174 2l-1 -264l120 -3q0 -24 -1 -36q-18 0 -66 0.5t-71 0.5q-21 0 -58.5 -0.5t-53.5 -0.5q-1 12 1 36l72 3q4 0 4 4v568z" />
    <glyph glyph-name="G" unicode="G" horiz-adv-x="660" 
d="M518 471l-11 98q-2 16 -9 22q-38 29 -115 29q-109 0 -181 -71q-91 -89 -91 -228q0 -140 75 -215q77 -78 205 -78q29 0 56 4.5t41.5 11t14.5 11.5v179l-115 2q0 24 1 36h139h88q0 -14 -2 -36l-53 -2q-4 0 -4 -4l-2 -208q-53 -32 -173 -32q-140 0 -220 68q-110 94 -110 253
q0 89 38 164t105 123q88 62 208 62q93 0 151 -28q3 -47 7 -157q-13 -2 -43 -4z" />
    <glyph glyph-name="H" unicode="H" horiz-adv-x="723" 
d="M54 36l69 3q4 0 4 4v569l-75 3q-1 11 1 34h106h117q0 -23 -1 -35l-89 -2q-3 0 -3 -4l-1 -246q0 -4 5 -4h355v254l-92 2q0 24 1 35h118q19 0 53 0.5t47 0.5v-11v-13v-11l-69 -3q-2 0 -2 -4l-3 -569l80 -3q0 -13 -2 -35h-107q-20 0 -58 -0.5t-54 -0.5q0 25 1 36l82 3
q5 0 5 4v274q0 4 -5 4l-355 -2l-1 -280l96 -3v-36q-17 0 -58 0.5t-62 0.5q-18 0 -53.5 -0.5t-50.5 -0.5q0 24 1 36z" />
    <glyph glyph-name="I" unicode="I" horiz-adv-x="308" 
d="M128 612l-84 3q0 13 2 35q16 0 56 -0.5t59 -0.5q20 0 56.5 0.5t52.5 0.5v-11v-13v-11l-84 -3q-3 0 -3 -4l-2 -569l90 -3q1 -12 -1 -35h-110q-20 0 -58.5 -0.5t-54.5 -0.5q0 24 1 35l76 4q4 0 4 4v569z" />
    <glyph glyph-name="J" unicode="J" horiz-adv-x="480" 
d="M447 616l-75 -3q-3 0 -3 -3v-357q0 -71 -10 -113t-36 -80q-53 -79 -175 -79q-60 0 -108 12q-3 28 -7 78.5t-5 64.5q22 5 39 5l16 -97q1 -9 8 -13q22 -11 70 -11q87 0 125 63q14 22 20.5 50t7.5 51t1 73q0 238 -1 356l-131 3q0 6 0.5 17.5t0.5 16.5q25 0 81.5 -0.5
t81.5 -0.5q17 0 52 0.5t49 0.5q0 -22 -1 -34z" />
    <glyph glyph-name="K" unicode="K" horiz-adv-x="618" 
d="M127 611l-76 3q0 25 1 36q16 0 53 -0.5t55 -0.5q17 0 52 0.5t51 0.5q0 -25 -1 -36l-75 -2q-5 -1 -5 -7l-1 -254q46 0 75 8q26 23 94.5 104t117.5 144q2 3 -2 3l-72 4q0 24 1 35h124q13 0 38.5 0.5t35.5 0.5q0 -24 -1 -35l-57 -4q-28 -33 -231 -263v-5q54 -40 121 -138
q70 -103 99 -143q16 -21 33 -21l77 -3q0 -24 -1 -36q-12 -1 -36.5 -1.5t-36.5 -0.5q-11 0 -28.5 -0.5t-27.5 -0.5q-8 9 -24 31.5t-47.5 70t-46.5 70.5q-97 144 -137 144q-44 0 -68 -3l-1 -273l88 -3v-35h-111q-19 0 -55 -0.5t-51 -0.5q0 24 1 35l72 4q3 0 3 3v569z" />
    <glyph glyph-name="L" unicode="L" horiz-adv-x="513" 
d="M128 611l-78 3q-1 12 1 35h110h121q0 -12 -2 -36l-94 -2q-2 0 -2 -4l-3 -551q0 -13 6 -16.5t36 -3.5q150 0 182 6q12 4 18 21l37 106q17 -3 39 -10q-12 -53 -38 -159h-299h-112q0 24 1 35l74 3q3 0 3 4v569z" />
    <glyph glyph-name="M" unicode="M" horiz-adv-x="867" 
d="M127 612l-75 2q0 6 0.5 18t0.5 17h157q189 -467 226 -554h5q37 89 114 279t112 275q26 0 76 0.5t72 0.5q0 -24 -1 -35l-69 -3q-3 0 -3 -5q0 -204 2 -568l74 -3q0 -24 -1 -36q-14 0 -50.5 0.5t-54.5 0.5q-19 0 -55 -0.5t-50 -0.5v35l83 4q4 0 4 4q0 39 -3 549h-5
q-133 -343 -236 -563q-8 -1 -33 -1q-118 260 -237 566h-6q0 -86 -2 -276.5t-3 -278.5l94 -3q0 -24 -1 -36q-18 0 -59.5 0.5t-62.5 0.5q-17 0 -48 -0.5t-44 -0.5q0 6 0.5 18t0.5 18l70 3q4 0 4 4q1 88 2.5 286.5t1.5 282.5z" />
    <glyph glyph-name="N" unicode="N" horiz-adv-x="716" 
d="M50 35l68 3q3 0 3 4l1 570l-78 2q0 14 2 36q20 0 64.5 -0.5t65.5 -0.5q210 -310 379 -570l5 2q-2 356 -4 531l-100 1q0 25 1 36h122q17 0 48.5 0.5t44.5 0.5v-11v-13.5v-10.5l-66 -3q-2 0 -2 -4l-3 -606q-18 -9 -33 -9q-169 236 -395 579h-6q0 -355 -1 -534l107 -2
q0 -24 -1 -35h-128q-17 0 -49.5 -0.5t-45.5 -0.5q0 24 1 35z" />
    <glyph glyph-name="O" unicode="O" horiz-adv-x="713" 
d="M344 -10q-120 0 -204 84q-88 90 -88 246q0 91 38.5 166t97.5 117q82 57 186 57q96 0 166 -50q55 -40 88 -110t33 -154q0 -173 -105 -277q-81 -79 -212 -79zM357 30q104 0 167 68q79 89 79 228q0 151 -80 232q-63 62 -160 62q-91 0 -155 -55q-99 -82 -99 -240
q0 -145 80 -229q65 -66 168 -66z" />
    <glyph glyph-name="P" unicode="P" horiz-adv-x="530" 
d="M127 612l-73 2q0 23 1 35q76 2 142 2q110 0 167 -17q60 -17 94 -62t34 -98q0 -65 -36.5 -117t-90.5 -74q-62 -23 -143 -23q-11 0 -24.5 0.5t-16.5 0.5l-1 -221l118 -3q0 -24 -1 -36h-141q-17 0 -51.5 -0.5t-50.5 -0.5v36l69 4q4 0 4 3v569zM183 610l-2 -303q9 -8 59 -8
q72 0 118 25q77 44 77 135q0 78 -51.5 117t-144.5 39q-43 0 -56 -5z" />
    <glyph glyph-name="Q" unicode="Q" horiz-adv-x="714" 
d="M52 316q0 95 39.5 172t105.5 122q79 50 179 50q83 0 148 -39q66 -42 102 -117t36 -162q0 -171 -105 -273q-52 -49 -115 -69v-4q80 -53 159 -88q31 -14 69 -14q42 0 90 16q6 -22 6 -35q-82 -28 -129 -28q-32 0 -76 23q-71 37 -181 121q-7 -1 -26 -1q-129 0 -214 83
q-88 89 -88 243zM108 323q0 -149 84 -229q66 -64 167 -64q100 0 165 70q80 89 80 220q0 165 -86 243q-64 57 -155 57q-97 0 -160 -60q-40 -36 -67.5 -97t-27.5 -140z" />
    <glyph glyph-name="R" unicode="R" horiz-adv-x="590" 
d="M127 612l-73 2q0 24 1 35q106 2 183 2q80 0 134 -16q48 -14 82.5 -55t34.5 -93q0 -64 -38.5 -111t-101.5 -70v-5q11 -4 20 -10.5t18 -17t15.5 -19t17 -26.5t16.5 -28.5t19.5 -35.5t20.5 -39q28 -54 40 -69.5t22 -15.5l65 -2q0 -25 -1 -37h-65q-17 -1 -48 -1
q-20 24 -70 120t-67 119q-20 27 -41.5 37t-63.5 10q-57 0 -67 -2v-244l93 -3q1 -12 -1 -37q-15 0 -55 0.5t-60 0.5q-19 0 -54 -0.5t-50 -0.5q0 25 1 36l68 4q5 0 5 3v569zM183 610l-2 -286q6 -2 62 -2q97 0 143 46.5t46 100.5q0 73 -49.5 109.5t-135.5 36.5q-54 0 -64 -5z
" />
    <glyph glyph-name="S" unicode="S" horiz-adv-x="479" 
d="M87 170l15 -106q1 -8 8 -12q37 -24 101 -24q87 0 126 45q34 37 34 87q0 33 -7 55t-28.5 40.5t-38.5 28t-60 29.5q-14 7 -21 10q-71 34 -107 71.5t-36 95.5q0 37 18 72t46 56q56 42 148 42q80 0 120 -24q3 -29 10 -137q-28 -4 -42 -5l-16 93q-3 12 -7 14q-24 21 -81 21
q-64 0 -103 -33q-41 -36 -41 -91q0 -52 27.5 -77t115.5 -66q81 -38 118 -76t37 -101q0 -81 -54 -133q-58 -55 -170 -55q-86 0 -145 24q-2 29 -10 151q26 4 43 5z" />
    <glyph glyph-name="T" unicode="T" horiz-adv-x="553" 
d="M162 36l85 3q4 0 4 3v569q-122 0 -148 -3q-23 -1 -26 -19l-15 -96q-5 0 -13.5 1t-15.5 1.5t-13 0.5q2 23 3.5 48.5t3 57t2.5 48.5q7 0 37 -0.5t54 -0.5h163q17 0 85.5 0.5t78.5 0.5q23 0 49 0.5t35 0.5q4 -49 8 -153q-22 -4 -42 -5l-15 97q-3 18 -26 19q-31 2 -149 2
l-2 -572l97 -3q0 -24 -1 -36q-16 0 -57 0.5t-61 0.5q-19 0 -60.5 -0.5t-61.5 -0.5q0 24 1 36z" />
    <glyph glyph-name="U" unicode="U" horiz-adv-x="666" 
d="M163 611l-1 -337q-1 -75 9.5 -114.5t33.5 -70.5q44 -59 130 -59q34 0 60.5 8.5t39 17.5t27.5 24q53 51 53 183v103.5v131.5v108q0 4 -4 4l-88 2q0 14 2 36q16 0 53 0.5t58 0.5q18 0 51.5 0.5t47.5 0.5q0 -24 -1 -37l-68 -3l-2 -352q-1 -137 -69 -207q-57 -61 -159 -61
q-106 0 -162 57q-40 39 -52.5 88t-12.5 129v342q0 5 -5 5l-66 2q0 7 0.5 19t0.5 17h99q22 0 62 0.5t59 0.5q0 -24 -2 -36z" />
    <glyph glyph-name="V" unicode="V" horiz-adv-x="611" 
d="M620 615l-57 -4q-19 -49 -58 -148.5t-52 -131.5q-89 -232 -137 -340q-7 -1 -33 -1q-38 97 -130 352q-4 11 -92 266q0 4 -6 4l-60 3q0 24 1 35h93h141q0 -25 -1 -36l-106 -3q23 -85 77 -243q11 -32 46.5 -136t55.5 -159h5q42 102 109 285q72 200 87 249q0 4 -3 4l-96 3
q0 25 1 36h125h91q0 -24 -1 -35z" />
    <glyph glyph-name="W" unicode="W" horiz-adv-x="874" 
d="M881 615l-58 -3q-15 -59 -44 -162.5t-32 -113.5q-51 -193 -102 -346q-9 -1 -34 -1q-72 216 -161 532h-6q-99 -292 -191 -531q-9 -1 -33 -1q-39 145 -90 365q-10 42 -28.5 127t-28.5 127q0 4 -6 4l-60 3q0 24 1 35h93h137q0 -24 -1 -36l-103 -3q14 -89 47 -239
q37 -175 62 -286h5q22 64 89.5 258t98.5 281q4 1 32 1q19 -64 73.5 -252t86.5 -294h6q13 51 37.5 145.5t34.5 134.5q43 166 58 247q2 5 -3 5l-94 2q0 6 0.5 18t0.5 17q18 0 60.5 0.5t61.5 0.5q64 0 92 1q0 -6 -0.5 -18.5t-0.5 -17.5z" />
    <glyph glyph-name="X" unicode="X" horiz-adv-x="570" 
d="M-12 35l60 3q2 0 6 4q27 38 96 137.5t105 149.5v8q-11 17 -77 118t-99 153q-2 4 -7 4l-63 3q0 24 1 35h96h132q0 -24 -1 -36l-97 -3q86 -148 149 -239h6q18 25 74 115.5t71 119.5q1 4 -3 5l-88 3q0 24 1 35h119h93q0 -24 -1 -35l-60 -4q-137 -207 -183 -272v-6
q51 -72 196 -295l67 -2q0 -24 -1 -35h-97h-124q0 5 0.5 17t0.5 17l85 4q5 0 3 5q-20 34 -78.5 124.5t-84.5 126.5h-6q-43 -59 -168 -257l90 -2q0 -24 -1 -35h-121q-16 0 -47 -0.5t-45 -0.5q0 24 1 35z" />
    <glyph glyph-name="Y" unicode="Y" horiz-adv-x="545" 
d="M162 36l83 2q6 2 6 6v209q-107 194 -201 356q-3 3 -5 3l-55 3q0 24 1 36q13 0 43.5 -0.5t46.5 -0.5q25 0 68 0.5t63 0.5q0 -24 -1 -36l-98 -3q117 -219 168 -313h5q95 172 161 309q2 4 -2 4l-89 3q0 24 1 35h118q13 0 43 0.5t42 0.5q0 -24 -1 -35l-52 -4
q-20 -33 -202 -357l-1 -216l97 -3q0 -13 -2 -35h-118q-20 0 -60.5 -0.5t-59.5 -0.5q0 24 1 36z" />
    <glyph glyph-name="Z" unicode="Z" horiz-adv-x="577" 
d="M102 44l1 -4h102h89.5t61 0.5t55 2.5t32.5 5q18 6 26 26l33 107q20 -3 43 -8q-21 -98 -41 -174q-4 0 -55 0.5t-116.5 0.5h-105.5h-182q-3 6 -7 16.5t-7 15.5q33 41 93.5 120.5t107.5 143.5t126 171.5t101 137.5l-2 5q-48 0 -114.5 0.5t-85.5 0.5q-72 0 -103 -3
q-14 -2 -21 -25l-31 -107l-42 6q7 40 30 169q7 0 20.5 -0.5t33 -1t33.5 -0.5h336q8 -15 14 -36q-301 -410 -425 -569z" />
    <glyph glyph-name="bracketleft" unicode="[" horiz-adv-x="299" 
d="M104 -117v818q114 0 170 1q0 -23 -1 -34l-115 -2q-6 0 -6 -8l-2 -739l125 -2q0 -24 -1 -35q-27 0 -85.5 0.5t-84.5 0.5z" />
    <glyph glyph-name="backslash" unicode="\" horiz-adv-x="387" 
d="M333 -47q-45 102 -176 404q-128 295 -146 335q36 18 41 20q51 -116 143 -337q9 -20 74 -171t101 -234q-17 -9 -37 -17z" />
    <glyph glyph-name="bracketright" unicode="]" horiz-adv-x="299" 
d="M196 701l-2 -817q-102 -2 -168 -2q-1 12 -1 36l123 2v738q0 8 -6 8l-115 2v34q29 0 87 -0.5t82 -0.5z" />
    <glyph glyph-name="asciicircum" unicode="^" horiz-adv-x="513" 
d="M240 630q13 1 40 1q121 -179 178 -262q-19 -17 -34 -27q-3 5 -165 227q-17 -24 -71 -102t-87 -124q-17 10 -36 26q116 172 175 261z" />
    <glyph glyph-name="underscore" unicode="_" horiz-adv-x="500" 
d="M0 -73h500v-54h-500v54z" />
    <glyph glyph-name="grave" unicode="`" horiz-adv-x="300" 
d="M104 625q120 -123 127 -130q-7 -9 -23 -25q-17 14 -66 56.5t-75 63.5q25 25 37 35z" />
    <glyph glyph-name="a" unicode="a" horiz-adv-x="435" 
d="M291 36h-5q-88 -46 -146 -46q-39 0 -74 27t-35 66q0 49 49.5 89.5t136.5 39.5h75q2 91 -18.5 129.5t-71.5 38.5q-60 0 -118 -70l-29 29q76 85 159 85q60 0 95 -40.5t35 -125.5q0 -128 -2 -210q0 -18 10 -18l71 2v-30q-39 -12 -101 -12q-10 9 -31 46zM90 88q0 -25 20 -41
t53 -16q59 0 124 46q3 1 3 8v91q-10 2 -66 2q-68 0 -101 -25t-33 -65z" />
    <glyph glyph-name="b" unicode="b" horiz-adv-x="496" 
d="M130 375l5 -1q66 33 95 41.5t60 8.5q69 0 115.5 -57.5t46.5 -129.5q0 -71 -24 -124q-27 -61 -80 -95q-41 -28 -109 -28q-60 0 -115 32l-19 -33q-12 0 -34 6q7 61 7 116q1 165 1 531l-75 3q0 21 1 30q16 2 46 8.5t53.5 11.5t26.5 5q2 0 2 -3q0 -160 -3 -322zM395 209
q0 71 -27 117q-32 53 -93 53q-71 0 -144 -52q0 -40 -0.5 -123t-0.5 -121q0 -20 34.5 -38t77.5 -18q59 0 101 39q52 50 52 143z" />
    <glyph glyph-name="c" unicode="c" horiz-adv-x="392" 
d="M44 183q0 107 64.5 174t164.5 67q58 0 87 -20q-1 -7 -11 -24.5t-17 -22.5q-1 0 -15.5 6.5t-33.5 11.5t-37 5q-56 0 -94 -38q-52 -54 -52 -140q0 -85 37 -130q33 -41 97 -41q51 0 126 31q1 -4 2.5 -9.5t3.5 -12.5t3 -11q-80 -39 -151 -39q-72 0 -123 51t-51 142z" />
    <glyph glyph-name="d" unicode="d" horiz-adv-x="508" 
d="M369 35h-5q-58 -29 -84 -37t-56 -8q-76 0 -123 49q-57 56 -57 151q0 98 63 169q57 65 152 65q50 0 102 -22l3 3q0 157 -1 238l-85 1v31q20 3 53 9.5t56.5 11t27.5 4.5q3 0 3 -4q-3 -546 -3 -638q0 -13 3 -19t10 -5l72 2q0 -20 -1 -31q-48 -15 -102 -15q-15 13 -28 45z
M362 88v268q-55 29 -108 29q-72 0 -114 -54q-39 -53 -39 -134q0 -75 35 -123q34 -45 96 -45t125 45q5 4 5 14z" />
    <glyph glyph-name="e" unicode="e" horiz-adv-x="430" 
d="M44 191q0 98 55.5 165.5t145.5 67.5q73 0 112 -50q35 -43 35 -124q-16 -29 -29 -30q-101 -3 -263 -3q-3 -96 34 -140q22 -27 48 -36.5t64 -9.5q51 0 130 34q5 -15 9 -35q-81 -40 -149 -40q-93 0 -142.5 56.5t-49.5 144.5zM236 388q-50 0 -82 -32q-45 -45 -49 -102
q153 0 218 3q14 0 14 11q0 56 -31 89q-28 31 -70 31z" />
    <glyph glyph-name="f" unicode="f" horiz-adv-x="321" 
d="M157 36l100 -2v-33h-125q-13 0 -44 -0.5t-46 -0.5q-1 12 1 32l60 4q3 0 3 4v331h-77q0 14 2 38q46 2 71 2q4 0 4 7q1 82 12 120.5t40 71.5q62 70 146 70q26 0 52 -10q0 -9 -9 -26.5t-18 -24.5q-39 11 -62 11q-17 0 -38 -9t-33 -24q-23 -27 -30.5 -62t-6.5 -123
q101 0 149 1q2 -19 -2 -41h-147q-1 -49 -1.5 -166t-0.5 -170z" />
    <glyph glyph-name="g" unicode="g" horiz-adv-x="446" 
d="M137 114v5q-89 42 -89 142q0 65 48.5 114t132.5 49q29 0 61 -8q8 -2 21 -2q18 1 63 2.5t63 2.5v-40h-99v-3q39 -36 39 -102q0 -68 -45 -115q-57 -58 -155 -52q-4 -3 -11.5 -9t-11.5 -9.5t-10 -8.5t-9.5 -8.5t-7 -7.5t-5 -7.5t-1.5 -6.5q0 -21 27 -27t111 -9
q107 -3 137 -24q45 -28 45 -75q0 -39 -24 -73.5t-70 -55.5q-68 -28 -148 -28q-86 0 -134 29.5t-48 84.5q0 30 22 48q18 15 43 34t37 30v6q-54 12 -54 62q0 6 10.5 15t61.5 47zM103 260q0 -60 30.5 -89.5t75.5 -29.5q49 0 81 34t32 94q0 57 -26 87q-28 33 -78 33
q-53 0 -84 -33.5t-31 -95.5zM390 -96q0 37 -25.5 49.5t-97.5 18.5q-4 0 -104 5q-6 -5 -17.5 -14.5t-16.5 -13.5t-14 -12t-13 -12l-10.5 -10.5t-9 -11.5t-6 -11t-4.5 -11.5t-1 -11.5q0 -38 41.5 -57t92.5 -19q73 0 123 25q62 32 62 86z" />
    <glyph glyph-name="h" unicode="h" horiz-adv-x="530" 
d="M143 363l4 -1q75 41 105 51.5t61 10.5q70 0 110 -68q14 -25 14 -75q0 -39 -1 -122t-1 -123l70 -2q0 -23 -1 -33h-96q-16 0 -48 -0.5t-46 -0.5v32l66 4q4 0 4 4v193q0 86 -16 112q-21 35 -70 35q-66 0 -154 -63q0 -42 -1 -142t-1 -139l86 -2q0 -6 -0.5 -16.5t-0.5 -16.5
h-111q-13 0 -44 -0.5t-45 -0.5q0 22 1 32l60 4q3 0 3 4q1 182 1 606l-80 1q0 21 1 30q15 2 46.5 8t56.5 10.5t28 4.5q2 0 2 -4q0 -43 -0.5 -98t-1.5 -126t-1 -109z" />
    <glyph glyph-name="i" unicode="i" horiz-adv-x="251" 
d="M129 618q21 0 30 -14t9 -30q0 -19 -11.5 -31.5t-30.5 -12.5t-31.5 13t-12.5 30q0 19 12.5 32t34.5 13zM106 368l-81 3v30q16 2 48 8.5t56 11t28 4.5q2 0 2 -3q0 -56 -1 -194t-1 -192l74 -3q0 -22 -1 -32h-104q-15 0 -47 -0.5t-48 -0.5q0 22 1 33l70 3q4 0 4 4v328z" />
    <glyph glyph-name="j" unicode="j" horiz-adv-x="228" 
d="M116 618q21 0 30.5 -14.5t9.5 -32.5q0 -15 -11 -28t-29 -13q-20 0 -32 13t-12 30t11.5 31t32.5 14zM99 367l-83 1q0 21 1 30q15 3 48 10t57.5 12t28.5 5q2 0 2 -3q0 -48 -0.5 -166.5t-0.5 -167.5q0 -72 -9 -118t-34 -93q-35 -67 -92 -101q-9 1 -25 13t-19 23q71 33 95 77
q33 59 33 171z" />
    <glyph glyph-name="k" unicode="k" horiz-adv-x="479" 
d="M92 646l-80 -1q0 6 0.5 16.5t0.5 14.5q15 2 46.5 8t56.5 11t28 5t3 -4q0 -56 -0.5 -131t-1.5 -172t-1 -147q42 0 66 4q64 60 117 122q1 4 -2 5l-50 2q0 25 1 34h88q14 0 41 0.5t39 0.5q2 -16 0 -34l-49 -4q-94 -93 -142 -137v-5q38 -34 87 -107q52 -74 59 -81q9 -9 19 -9
l62 -2q0 -22 -1 -33q-37 -2 -114 -2q-26 32 -74 107q-51 83 -91 105q-34 0 -56 -2q0 -26 -0.5 -87.5t-0.5 -86.5l70 -2q0 -23 -1 -33h-95q-17 0 -49 -0.5t-45 -0.5q0 22 1 33l65 3q2 0 2 4q1 180 1 606z" />
    <glyph glyph-name="l" unicode="l" horiz-adv-x="242" 
d="M94 645l-83 1q0 22 1 32q17 2 49 7.5t57 10t28 4.5t3 -4q0 -23 -2 -281.5t-2 -378.5l84 -2q0 -23 -1 -33h-110q-17 0 -51 -0.5t-49 -0.5q0 22 1 33l71 3q3 0 3 4q2 393 1 605z" />
    <glyph glyph-name="m" unicode="m" horiz-adv-x="799" 
d="M105 367l-81 2q0 12 2 30q16 3 44.5 9t50 10.5t24.5 4.5t3 -3q5 -28 8 -53l4 -1q46 27 75.5 40t42.5 15.5t33 2.5q67 0 108 -67h3q65 43 95.5 54t65.5 11q69 0 106 -66q19 -34 19 -72q0 -8 -3 -248l67 -3q0 -22 -1 -32h-97q-16 0 -45.5 -0.5t-41.5 -0.5q0 22 1 32l63 4
q3 0 3 4q0 37 0.5 108t0.5 97q0 66 -13 92q-21 44 -76 44t-133 -60q1 -88 -1 -285l76 -3q0 -22 -1 -32h-107q-15 0 -44.5 -0.5t-41.5 -0.5q0 22 1 33l62 3q3 0 3 4q1 71 1 211q0 71 -13 93q-22 39 -72 39q-27 0 -66 -17.5t-70 -43.5q-3 -138 -3 -286l80 -3q0 -22 -1 -32
h-105q-15 0 -47 -0.5t-44 -0.5q0 22 1 33l62 3q2 0 2 4v327z" />
    <glyph glyph-name="n" unicode="n" horiz-adv-x="544" 
d="M106 367l-81 1q0 12 2 30q14 3 43.5 9.5t51 11t24.5 4.5q2 0 2 -2q1 -10 5 -32t4 -28l5 -1q70 43 99.5 53.5t64.5 10.5q69 0 107 -66q18 -32 18 -70q0 -96 -2 -252l67 -3v-32q-15 0 -48 -0.5t-50 -0.5q-14 0 -44.5 -0.5t-43.5 -0.5v33l64 3q3 1 3 4q0 29 0.5 96t0.5 97
q0 81 -14 105q-24 43 -77 43q-30 0 -71.5 -19t-75.5 -46q-2 -160 -2 -279l79 -3q0 -22 -1 -33q-15 0 -52 0.5t-56 0.5q-15 0 -45 -0.5t-43 -0.5q0 5 0.5 16t0.5 17l63 3q3 0 3 3z" />
    <glyph glyph-name="o" unicode="o" horiz-adv-x="493" 
d="M238 -10q-79 0 -131 47q-64 61 -64 163q0 112 82 180q53 44 129 44q75 0 121 -37q75 -59 75 -170q0 -117 -80 -184q-53 -43 -132 -43zM245 24q59 0 94 36q52 52 52 153q0 91 -47 138q-39 39 -96 39t-95 -37q-51 -51 -51 -148q0 -94 53 -146q37 -35 90 -35z" />
    <glyph glyph-name="p" unicode="p" horiz-adv-x="507" 
d="M139 371l4 -1q71 36 97.5 45t59.5 9q75 0 120 -59.5t44 -128.5q0 -72 -22 -121q-29 -64 -80 -97q-43 -28 -112 -28q-57 0 -106 26l-4 -3v-61v-79.5v-60.5l97 -2q-1 -10 -1 -33q-81 0 -122 -1q-63 0 -90 -1q0 22 1 33l60 4q4 0 4 5v550l-80 1q0 20 1 29q15 3 44 10
t50.5 12t24.5 5q2 0 2 -3q5 -25 8 -50zM407 215q0 61 -23 105q-14 27 -41 43t-59 16q-71 0 -141 -52q0 -41 -0.5 -125t-0.5 -121q0 -18 35.5 -36.5t77.5 -18.5q59 0 97 37q55 53 55 152z" />
    <glyph glyph-name="q" unicode="q" horiz-adv-x="494" 
d="M365 35l-7 1q-52 -29 -75.5 -37t-51.5 -8q-79 0 -129 50q-58 60 -58 153q0 94 61 164q56 66 155 66q48 0 109 -22l20 26q12 0 32 -5q-5 -55 -5 -88q0 -70 -0.5 -261.5t-0.5 -260.5l66 -2q0 -23 -1 -33q-14 0 -44 -0.5t-48 -0.5q-22 -1 -65 -2t-53 -1q0 21 1 32l89 6
q4 0 4 6zM252 386q-72 0 -111 -55q-39 -49 -39 -132q0 -79 38 -125q34 -44 98 -44q49 0 119 47q6 5 6 16v263q-49 30 -111 30z" />
    <glyph glyph-name="r" unicode="r" horiz-adv-x="352" 
d="M106 368l-77 2q0 19 1 29q17 3 46 9t51 11t24 5t2 -3q0 -9 0.5 -30t1 -52t0.5 -53h4q40 78 71.5 108.5t63.5 30.5q31 0 57 -10q0 -11 -8 -29.5t-15 -23.5q-31 7 -48 7q-15 0 -35 -17q-30 -24 -70 -101q-17 -32 -17 -93q-1 -41 -1 -123l97 -2q0 -22 -1 -32h-120
q-16 0 -47.5 -0.5t-45.5 -0.5q0 22 1 32l62 3q3 0 3 3v330z" />
    <glyph glyph-name="s" unicode="s" horiz-adv-x="389" 
d="M79 127l13 -67q3 -9 9 -13q28 -22 72 -22q57 0 86 19q30 22 30 62q0 37 -20.5 52t-82.5 34q-13 4 -20 6q-58 18 -82 42t-24 64q0 60 56 95q44 25 112 25q62 0 92 -19q1 -16 4.5 -51t5.5 -53q-6 0 -19.5 -2t-20.5 -3l-13 66q-3 9 -8 11q-21 16 -64 16q-41 0 -69 -21
q-27 -22 -27 -58q0 -33 18 -45.5t83 -32.5q66 -19 97.5 -42.5t31.5 -75.5q0 -62 -57 -100q-38 -24 -113 -24t-117 20q-3 32 -14 110q9 2 41 7z" />
    <glyph glyph-name="t" unicode="t" horiz-adv-x="339" 
d="M203 -9q-49 0 -77 25q-17 15 -21 31t-4 46q0 28 0.5 91.5t0.5 74.5q0 18 0.5 58t0.5 54h-69q0 16 2 38q42 2 63 2q5 0 7 7q0 64 2 94q39 29 49 29q2 0 2 -3q0 -18 -1 -60.5t-1 -65.5q107 0 158 1q0 -5 -3 -41h-157v-120q-1 -42 -1 -156q0 -33 19.5 -49.5t50.5 -16.5
q36 0 92 16q4 -14 6 -33q-64 -22 -119 -22z" />
    <glyph glyph-name="u" unicode="u" horiz-adv-x="517" 
d="M371 44l-5 1q-63 -37 -90 -46t-61 -9q-51 0 -89 41.5t-38 94.5q0 47 0.5 130.5t0.5 118.5l-65 1q0 24 1 34q13 0 41 1t49 2t26 1q3 0 3 -3q-3 -117 -3 -241v-7q0 -66 16 -92q25 -40 77 -40q58 0 135 58v89v111.5v85.5l-69 2q0 5 1 17t1 18q72 2 119 2q2 0 2 -3
q0 -57 -1 -179t-1 -182q0 -17 8 -17l70 1v-30q-49 -14 -100 -14q-15 17 -28 54z" />
    <glyph glyph-name="v" unicode="v" horiz-adv-x="460" 
d="M463 382l-50 -3q-29 -62 -90 -199q-27 -63 -89 -189q-9 -1 -31 -1q-47 117 -83 218q-15 45 -34 97t-25 71q-1 3 -4 3l-55 3q0 22 1 32h87h105q0 -22 -1 -33l-73 -2q9 -40 46 -152q53 -156 56 -165h6q35 76 63 148q49 121 64 166q2 3 -2 3l-65 2q0 6 0.5 17t0.5 15
q14 0 48 0.5t52 0.5h74q0 -5 -0.5 -15.5t-0.5 -16.5z" />
    <glyph glyph-name="w" unicode="w" horiz-adv-x="663" 
d="M664 382l-47 -3q-35 -110 -63 -194q-30 -86 -71 -195q-11 -1 -33 -1q-64 171 -107 328h-6q-64 -171 -138 -327q-9 -1 -29 -1q-32 101 -65 221q-21 79 -44 166q0 3 -3 3l-50 3v32q10 0 36.5 -0.5t41.5 -0.5q18 0 53.5 0.5t52.5 0.5q0 -22 -1 -32l-74 -2q8 -42 34 -153
q11 -48 39 -162h5l132 327q9 1 37 1q5 -15 47.5 -149.5t57.5 -179.5h5q26 82 47 150q27 94 44 161q1 4 -2 4l-61 2q0 6 0.5 17t0.5 15h93q12 0 35.5 0.5t33.5 0.5q0 -20 -1 -32z" />
    <glyph glyph-name="x" unicode="x" horiz-adv-x="457" 
d="M-1 32l42 3q7 1 10 6q4 4 149 171v7q-92 121 -119 157q-3 3 -5 3l-52 3q0 21 1 31h87h95q0 -21 -1 -32l-64 -2q19 -30 92 -132h6q69 90 94 128q4 4 -1 4l-56 2q0 22 1 32h93q50 0 72 1q0 -22 -1 -32l-49 -3q-44 -55 -132 -159v-5q18 -24 66.5 -89t68.5 -91l56 -2
q0 -22 -1 -32h-84h-100q0 22 1 32l58 2q9 0 4 5q-23 37 -104 143h-4q-33 -37 -119 -148l63 -2q0 -22 -1 -32h-95q-12 0 -36 -0.5t-36 -0.5q0 22 1 32z" />
    <glyph glyph-name="y" unicode="y" horiz-adv-x="448" 
d="M452 382l-46 -3q-15 -39 -81 -199q-30 -74 -78 -171.5t-84 -151.5q-52 -79 -89 -99q-9 0 -27 13t-18 20q56 39 95 88q49 62 75 125q-49 122 -86 220q-10 26 -29 78t-28 74q0 3 -5 3l-52 3q0 23 1 32h77h115q0 -22 -1 -33l-77 -2q12 -42 49 -148q17 -51 61 -172h6
q45 107 62 150q27 72 58 165q2 5 -3 5l-68 2q0 23 1 32q14 0 46.5 0.5t50.5 0.5h76q0 -21 -1 -32z" />
    <glyph glyph-name="z" unicode="z" horiz-adv-x="424" 
d="M96 39l1 -4q162 0 205 4q25 4 30 21l28 79q19 -3 40 -8q-10 -44 -32 -132q-3 0 -18.5 0.5t-43 0.5h-60.5h-114h-89q-7 16 -11 29q23 28 86 103.5t115 138.5t82 102l-1 5q-96 0 -176 -2q-23 0 -28 -15l-25 -80q-24 4 -41 9q5 23 14.5 64.5t13.5 59.5q4 0 34 -0.5t54 -0.5
q110 -2 210 0q2 -4 4 -9.5t4.5 -12.5t3.5 -11q-238 -286 -286 -341z" />
    <glyph glyph-name="braceleft" unicode="{" horiz-adv-x="313" 
d="M122 304v-6q28 -10 42 -32.5t13 -48.5q0 -38 -10 -94.5t-10 -86.5q0 -56 35 -90t97 -33q1 -11 1 -35q-83 0 -133 45t-50 113q0 37 12 94t12 80q0 73 -86 69q-1 11 -1 36q89 0 87 59q0 24 -11 78t-11 89q0 76 46.5 120t136.5 45q2 -19 -1 -34q-132 -1 -132 -124
q0 -32 9.5 -85.5t9.5 -83.5q0 -56 -56 -75z" />
    <glyph glyph-name="bar" unicode="|" horiz-adv-x="513" 
d="M236 750h42v-1000h-42v1000z" />
    <glyph glyph-name="braceright" unicode="}" horiz-adv-x="313" 
d="M189 296v6q-54 18 -56 77q0 30 11 83.5t11 85.5q0 123 -132 123q-1 11 -1 35q90 0 136.5 -44.5t46.5 -120.5q0 -35 -13 -89t-13 -78q0 -59 90 -59q0 -25 -1 -36q-88 4 -90 -69q0 -23 13 -80t13 -94q0 -68 -50 -112.5t-133 -44.5q-2 20 1 35q62 0 97.5 33.5t35.5 88.5
q0 30 -11 86.5t-11 94.5q0 26 14.5 48.5t41.5 30.5z" />
    <glyph glyph-name="asciitilde" unicode="~" horiz-adv-x="513" 
d="M178 296q39 0 95 -37q2 -2 10 -7.5t11.5 -8t11.5 -7t13.5 -6.5t13.5 -4t16 -2q23 0 38 21.5t18 53.5q19 1 42 0q-2 -46 -29 -86t-70 -40q-33 0 -91 38q-4 2 -13.5 9t-15 10.5t-15 8t-18.5 6.5t-19 2q-52 0 -67 -72q-6 0 -19.5 0.5t-21.5 0.5q7 50 37 85t73 35z" />
    <glyph glyph-name="uni00A0" unicode="&#xa0;" horiz-adv-x="219" 
 />
    <glyph glyph-name="exclamdown" unicode="&#xa1;" horiz-adv-x="261" 
d="M98 -241q-1 1 -1 3q9 269 15 499q21 3 39 5q1 -18 7 -237q5 -177 8 -254q-11 -5 -36.5 -10.5t-31.5 -5.5zM130 337q-21 0 -32 15t-11 31q0 14 13 27.5t30 13.5q20 0 33 -12t13 -30q0 -17 -12.5 -31t-33.5 -14z" />
    <glyph glyph-name="cent" unicode="&#xa2;" horiz-adv-x="513" 
d="M71 298q0 87 53.5 151.5t139.5 77.5q1 34 1 101q13 4 43 6q0 -30 -2 -102q6 1 22 1q58 0 111 -25q0 -9 -10 -24.5t-19 -19.5q-63 30 -105 29q-1 -56 -2.5 -174.5t-1.5 -173.5q59 3 140 36q7 -21 10 -33q-86 -37 -150 -42q-1 -36 -1 -102q-11 -2 -40 -4q0 14 0.5 49.5
t0.5 54.5q-85 4 -137.5 54t-52.5 140zM123 311q0 -83 43 -126q36 -36 95 -39q1 55 2 172t1 172q-65 -9 -103 -63.5t-38 -115.5z" />
    <glyph glyph-name="sterling" unicode="&#xa3;" horiz-adv-x="513" 
d="M341 654q52 0 84 -14q7 -76 11 -132q-7 -1 -20.5 -2.5t-20.5 -2.5l-14 93q-3 10 -11 14q-22 7 -55 7q-54 0 -88 -35q-38 -36 -38 -112q0 -9 13 -149q43 0 187 2q0 -16 -2 -38q-130 0 -182 -1q2 -24 2 -33q0 -118 -59 -205q-6 -10 9 -10q207 0 237 6q12 3 19 21l34 98
q10 -2 37 -9q-5 -21 -37 -152h-325h-108q0 5 0.5 17t0.5 18l67 3q12 0 17 7q57 57 57 179q0 32 -4 60h-101q0 14 2 36q31 1 92 1q5 0 5 6q-13 115 -13 130q0 93 56 146q57 51 148 51z" />
    <glyph glyph-name="currency" unicode="&#xa4;" horiz-adv-x="513" 
d="M264 490q59 0 101 -30q65 73 67 75q13 -10 35 -34q-62 -69 -69 -76q32 -46 32 -104q0 -77 -43 -123q54 -60 77 -86q-17 -17 -33 -29q-26 31 -75 85q-42 -31 -103 -31q-54 0 -95 25q-11 -12 -35 -39t-36 -40q-5 4 -10.5 8.5t-12.5 10.5t-11 9q22 24 72 80q-41 43 -41 114
q0 67 40 117q-34 39 -73 78q20 22 36 35q29 -33 71 -80q43 35 106 35zM258 451q-50 0 -81 -30q-44 -44 -44 -109q0 -70 41 -108q31 -28 81 -28q51 0 81 26q44 39 44 115q0 68 -40 106q-31 28 -82 28z" />
    <glyph glyph-name="yen" unicode="&#xa5;" horiz-adv-x="513" 
d="M241 44v101q-21 0 -76.5 -0.5t-80.5 -0.5q0 26 1 37h156v65h-159q0 24 1 35q49 1 144 1q-31 57 -87 163t-78 148q-4 4 -6 4l-44 2q0 24 1 36q9 0 34 -0.5t39 -0.5q25 0 68 0.5t61 0.5q0 -24 -1 -36l-95 -3q75 -149 148 -299h5q88 177 143 295q0 5 -4 5l-88 2q0 24 1 35
h114q12 0 39 0.5t36 0.5q0 -24 -1 -35l-44 -4q-101 -194 -167 -314q25 0 72.5 0.5t70.5 0.5q1 -12 -1 -37h-156l-1 -65q26 0 78.5 0.5t76.5 0.5q0 -25 -2 -36q-19 0 -74 -0.5t-79 -0.5l-1 -106l100 -3q1 -13 -1 -36q-16 0 -57 0.5t-62 0.5q-19 0 -59 -0.5t-59 -0.5
q0 24 1 35l87 3q6 0 6 6z" />
    <glyph glyph-name="brokenbar" unicode="&#xa6;" horiz-adv-x="513" 
d="M236 675h42v-350h-42v350zM236 175h42v-350h-42v350z" />
    <glyph glyph-name="section" unicode="&#xa7;" horiz-adv-x="446" 
d="M384 194q0 -74 -46 -123q17 -28 17 -67q0 -74 -48 -122t-122 -48q-47 0 -91 17.5t-72 46.5q6 11 17 21t22 11q23 -24 57.5 -41t70.5 -17q55 0 89 36q28 31 28 82q0 43 -24.5 74.5t-86.5 69.5q-67 41 -98 83.5t-31 97.5q0 66 51 121q-27 34 -27 81q0 64 56 109
q43 34 109 34q88 0 139 -51q-4 -10 -15.5 -20t-21.5 -13q-15 17 -47.5 31.5t-61.5 14.5q-49 0 -74 -22q-36 -31 -36 -78q0 -41 27.5 -72.5t101.5 -79.5q63 -42 90 -82t27 -94zM111 329q0 -49 25 -82.5t85 -73.5q71 -47 95 -76q24 32 24 82q0 51 -24.5 83t-86.5 77
q-63 43 -91 71q-27 -31 -27 -81z" />
    <glyph glyph-name="dieresis" unicode="&#xa8;" horiz-adv-x="300" 
d="M78 568q36 0 36 -41q0 -13 -9.5 -24.5t-26.5 -11.5q-18 0 -28.5 10.5t-10.5 27.5q0 15 10 27t29 12zM226 568q17 0 26.5 -12t9.5 -27q0 -17 -10.5 -27.5t-27.5 -10.5t-27 11.5t-10 24.5q0 41 39 41z" />
    <glyph glyph-name="copyright" unicode="&#xa9;" horiz-adv-x="762" 
d="M384 660q139 0 231 -96t92 -237q0 -139 -95 -238t-233 -99q-139 0 -231.5 96t-92.5 236t95.5 239t233.5 99zM380 626q-120 0 -200.5 -89t-80.5 -213q0 -125 80.5 -212.5t201.5 -87.5t201.5 88.5t80.5 212.5q0 126 -80 213.5t-203 87.5zM465 390l-8 64q0 4 -5 9
q-17 10 -48 10q-51 0 -86 -32q-51 -48 -51 -127q0 -66 34 -101q33 -36 97 -36q45 0 99 26q6 -19 9 -34q-62 -29 -118 -29q-66 0 -112 35q-60 44 -60 133q0 94 71 156q53 45 131 45q51 0 77 -13q4 -65 5 -103q-15 -3 -35 -3z" />
    <glyph glyph-name="ordfeminine" unicode="&#xaa;" horiz-adv-x="347" 
d="M225 362h-3q-64 -32 -109 -32q-27 0 -53.5 19.5t-26.5 48.5q0 36 36 66t99 30h56q2 63 -13 89.5t-50 26.5q-44 0 -86 -48q-16 14 -26 24q55 61 121 61q44 0 72 -30t28 -92q0 -15 -0.5 -74.5t-0.5 -73.5q0 -12 6 -12l55 1v-27q-42 -9 -85 -9q-13 13 -20 32zM83 403
q0 -19 15.5 -28.5t38.5 -9.5q35 0 83 30q3 2 3 5v62h-13q-12 1 -27 1q-49 0 -74.5 -16t-25.5 -44z" />
    <glyph glyph-name="guillemotleft" unicode="&#xab;" horiz-adv-x="390" 
d="M103 223q40 -60 100 -140q-9 -9 -27 -23q-71 79 -134 145q-1 10 -1 29q64 66 133 147q13 -9 27 -23q-87 -118 -98 -135zM250 222q47 -69 99 -134q-11 -12 -25 -22q-44 49 -130 141q-1 9 -1 26q26 27 74 80t56 62q14 -11 26 -23q-65 -81 -99 -130z" />
    <glyph glyph-name="logicalnot" unicode="&#xac;" horiz-adv-x="513" 
d="M402 40v190q-54 0 -170.5 -0.5t-171.5 -0.5q0 30 1 44q132 0 384 2q3 0 3 -4q0 -34 -1 -116t-1 -112q-21 -3 -44 -3z" />
    <glyph glyph-name="uni00AD" unicode="&#xad;" horiz-adv-x="297" 
d="M117 218h-87q0 29 1 42h89q26 0 74 0.5t73 1.5q0 -18 -2 -44h-148z" />
    <glyph glyph-name="registered" unicode="&#xae;" horiz-adv-x="467" 
d="M235 660q75 0 125 -52.5t50 -128.5q0 -75 -51.5 -128.5t-126.5 -53.5t-125.5 52t-50.5 128q0 75 52 129t127 54zM232 633q-62 0 -103 -45t-41 -110q0 -64 41.5 -109t103.5 -45q63 0 104 45t41 109q0 65 -41 110t-105 45zM174 406v147h-23v23q21 1 61 1q42 0 59 -5
q18 -4 28.5 -16.5t10.5 -25.5q0 -40 -42 -56v-3q16 -9 37 -52q7 -13 16 -13h14v-24h-50q-6 8 -18.5 34.5t-17.5 34.5q-7 9 -24 9h-15v-54h26q0 -4 -0.5 -12t-0.5 -12h-84q0 15 1 24h22zM210 553v-69h14q24 0 35 11t11 26q0 32 -45 32h-15z" />
    <glyph glyph-name="macron" unicode="&#xaf;" horiz-adv-x="300" 
d="M245 543v-41q-27 0 -93 0.5t-97 0.5q-2 18 0 38q126 2 190 2z" />
    <glyph glyph-name="degree" unicode="&#xb0;" horiz-adv-x="294" 
d="M150 655q45 0 72 -26.5t27 -68.5q0 -41 -29.5 -70t-70.5 -29q-43 0 -72.5 26t-29.5 69q0 39 29.5 69t73.5 30zM148 620q-26 0 -40.5 -19t-14.5 -44q0 -26 15.5 -43t40.5 -17q26 0 40 17.5t14 43.5q0 28 -14 45t-41 17z" />
    <glyph glyph-name="plusminus" unicode="&#xb1;" horiz-adv-x="513" 
d="M233 301v154q45 3 46 3q-1 -43 -1 -157q58 1 173 1q2 -21 -2 -44q-111 0 -171 -1q-1 -56 -1 -151q-26 -2 -44 -2v153h-170q0 15 2 43q112 0 168 1zM449 1l-386 -1q0 30 1 43q63 0 193 1t194 1q0 -18 -2 -44z" />
    <glyph glyph-name="twosuperior" unicode="&#xb2;" 
d="M263 668q0 -67 -95 -144q-32 -28 -54 -43l2 -5q9 0 150 3q3 0 3 -2q-1 -5 -1 -17t-1 -18h-138h-78q-1 4 -4.5 12.5t-5.5 12.5q61 44 95 74q26 24 37 34.5t26.5 37t15.5 52.5q0 29 -18 47q-15 16 -49 16q-35 0 -50 -14q-3 -2 -3 -6l-8 -51q-5 0 -16 0.5t-17 0.5q1 34 5 82
q38 19 92 19q57 0 82 -23q30 -26 30 -68z" />
    <glyph glyph-name="threesuperior" unicode="&#xb3;" 
d="M79 526l11 -47q0 -1 2 -3q0 -2 1 -2q18 -10 48 -10q36 0 59 15q24 18 24 47t-24 45t-62 16h-40v32q55 -1 86 15.5t31 43.5q0 24 -15 35q-14 14 -52 14q-30 0 -49 -11l-3 -6l-7 -48q-20 2 -33 2q2 23 4 76q38 18 96 18q56 0 81 -21q26 -22 26 -50q0 -58 -71 -77v-5
q41 -4 61 -25.5t20 -49.5q0 -47 -41 -73q-35 -23 -98 -23q-48 0 -79 7q-2 16 -11 79q2 0 35 6z" />
    <glyph glyph-name="acute" unicode="&#xb4;" horiz-adv-x="300" 
d="M205 625q13 -10 36 -35q-43 -35 -141 -120q-9 9 -23 25q16 16 61 62t67 68z" />
    <glyph glyph-name="mu" unicode="&#xb5;" horiz-adv-x="519" 
d="M135 29l-4 -1q0 -114 3 -249q-22 -19 -52 -19q4 132 4 364q0 114 2 274q26 16 50 16q2 0 2 -3q-2 -156 -2 -241q0 -64 18 -94q27 -45 84 -45q33 0 80.5 29t47.5 49v288q22 17 52 17q2 0 2 -3q0 -155 -2 -307q0 -74 35 -74q17 0 46 11q6 -17 7 -31q-42 -20 -92 -20
q-25 18 -44 62l-4 2q-55 -40 -86 -52t-61 -12q-46 0 -86 39z" />
    <glyph glyph-name="paragraph" unicode="&#xb6;" horiz-adv-x="508" 
d="M422 613l-3 -724q-16 -4 -41 -7l-1 732h-68l-2 -726q-14 -4 -41 -10v367h-13q-54 0 -89 13q-55 20 -91.5 66.5t-36.5 114.5q0 62 34.5 112t82.5 72q63 28 166 28q25 0 160 -3q0 -6 0.5 -18t0.5 -18z" />
    <glyph glyph-name="periodcentered" unicode="&#xb7;" horiz-adv-x="230" 
d="M118 309q23 0 33.5 -16t10.5 -33q0 -18 -12 -32.5t-32 -14.5q-23 0 -35.5 13t-12.5 34q0 18 12.5 33.5t35.5 15.5z" />
    <glyph glyph-name="cedilla" unicode="&#xb8;" horiz-adv-x="300" 
d="M152 -69l68 69h40l-54 -60q53 -11 53 -59q0 -34 -32 -55t-80 -22q-2 8 -4 28q69 5 69 42q0 18 -13 29q-14 10 -40 10q-3 6 -7 18z" />
    <glyph glyph-name="onesuperior" unicode="&#xb9;" 
d="M193 474l76 -1q0 -21 -1 -31h-99h-105v30l82 2q2 0 2 2v227q-42 -11 -83 -23q-1 6 -3.5 17t-3.5 16q29 9 62 21.5t51 19.5t22 7q1 0 1 -3q0 -47 -0.5 -142t-0.5 -142z" />
    <glyph glyph-name="ordmasculine" unicode="&#xba;" horiz-adv-x="376" 
d="M182 330q-62 0 -96 36q-47 45 -47 115q0 80 57 131q41 35 97 35q55 0 90 -26q54 -43 54 -124q0 -90 -62 -139q-36 -28 -93 -28zM188 360q39 0 64 24q35 31 35 107q0 64 -32 99q-25 26 -65 26q-38 0 -64 -26q-36 -38 -36 -101q0 -70 33 -103q26 -26 65 -26z" />
    <glyph glyph-name="guillemotright" unicode="&#xbb;" horiz-adv-x="390" 
d="M139 220q-44 64 -98 132q11 12 26 24q8 -9 56 -62t74 -80q0 -4 -0.5 -12.5t-0.5 -13.5q-25 -26 -72.5 -78.5t-56.5 -62.5q-14 11 -26 23q47 56 98 130zM286 220q-60 89 -97 138q17 17 26 24q42 -48 134 -146q0 -20 -1 -29q-21 -23 -65 -72t-67 -74q-3 3 -8.5 7.5t-10 8.5
t-8.5 8q60 78 97 135z" />
    <glyph glyph-name="onequarter" unicode="&#xbc;" horiz-adv-x="688" 
d="M211 368l76 -1q0 -21 -1 -31h-99h-105v30l82 2q2 0 2 2v227q-10 -2 -22.5 -5.5t-30.5 -8.5t-30 -8q-1 5 -3.5 16t-3.5 16q29 10 62 22.5t51 19.5t22 7q1 0 1 -3q0 -48 -0.5 -143t-0.5 -142zM202 -15l-15 5t-19 7q88 160 162 302q117 223 187 359q29 -7 38 -11
q-40 -75 -112.5 -213.5t-80.5 -152.5q-34 -66 -160 -296zM578 29l42 -1v-28q-10 0 -33.5 0.5t-34.5 0.5q-13 0 -39 -0.5t-37 -0.5v28l61 1q2 0 2 1v49h-151q-6 10 -16 30q12 14 36 46.5t36 47.5q13 17 32 42t32.5 42t22.5 28q8 0 24.5 -0.5t24.5 -0.5q0 -33 -0.5 -101
t-1.5 -101h59q0 -21 -1 -33h-58v-50zM539 265h-6q-5 -7 -24 -32t-34 -45q-22 -30 -53 -70q-2 -6 2 -6h114z" />
    <glyph glyph-name="onehalf" unicode="&#xbd;" horiz-adv-x="688" 
d="M199 368l76 -1q0 -21 -1 -31h-99h-105v30l82 2q2 0 2 2v227q-10 -2 -22.5 -5.5t-30.5 -8.5t-30 -8q-1 5 -3.5 16t-3.5 16q29 10 62 22.5t51 19.5t22 7q1 0 1 -3q0 -48 -0.5 -143t-0.5 -142zM185 -15l-15 5t-19 7q138 256 162 302q117 223 187 359q29 -7 38 -11
q-40 -75 -112.5 -213.5t-80.5 -152.5q-61 -116 -160 -296zM621 226q0 -68 -94 -144q-25 -22 -54 -43l2 -5q8 0 149 3q3 0 3 -2q-1 -6 -1 -17.5t-1 -17.5h-137h-78q-1 2 -5 11t-5 14q62 44 94 74q26 24 37 34.5t26.5 37t15.5 52.5q0 29 -18 47q-15 16 -48 16q-35 0 -50 -14
q-3 -2 -3 -6l-8 -51q-6 0 -17 0.5t-16 0.5q1 34 5 82q38 19 92 19q56 0 81 -23q30 -26 30 -68z" />
    <glyph glyph-name="threequarters" unicode="&#xbe;" horiz-adv-x="688" 
d="M99 421l11 -47l1 -2q1 -2 2 -3q18 -10 48 -10q36 0 59 15q24 18 24 47t-24 45t-62 16h-40v32q55 -1 86 15.5t31 43.5q0 23 -14 34q-15 14 -53 14q-32 0 -48 -11l-3 -6l-8 -47q-5 1 -16 1t-16 1q2 24 4 75q38 18 95 18t81 -21q26 -20 26 -50q0 -57 -71 -76v-5
q41 -4 61 -25.5t20 -49.5q0 -47 -41 -73q-35 -23 -98 -23q-48 0 -79 7q0 3 -11 80q25 4 35 5zM199 -15q-2 1 -15 5t-19 7q109 203 161 302q19 36 85 162t103 197q29 -7 38 -11q-150 -283 -193 -365q-63 -120 -160 -297zM573 29l42 -1v-28q-10 0 -33.5 0.5t-34.5 0.5
q-13 0 -39 -0.5t-37 -0.5v28l61 1q2 0 2 1v49h-151q-6 10 -16 30q12 14 36 46.5t36 47.5q13 17 32 42t32.5 42t22.5 28q8 0 24.5 -0.5t24.5 -0.5q0 -33 -0.5 -101t-1.5 -101h59q0 -21 -1 -33h-58v-50zM534 265h-6q-5 -7 -24 -32t-34 -45q-22 -30 -53 -70q-2 -6 2 -6h114z
" />
    <glyph glyph-name="questiondown" unicode="&#xbf;" horiz-adv-x="408" 
d="M218 338q-21 0 -32.5 14.5t-11.5 30.5q0 15 12.5 28t29.5 13q21 0 34.5 -12t13.5 -29t-12.5 -31t-33.5 -14zM43 -86q0 56 36.5 106.5t111.5 107.5q31 25 31 41q0 25 -24 85q11 7 35 17q15 -18 32 -61t17 -68q-99 -68 -139 -114.5t-40 -110.5q0 -54 31.5 -86t87.5 -32
q49 0 81 23q5 5 6 12l17 87q24 -2 42 -6q-2 -21 -6 -63.5t-6 -59.5q-64 -32 -142 -32q-86 0 -128.5 47.5t-42.5 106.5z" />
    <glyph glyph-name="Agrave" unicode="&#xc0;" horiz-adv-x="597" 
d="M-14 35l58 4q4 0 5 4q43 107 132.5 341.5t105.5 275.5q9 1 31 1q38 -100 117.5 -321.5t109.5 -300.5l63 -3q0 -24 -1 -35h-86q-23 0 -64.5 -0.5t-59.5 -0.5q0 6 0.5 18t0.5 17l86 3q4 0 2 5q-31 87 -61 167q-2 5 -6 5l-254 -1q-19 -51 -63 -175l100 -3q0 -24 -1 -35h-131
q-14 0 -43 -0.5t-42 -0.5q0 24 1 35zM301 569h-4q-10 -28 -53 -142t-64 -169q-2 -6 3 -6h229q-41 118 -111 317zM206 841q19 -14 71 -53.5t76 -57.5q-3 -5 -10.5 -15.5t-8.5 -12.5q-4 2 -67 39.5t-93 54.5q15 25 32 45z" />
    <glyph glyph-name="Aacute" unicode="&#xc1;" horiz-adv-x="597" 
d="M-14 35l58 4q4 0 5 4q43 107 132.5 341.5t105.5 275.5q9 1 31 1q38 -100 117.5 -321.5t109.5 -300.5l63 -3q0 -24 -1 -35h-86q-23 0 -64.5 -0.5t-59.5 -0.5q0 6 0.5 18t0.5 17l86 3q4 0 2 5q-31 87 -61 167q-2 5 -6 5l-254 -1q-19 -51 -63 -175l100 -3q0 -24 -1 -35h-131
q-14 0 -43 -0.5t-42 -0.5q0 24 1 35zM301 569h-4q-10 -28 -53 -142t-64 -169q-2 -6 3 -6h229q-41 118 -111 317zM400 840q22 -26 31 -44q-26 -15 -82.5 -49t-76.5 -45q-16 20 -20 27q24 17 75.5 56t72.5 55z" />
    <glyph glyph-name="Acircumflex" unicode="&#xc2;" horiz-adv-x="597" 
d="M-14 35l58 4q4 0 5 4q43 107 132.5 341.5t105.5 275.5q9 1 31 1q38 -100 117.5 -321.5t109.5 -300.5l63 -3q0 -24 -1 -35h-86q-23 0 -64.5 -0.5t-59.5 -0.5q0 6 0.5 18t0.5 17l86 3q4 0 2 5q-31 87 -61 167q-2 5 -6 5l-254 -1q-19 -51 -63 -175l100 -3q0 -24 -1 -35h-131
q-14 0 -43 -0.5t-42 -0.5q0 24 1 35zM301 569h-4q-10 -28 -53 -142t-64 -169q-2 -6 3 -6h229q-41 118 -111 317zM306 778q-17 -11 -53.5 -36.5t-53.5 -36.5q-1 1 -22 25q15 12 54 45t59 50q10 1 32 1q20 -16 59 -49l52 -44q-8 -12 -23 -27q-18 14 -104 72z" />
    <glyph glyph-name="Atilde" unicode="&#xc3;" horiz-adv-x="597" 
d="M-14 35l58 4q4 0 5 4q43 107 132.5 341.5t105.5 275.5q9 1 31 1q38 -100 117.5 -321.5t109.5 -300.5l63 -3q0 -24 -1 -35h-86q-23 0 -64.5 -0.5t-59.5 -0.5q0 6 0.5 18t0.5 17l86 3q4 0 2 5q-31 87 -61 167q-2 5 -6 5l-254 -1q-19 -51 -63 -175l100 -3q0 -24 -1 -35h-131
q-14 0 -43 -0.5t-42 -0.5q0 24 1 35zM301 569h-4q-10 -28 -53 -142t-64 -169q-2 -6 3 -6h229q-41 118 -111 317zM254 798q26 0 70 -27q33 -20 51 -20q27 0 32 44q16 2 34 0q0 -32 -19.5 -60.5t-51.5 -28.5q-8 0 -17 2.5t-14.5 5.5t-15 8.5t-14.5 7.5q-3 1 -13.5 7.5t-15 8.5
t-13 4.5t-16.5 2.5q-13 0 -23.5 -12t-13.5 -30h-33q1 33 22 60t51 27z" />
    <glyph glyph-name="Adieresis" unicode="&#xc4;" horiz-adv-x="597" 
d="M-14 35l58 4q4 0 5 4q43 107 132.5 341.5t105.5 275.5q9 1 31 1q38 -100 117.5 -321.5t109.5 -300.5l63 -3q0 -24 -1 -35h-86q-23 0 -64.5 -0.5t-59.5 -0.5q0 6 0.5 18t0.5 17l86 3q4 0 2 5q-31 87 -61 167q-2 5 -6 5l-254 -1q-19 -51 -63 -175l100 -3q0 -24 -1 -35h-131
q-14 0 -43 -0.5t-42 -0.5q0 24 1 35zM301 569h-4q-10 -28 -53 -142t-64 -169q-2 -6 3 -6h229q-41 118 -111 317zM229 797q19 0 27.5 -13t8.5 -28q0 -13 -10 -24.5t-26 -11.5q-18 0 -28.5 10.5t-10.5 27.5q0 15 10 27t29 12zM388 797q18 0 27 -12t9 -27q0 -16 -10 -27
t-25 -11q-19 0 -29.5 11.5t-10.5 24.5q0 15 9 28t30 13z" />
    <glyph glyph-name="Aring" unicode="&#xc5;" horiz-adv-x="597" 
d="M-14 35l58 4q4 0 5 4q43 107 132.5 341.5t105.5 275.5q9 1 31 1q38 -100 117.5 -321.5t109.5 -300.5l63 -3q0 -24 -1 -35h-86q-23 0 -64.5 -0.5t-59.5 -0.5q0 6 0.5 18t0.5 17l86 3q4 0 2 5q-31 87 -61 167q-2 5 -6 5l-254 -1q-19 -51 -63 -175l100 -3q0 -24 -1 -35h-131
q-14 0 -43 -0.5t-42 -0.5q0 24 1 35zM301 569h-4q-10 -28 -53 -142t-64 -169q-2 -6 3 -6h229q-41 118 -111 317zM304 860q40 0 64 -22.5t24 -55.5q0 -34 -25 -57.5t-64 -23.5t-64.5 21.5t-25.5 57.5q0 31 25.5 55.5t65.5 24.5zM302 827q-21 0 -33.5 -14t-12.5 -33
q0 -20 13 -32.5t34 -12.5q22 0 34 13t12 33t-12 33t-35 13z" />
    <glyph glyph-name="AE" unicode="&#xc6;" horiz-adv-x="838" 
d="M425 279l-192 -1q-99 -176 -135 -239l98 -3q0 -24 -1 -35h-132q-15 0 -43.5 -0.5t-40.5 -0.5v36l58 3q4 0 7 4q58 95 182 305t178 300q2 2 3 2q2 0 38.5 -0.5t60.5 -0.5q146 0 169 1h84q6 -90 8 -144q-23 -4 -40 -5l-17 89q-3 18 -23 19q-31 4 -168 4h-35l-1 -297
q30 0 84.5 0.5t84.5 1.5q16 0 21 4.5t7 15.5l4 51h39q-1 -30 -1 -93q0 -14 -0.5 -45t-0.5 -46q-6 0 -19.5 -0.5t-19.5 -0.5l-3 54q-1 12 -6.5 16t-20.5 4q-48 1 -169 1l-1 -223q0 -13 8.5 -16.5t47.5 -3.5q130 0 170 7q13 3 20 21l32 94q18 -3 39 -8q-27 -120 -35 -151
q-10 0 -116 0.5t-184 0.5q-21 0 -58.5 -0.5t-54.5 -0.5v36l74 3q4 0 4 3v233q-2 5 -4 5zM429 605h-4q-5 -8 -166 -284q-5 -6 2 -6h168v290z" />
    <glyph glyph-name="Ccedilla" unicode="&#xc7;" horiz-adv-x="578" 
d="M273 -76l66 67h-5q-100 0 -177 60q-49 38 -77 100.5t-28 137.5q0 187 129 296q89 75 222 75q80 0 126 -23q6 -106 8 -159q-21 -4 -43 -5l-14 109q-3 13 -9 16q-29 20 -92 20q-106 0 -176 -71q-95 -95 -95 -237q0 -67 13.5 -112.5t49.5 -88.5q65 -76 181 -76q72 0 184 41
q0 -1 4.5 -16t5.5 -23q-90 -33 -157 -42l-56 -58q33 -6 49 -23.5t16 -40.5q0 -37 -35 -60t-95 -24q-4 19 -5 31q81 2 81 47q0 17 -13 28t-51 11q-2 4 -7 20z" />
    <glyph glyph-name="Egrave" unicode="&#xc8;" horiz-adv-x="547" 
d="M51 35l74 3q3 0 3 3v571l-78 2q0 24 1 36q16 0 53.5 -0.5t57.5 -0.5q15 0 110.5 0.5t107.5 0.5h83q6 -90 8 -144q-22 -4 -40 -5l-16 90q-3 14 -23 17q-48 5 -174 5q-7 0 -20 -0.5t-15 -0.5l-1 -262q31 0 88 0.5t88 1.5q25 1 26 20l5 51h38q-1 -15 -1.5 -46.5t-0.5 -46.5
v-91h-12h-14.5h-12.5l-3 55q-1 19 -26 19q-51 1 -175 1l-1 -258q0 -13 8.5 -16.5t48.5 -3.5q148 0 175 8q13 3 18 19l33 95q4 -1 18.5 -3.5t20.5 -4.5q-14 -70 -34 -150h-306h-113q0 24 1 35zM201 840q19 -14 71 -53.5t76 -57.5q-3 -5 -10.5 -15.5t-8.5 -12.5
q-60 36 -160 94q15 25 32 45z" />
    <glyph glyph-name="Eacute" unicode="&#xc9;" horiz-adv-x="547" 
d="M51 35l74 3q3 0 3 3v571l-78 2q0 24 1 36q16 0 53.5 -0.5t57.5 -0.5q15 0 110.5 0.5t107.5 0.5h83q6 -90 8 -144q-22 -4 -40 -5l-16 90q-3 14 -23 17q-48 5 -174 5q-7 0 -20 -0.5t-15 -0.5l-1 -262q31 0 88 0.5t88 1.5q25 1 26 20l5 51h38q-1 -15 -1.5 -46.5t-0.5 -46.5
v-91h-12h-14.5h-12.5l-3 55q-1 19 -26 19q-51 1 -175 1l-1 -258q0 -13 8.5 -16.5t48.5 -3.5q148 0 175 8q13 3 18 19l33 95q4 -1 18.5 -3.5t20.5 -4.5q-14 -70 -34 -150h-306h-113q0 24 1 35zM380 839q16 -18 32 -44q-22 -12 -50.5 -29t-61.5 -36.5t-48 -28.5q-12 16 -19 28
q38 27 147 110z" />
    <glyph glyph-name="Ecircumflex" unicode="&#xca;" horiz-adv-x="547" 
d="M51 35l74 3q3 0 3 3v571l-78 2q0 24 1 36q16 0 53.5 -0.5t57.5 -0.5q15 0 110.5 0.5t107.5 0.5h83q6 -90 8 -144q-22 -4 -40 -5l-16 90q-3 14 -23 17q-48 5 -174 5q-7 0 -20 -0.5t-15 -0.5l-1 -262q31 0 88 0.5t88 1.5q25 1 26 20l5 51h38q-1 -15 -1.5 -46.5t-0.5 -46.5
v-91h-12h-14.5h-12.5l-3 55q-1 19 -26 19q-51 1 -175 1l-1 -258q0 -13 8.5 -16.5t48.5 -3.5q148 0 175 8q13 3 18 19l33 95q4 -1 18.5 -3.5t20.5 -4.5q-14 -70 -34 -150h-306h-113q0 24 1 35zM273 778q-63 -42 -107 -73q-20 22 -22 26q15 12 54 45t59 50q10 1 32 1
q16 -13 54.5 -45.5t56.5 -47.5q-8 -12 -23 -27q-11 8 -104 71z" />
    <glyph glyph-name="Edieresis" unicode="&#xcb;" horiz-adv-x="547" 
d="M51 35l74 3q3 0 3 3v571l-78 2q0 24 1 36q16 0 53.5 -0.5t57.5 -0.5q15 0 110.5 0.5t107.5 0.5h83q6 -90 8 -144q-22 -4 -40 -5l-16 90q-3 14 -23 17q-48 5 -174 5q-7 0 -20 -0.5t-15 -0.5l-1 -262q31 0 88 0.5t88 1.5q25 1 26 20l5 51h38q-1 -15 -1.5 -46.5t-0.5 -46.5
v-91h-12h-14.5h-12.5l-3 55q-1 19 -26 19q-51 1 -175 1l-1 -258q0 -13 8.5 -16.5t48.5 -3.5q148 0 175 8q13 3 18 19l33 95q4 -1 18.5 -3.5t20.5 -4.5q-14 -70 -34 -150h-306h-113q0 24 1 35zM194 798q19 0 27.5 -13t8.5 -28q0 -13 -10 -24.5t-26 -11.5q-18 0 -28.5 10.5
t-10.5 27.5q0 15 10 27t29 12zM353 798q18 0 27 -12t9 -27q0 -16 -10 -27t-25 -11q-19 0 -29.5 11.5t-10.5 24.5q0 15 9 28t30 13z" />
    <glyph glyph-name="Igrave" unicode="&#xcc;" horiz-adv-x="308" 
d="M128 612l-84 3q0 13 2 35q16 0 56 -0.5t59 -0.5q20 0 56.5 0.5t52.5 0.5v-11v-13v-11l-84 -3q-3 0 -3 -4l-2 -569l90 -3q1 -12 -1 -35h-110q-20 0 -58.5 -0.5t-54.5 -0.5q0 24 1 35l76 4q4 0 4 4v569zM86 840q24 -18 75 -56.5t72 -54.5q-4 -8 -19 -28q-60 36 -160 94
q15 25 32 45z" />
    <glyph glyph-name="Iacute" unicode="&#xcd;" horiz-adv-x="308" 
d="M128 612l-84 3q0 13 2 35q16 0 56 -0.5t59 -0.5q20 0 56.5 0.5t52.5 0.5v-11v-13v-11l-84 -3q-3 0 -3 -4l-2 -569l90 -3q1 -12 -1 -35h-110q-20 0 -58.5 -0.5t-54.5 -0.5q0 24 1 35l76 4q4 0 4 4v569zM236 839q21 -26 32 -44q-22 -12 -50.5 -29t-61.5 -36.5t-48 -28.5
q-16 20 -20 28q41 29 148 110z" />
    <glyph glyph-name="Icircumflex" unicode="&#xce;" horiz-adv-x="308" 
d="M128 612l-84 3q0 13 2 35q16 0 56 -0.5t59 -0.5q20 0 56.5 0.5t52.5 0.5v-11v-13v-11l-84 -3q-3 0 -3 -4l-2 -569l90 -3q1 -12 -1 -35h-110q-20 0 -58.5 -0.5t-54.5 -0.5q0 24 1 35l76 4q4 0 4 4v569zM156 778q-63 -42 -107 -73q-16 18 -22 26q15 12 54 45t59 50
q10 1 32 1q20 -16 58.5 -49t52.5 -44q-6 -9 -22 -27q-14 10 -31.5 22t-40 26.5t-33.5 22.5z" />
    <glyph glyph-name="Idieresis" unicode="&#xcf;" horiz-adv-x="308" 
d="M128 612l-84 3q0 13 2 35q16 0 56 -0.5t59 -0.5q20 0 56.5 0.5t52.5 0.5v-11v-13v-11l-84 -3q-3 0 -3 -4l-2 -569l90 -3q1 -12 -1 -35h-110q-20 0 -58.5 -0.5t-54.5 -0.5q0 24 1 35l76 4q4 0 4 4v569zM84 798q19 0 27.5 -13t8.5 -28q0 -13 -10 -24.5t-26 -11.5
q-18 0 -28.5 10.5t-10.5 27.5q0 15 10 27t29 12zM244 798q18 0 27 -12t9 -27q0 -16 -10 -27t-25 -11q-19 0 -29.5 11.5t-10.5 24.5q0 15 9 28t30 13z" />
    <glyph glyph-name="Eth" unicode="&#xd0;" horiz-adv-x="702" 
d="M144 340v271l-79 3q0 6 0.5 18.5t0.5 17.5q21 0 87 0.5t107 0.5q95 0 146 -11.5t97 -36.5q71 -40 109.5 -109.5t38.5 -150.5q0 -182 -117 -274q-88 -69 -238 -69h-121q-15 0 -53 -0.5t-57 -0.5v36l75 2q4 0 4 5v260h-93q0 27 1 37q31 1 92 1zM199 302l-1 -225
q0 -25 15.5 -33t75.5 -8q142 0 223 70q36 31 59.5 88t23.5 121q0 85 -22.5 137t-73.5 95q-78 68 -237 68q-49 0 -62 -4l-1 -271q26 0 90.5 0.5t106.5 0.5q0 -15 -2 -39h-195z" />
    <glyph glyph-name="Ntilde" unicode="&#xd1;" horiz-adv-x="716" 
d="M50 35l68 3q3 0 3 4l1 570l-78 2q0 14 2 36q20 0 64.5 -0.5t65.5 -0.5q210 -310 379 -570l5 2q-2 356 -4 531l-100 1q0 25 1 36h122q17 0 48.5 0.5t44.5 0.5v-11v-13.5v-10.5l-66 -3q-2 0 -2 -4l-3 -606q-18 -9 -33 -9q-169 236 -395 579h-6q0 -355 -1 -534l107 -2
q0 -24 -1 -35h-128q-17 0 -49.5 -0.5t-45.5 -0.5q0 24 1 35zM315 798q27 0 69 -27q33 -20 51 -20q27 0 33 44q16 2 34 0q0 -32 -19.5 -60.5t-51.5 -28.5q-8 0 -17.5 2.5t-14.5 5.5t-15 8.5t-14 7.5t-14.5 8t-15 8t-13 4.5t-16.5 2.5q-13 0 -23.5 -12t-13.5 -30h-9.5h-12.5
h-11q1 33 22 60t52 27z" />
    <glyph glyph-name="Ograve" unicode="&#xd2;" horiz-adv-x="713" 
d="M344 -10q-120 0 -204 84q-88 90 -88 246q0 91 38.5 166t97.5 117q82 57 186 57q96 0 166 -50q55 -40 88 -110t33 -154q0 -173 -105 -277q-81 -79 -212 -79zM357 30q104 0 167 68q79 89 79 228q0 151 -80 232q-63 62 -160 62q-91 0 -155 -55q-99 -82 -99 -240
q0 -145 80 -229q65 -66 168 -66zM283 847q28 -20 82.5 -61.5t64.5 -49.5q-6 -10 -19 -27q-60 36 -160 94q16 26 32 44z" />
    <glyph glyph-name="Oacute" unicode="&#xd3;" horiz-adv-x="713" 
d="M344 -10q-120 0 -204 84q-88 90 -88 246q0 91 38.5 166t97.5 117q82 57 186 57q96 0 166 -50q55 -40 88 -110t33 -154q0 -173 -105 -277q-81 -79 -212 -79zM357 30q104 0 167 68q79 89 79 228q0 151 -80 232q-63 62 -160 62q-91 0 -155 -55q-99 -82 -99 -240
q0 -145 80 -229q65 -66 168 -66zM450 847q16 -18 32 -44q-22 -12 -50.5 -29t-61.5 -36.5t-48 -28.5q-13 17 -19 27q120 90 147 111z" />
    <glyph glyph-name="Ocircumflex" unicode="&#xd4;" horiz-adv-x="713" 
d="M344 -10q-120 0 -204 84q-88 90 -88 246q0 91 38.5 166t97.5 117q82 57 186 57q96 0 166 -50q55 -40 88 -110t33 -154q0 -173 -105 -277q-81 -79 -212 -79zM357 30q104 0 167 68q79 89 79 228q0 151 -80 232q-63 62 -160 62q-91 0 -155 -55q-99 -82 -99 -240
q0 -145 80 -229q65 -66 168 -66zM372 779q-85 -57 -107 -73q-5 4 -23 25q69 58 113 96h32q22 -17 111 -93q-6 -11 -22 -27q-25 19 -104 72z" />
    <glyph glyph-name="Otilde" unicode="&#xd5;" horiz-adv-x="713" 
d="M344 -10q-120 0 -204 84q-88 90 -88 246q0 91 38.5 166t97.5 117q82 57 186 57q96 0 166 -50q55 -40 88 -110t33 -154q0 -173 -105 -277q-81 -79 -212 -79zM357 30q104 0 167 68q79 89 79 228q0 151 -80 232q-63 62 -160 62q-91 0 -155 -55q-99 -82 -99 -240
q0 -145 80 -229q65 -66 168 -66zM318 805q26 0 70 -27q31 -20 50 -20q28 0 33 44q16 2 34 0q0 -32 -19.5 -60.5t-51.5 -28.5q-8 0 -17 2.5t-14.5 5.5t-15 8.5t-14.5 7.5q-4 2 -14.5 8t-15 8t-13 4.5t-16.5 2.5q-13 0 -23.5 -12t-13.5 -30h-33q1 33 22 60t52 27z" />
    <glyph glyph-name="Odieresis" unicode="&#xd6;" horiz-adv-x="713" 
d="M344 -10q-120 0 -204 84q-88 90 -88 246q0 91 38.5 166t97.5 117q82 57 186 57q96 0 166 -50q55 -40 88 -110t33 -154q0 -173 -105 -277q-81 -79 -212 -79zM357 30q104 0 167 68q79 89 79 228q0 151 -80 232q-63 62 -160 62q-91 0 -155 -55q-99 -82 -99 -240
q0 -145 80 -229q65 -66 168 -66zM297 798q19 0 27.5 -13t8.5 -28q0 -13 -10 -24.5t-26 -11.5q-18 0 -28.5 10.5t-10.5 27.5q0 15 10 27t29 12zM456 798q18 0 27 -12t9 -27q0 -16 -10 -27t-25 -11q-19 0 -29.5 11.5t-10.5 24.5q0 15 9 28t30 13z" />
    <glyph glyph-name="multiply" unicode="&#xd7;" horiz-adv-x="513" 
d="M290 230q51 -53 157 -161q-10 -13 -30 -29q-104 106 -158 160q-26 -26 -79 -79.5t-80 -80.5q-20 20 -29 30q4 4 64.5 65.5t92.5 94.5q-76 77 -152 152q11 13 33 33q44 -44 150 -152q11 11 152 155q19 -14 33 -33q-102 -102 -154 -155z" />
    <glyph glyph-name="Oslash" unicode="&#xd8;" horiz-adv-x="713" 
d="M379 660q106 0 179 -66q44 52 66 77q16 -10 34 -26q-23 -27 -71 -81q33 -36 53.5 -95.5t20.5 -124.5q0 -165 -99 -269q-83 -85 -216 -85q-109 0 -183 64l-72 -84q-5 4 -15.5 12t-15.5 12q39 45 75 87q-83 89 -83 235q0 96 39.5 171.5t103.5 119.5q77 53 184 53zM360 620
q-98 0 -161 -62q-90 -88 -90 -228q0 -137 58 -212q21 26 58.5 71.5t66.5 81t55 67.5q30 36 91.5 110.5t88.5 107.5q-60 64 -167 64zM358 30q108 0 168 70q77 89 77 232q0 118 -50 192q-37 -43 -99 -118t-83 -100q-14 -17 -77.5 -94t-100.5 -122q61 -60 165 -60z" />
    <glyph glyph-name="Ugrave" unicode="&#xd9;" horiz-adv-x="666" 
d="M163 611l-1 -337q-1 -75 9.5 -114.5t33.5 -70.5q44 -59 130 -59q34 0 60.5 8.5t39 17.5t27.5 24q53 51 53 183v103.5v131.5v108q0 4 -4 4l-88 2q0 14 2 36q16 0 53 0.5t58 0.5q18 0 51.5 0.5t47.5 0.5q0 -24 -1 -37l-68 -3l-2 -352q-1 -137 -69 -207q-57 -61 -159 -61
q-106 0 -162 57q-40 39 -52.5 88t-12.5 129v342q0 5 -5 5l-66 2q0 7 0.5 19t0.5 17h99q22 0 62 0.5t59 0.5q0 -24 -2 -36zM272 840q15 -12 69 -52.5t79 -58.5q-3 -5 -10.5 -15.5t-8.5 -12.5q-134 78 -161 94q15 25 32 45z" />
    <glyph glyph-name="Uacute" unicode="&#xda;" horiz-adv-x="666" 
d="M163 611l-1 -337q-1 -75 9.5 -114.5t33.5 -70.5q44 -59 130 -59q34 0 60.5 8.5t39 17.5t27.5 24q53 51 53 183v103.5v131.5v108q0 4 -4 4l-88 2q0 14 2 36q16 0 53 0.5t58 0.5q18 0 51.5 0.5t47.5 0.5q0 -24 -1 -37l-68 -3l-2 -352q-1 -137 -69 -207q-57 -61 -159 -61
q-106 0 -162 57q-40 39 -52.5 88t-12.5 129v342q0 5 -5 5l-66 2q0 7 0.5 19t0.5 17h99q22 0 62 0.5t59 0.5q0 -24 -2 -36zM446 839q17 -21 31 -44q-28 -16 -89.5 -52.5t-70.5 -41.5q-11 14 -19 27q14 11 45 34t57 42.5z" />
    <glyph glyph-name="Ucircumflex" unicode="&#xdb;" horiz-adv-x="666" 
d="M163 611l-1 -337q-1 -75 9.5 -114.5t33.5 -70.5q44 -59 130 -59q34 0 60.5 8.5t39 17.5t27.5 24q53 51 53 183v103.5v131.5v108q0 4 -4 4l-88 2q0 14 2 36q16 0 53 0.5t58 0.5q18 0 51.5 0.5t47.5 0.5q0 -24 -1 -37l-68 -3l-2 -352q-1 -137 -69 -207q-57 -61 -159 -61
q-106 0 -162 57q-40 39 -52.5 88t-12.5 129v342q0 5 -5 5l-66 2q0 7 0.5 19t0.5 17h99q22 0 62 0.5t59 0.5q0 -24 -2 -36zM350 778q-63 -42 -107 -73q-1 1 -10 11t-13 15q70 57 114 95q10 1 32 1q20 -16 58.5 -49t52.5 -44q-8 -15 -22 -27q-14 10 -31.5 22t-40 26.5
t-33.5 22.5z" />
    <glyph glyph-name="Udieresis" unicode="&#xdc;" horiz-adv-x="666" 
d="M163 611l-1 -337q-1 -75 9.5 -114.5t33.5 -70.5q44 -59 130 -59q34 0 60.5 8.5t39 17.5t27.5 24q53 51 53 183v103.5v131.5v108q0 4 -4 4l-88 2q0 14 2 36q16 0 53 0.5t58 0.5q18 0 51.5 0.5t47.5 0.5q0 -24 -1 -37l-68 -3l-2 -352q-1 -137 -69 -207q-57 -61 -159 -61
q-106 0 -162 57q-40 39 -52.5 88t-12.5 129v342q0 5 -5 5l-66 2q0 7 0.5 19t0.5 17h99q22 0 62 0.5t59 0.5q0 -24 -2 -36zM274 798q19 0 27.5 -13t8.5 -28q0 -13 -10 -24.5t-26 -11.5q-18 0 -28.5 10.5t-10.5 27.5q0 15 10 27t29 12zM433 798q18 0 27 -12t9 -27
q0 -16 -10 -27t-25 -11q-19 0 -29.5 11.5t-10.5 24.5q0 15 9 28t30 13z" />
    <glyph glyph-name="Yacute" unicode="&#xdd;" horiz-adv-x="545" 
d="M162 36l83 2q6 2 6 6v209q-107 194 -201 356q-3 3 -5 3l-55 3q0 24 1 36q13 0 43.5 -0.5t46.5 -0.5q25 0 68 0.5t63 0.5q0 -24 -1 -36l-98 -3q117 -219 168 -313h5q95 172 161 309q2 4 -2 4l-89 3q0 24 1 35h118q13 0 43 0.5t42 0.5q0 -24 -1 -35l-52 -4
q-20 -33 -202 -357l-1 -216l97 -3q0 -13 -2 -35h-118q-20 0 -60.5 -0.5t-59.5 -0.5q0 24 1 36zM408 840q21 -26 32 -44q-22 -12 -50.5 -29t-61.5 -36.5t-48 -28.5q-11 12 -20 27q92 68 148 111z" />
    <glyph glyph-name="Thorn" unicode="&#xde;" horiz-adv-x="536" 
d="M128 44v568l-73 2q0 23 1 36q15 0 49.5 -0.5t52.5 -0.5q20 0 57 0.5t54 0.5q0 -24 -1 -36l-82 -2q-3 0 -3 -4v-80q15 1 47 1q81 0 133 -17q60 -17 94.5 -63t34.5 -100q0 -63 -34 -113t-81 -70q-56 -27 -133 -27h-63v-99l101 -3q0 -24 -1 -36h-124q-17 0 -52 -0.5
t-51 -0.5q0 25 1 36l69 4q4 0 4 4zM182 487v-302q8 -9 61 -9q75 0 124 29q68 43 68 131q0 78 -53 116.5t-151 38.5q-38 0 -49 -4z" />
    <glyph glyph-name="germandbls" unicode="&#xdf;" horiz-adv-x="549" 
d="M27 409l70 2q5 0 5 7q0 82 11 124t44 76q59 63 139 63q56 0 91 -37q56 -55 46 -179q-59 -46 -63 -49q-43 -39 -43 -73q0 -35 16 -51t62 -36q57 -24 80.5 -54.5t23.5 -73.5q0 -69 -55 -109q-40 -29 -113 -29q-48 0 -86 12q-8 74 -13 111q20 4 42 6l11 -66q2 -10 9 -13
q21 -13 52 -13q48 0 74 22q28 23 28 66q0 40 -17 61t-69 43q-52 21 -73 48.5t-21 68.5q0 8 2 16.5t4 14.5t7 14.5t8 12.5t10 12.5t9 10.5t10 11l8 8q7 7 23.5 22.5t23.5 23.5q6 94 -37 135q-25 23 -64 23q-59 0 -95 -44q-19 -23 -25 -63.5t-7 -121.5q-1 -106 -1 -375l40 -2
v-33h-65q-13 0 -44.5 -0.5t-46.5 -0.5q0 22 1 32l60 4q3 0 3 4v331h-77q0 14 2 38z" />
    <glyph glyph-name="agrave" unicode="&#xe0;" horiz-adv-x="435" 
d="M291 36h-5q-88 -46 -146 -46q-39 0 -74 27t-35 66q0 49 49.5 89.5t136.5 39.5h75q2 91 -18.5 129.5t-71.5 38.5q-60 0 -118 -70l-29 29q76 85 159 85q60 0 95 -40.5t35 -125.5q0 -128 -2 -210q0 -18 10 -18l71 2v-30q-39 -12 -101 -12q-10 9 -31 46zM90 88q0 -25 20 -41
t53 -16q59 0 124 46q3 1 3 8v91q-10 2 -66 2q-68 0 -101 -25t-33 -65zM139 625q21 -20 65 -65.5t63 -64.5q-14 -17 -24 -25q-102 88 -141 120q12 14 37 35z" />
    <glyph glyph-name="aacute" unicode="&#xe1;" horiz-adv-x="435" 
d="M291 36h-5q-88 -46 -146 -46q-39 0 -74 27t-35 66q0 49 49.5 89.5t136.5 39.5h75q2 91 -18.5 129.5t-71.5 38.5q-60 0 -118 -70l-29 29q76 85 159 85q60 0 95 -40.5t35 -125.5q0 -128 -2 -210q0 -18 10 -18l71 2v-30q-39 -12 -101 -12q-10 9 -31 46zM90 88q0 -25 20 -41
t53 -16q59 0 124 46q3 1 3 8v91q-10 2 -66 2q-68 0 -101 -25t-33 -65zM288 625q19 -15 36 -35q-20 -16 -44.5 -37t-53.5 -45.5t-44 -37.5q-3 4 -11.5 12.5t-11.5 12.5q13 13 59.5 60.5t69.5 69.5z" />
    <glyph glyph-name="acircumflex" unicode="&#xe2;" horiz-adv-x="435" 
d="M291 36h-5q-88 -46 -146 -46q-39 0 -74 27t-35 66q0 49 49.5 89.5t136.5 39.5h75q2 91 -18.5 129.5t-71.5 38.5q-60 0 -118 -70l-29 29q76 85 159 85q60 0 95 -40.5t35 -125.5q0 -128 -2 -210q0 -18 10 -18l71 2v-30q-39 -12 -101 -12q-10 9 -31 46zM90 88q0 -25 20 -41
t53 -16q59 0 124 46q3 1 3 8v91q-10 2 -66 2q-68 0 -101 -25t-33 -65zM204 554q-54 -52 -92 -90q-14 10 -24 21q12 14 32.5 39t37.5 44.5t31 35.5h29q16 -18 51.5 -60.5t48.5 -57.5q-8 -8 -24 -22q-12 11 -27 26.5t-34.5 35z" />
    <glyph glyph-name="atilde" unicode="&#xe3;" horiz-adv-x="435" 
d="M291 36h-5q-88 -46 -146 -46q-39 0 -74 27t-35 66q0 49 49.5 89.5t136.5 39.5h75q2 91 -18.5 129.5t-71.5 38.5q-60 0 -118 -70l-29 29q76 85 159 85q60 0 95 -40.5t35 -125.5q0 -128 -2 -210q0 -18 10 -18l71 2v-30q-39 -12 -101 -12q-10 9 -31 46zM90 88q0 -25 20 -41
t53 -16q59 0 124 46q3 1 3 8v91q-10 2 -66 2q-68 0 -101 -25t-33 -65zM149 580q9 0 16 -1.5t14.5 -5.5t10.5 -5.5t12 -9.5l10 -8q4 -3 10.5 -8t10.5 -8t10 -5.5t13 -2.5q15 0 20.5 12t9.5 39h31q-4 -94 -60 -94q-27 0 -61 30q-3 2 -10 7.5t-10.5 7.5t-9 5.5t-10.5 4.5t-10 1
q-22 0 -32 -50h-31q8 91 66 91z" />
    <glyph glyph-name="adieresis" unicode="&#xe4;" horiz-adv-x="435" 
d="M291 36h-5q-88 -46 -146 -46q-39 0 -74 27t-35 66q0 49 49.5 89.5t136.5 39.5h75q2 91 -18.5 129.5t-71.5 38.5q-60 0 -118 -70l-29 29q76 85 159 85q60 0 95 -40.5t35 -125.5q0 -128 -2 -210q0 -18 10 -18l71 2v-30q-39 -12 -101 -12q-10 9 -31 46zM90 88q0 -25 20 -41
t53 -16q59 0 124 46q3 1 3 8v91q-10 2 -66 2q-68 0 -101 -25t-33 -65zM127 565q36 0 36 -41q0 -13 -9.5 -24.5t-26.5 -11.5q-18 0 -28.5 10.5t-10.5 27.5q0 15 10 27t29 12zM275 565q17 0 26.5 -12t9.5 -27q0 -17 -10.5 -27.5t-27.5 -10.5t-27 11.5t-10 24.5q0 41 39 41z
" />
    <glyph glyph-name="aring" unicode="&#xe5;" horiz-adv-x="435" 
d="M291 36h-5q-86 -46 -146 -46q-39 0 -74 27t-35 66q0 49 49.5 89.5t137.5 39.5h74q2 91 -18.5 129.5t-70.5 38.5q-60 0 -118 -70l-9 9l-11 11l-9 9q76 85 159 85q59 0 94 -40.5t35 -125.5q0 -128 -2 -210q0 -18 10 -18l71 2v-30q-39 -12 -101 -12q-10 9 -31 46zM90 88
q0 -25 20 -41t53 -16q59 0 124 46q3 1 3 8v91q-10 2 -66 2q-68 0 -101 -25t-33 -65zM204 640q39 0 62 -23t23 -56q0 -34 -24.5 -58t-62.5 -24q-37 0 -62.5 22.5t-25.5 57.5q0 31 25.5 56t64.5 25zM202 608q-21 0 -34.5 -15t-13.5 -34q0 -21 14 -34.5t35 -13.5
q23 0 34.5 14.5t11.5 34.5t-12 34t-35 14z" />
    <glyph glyph-name="ae" unicode="&#xe6;" horiz-adv-x="671" 
d="M325 56h-5q-103 -66 -184 -66q-35 0 -69.5 27.5t-34.5 63.5q0 49 49 90.5t135 40.5h76q3 91 -18 130t-70 39q-64 0 -120 -70q-9 8 -28 27q77 86 157 86q88 0 112 -86h5q53 86 155 86q74 0 113 -50q35 -43 35 -124q-16 -29 -29 -30q-100 -3 -263 -3q-1 -97 35 -142
q36 -44 111 -44q51 0 130 34q5 -15 9 -35q-81 -40 -149 -40q-50 0 -90 18t-62 48zM474 388q-47 0 -80 -31q-45 -45 -49 -103q154 0 219 3q14 0 14 11q0 56 -31 89q-28 31 -73 31zM161 31q65 0 141 52q6 3 4 8q-14 38 -16 85q-10 2 -67 2q-66 0 -99 -24.5t-33 -63.5
q0 -26 19.5 -42.5t50.5 -16.5z" />
    <glyph glyph-name="ccedilla" unicode="&#xe7;" horiz-adv-x="392" 
d="M151 -69l60 61q-2 -1 -6 -1q-55 0 -108 48.5t-53 142.5q0 108 64.5 175t164.5 67q58 0 87 -20q0 -8 -10.5 -25.5t-17.5 -21.5q-1 0 -15.5 6.5t-33.5 11.5t-37 5q-57 0 -94 -39q-52 -52 -52 -139q0 -85 37 -130q34 -41 97 -41q48 0 126 30q5 -17 8 -33q-55 -27 -114 -35
l-48 -53q53 -11 53 -59q0 -34 -32 -55t-80 -22q-2 8 -4 28q69 5 69 42q0 20 -13 29q-12 9 -40 11q-2 3 -4.5 9t-3.5 8z" />
    <glyph glyph-name="egrave" unicode="&#xe8;" horiz-adv-x="430" 
d="M44 191q0 98 55.5 165.5t145.5 67.5q73 0 112 -50q35 -43 35 -124q-16 -29 -29 -30q-101 -3 -263 -3q-3 -96 34 -140q22 -27 48 -36.5t64 -9.5q51 0 130 34q5 -15 9 -35q-81 -40 -149 -40q-93 0 -142.5 56.5t-49.5 144.5zM236 388q-50 0 -82 -32q-45 -45 -49 -102
q153 0 218 3q14 0 14 11q0 56 -31 89q-28 31 -70 31zM177 625q23 -22 67.5 -68.5t59.5 -61.5q-6 -8 -23 -25q-102 88 -141 120q17 18 37 35z" />
    <glyph glyph-name="eacute" unicode="&#xe9;" horiz-adv-x="430" 
d="M44 191q0 98 55.5 165.5t145.5 67.5q73 0 112 -50q35 -43 35 -124q-16 -29 -29 -30q-101 -3 -263 -3q-3 -96 34 -140q22 -27 48 -36.5t64 -9.5q51 0 130 34q5 -15 9 -35q-81 -40 -149 -40q-93 0 -142.5 56.5t-49.5 144.5zM236 388q-50 0 -82 -32q-45 -45 -49 -102
q153 0 218 3q14 0 14 11q0 56 -31 89q-28 31 -70 31zM310 625q19 -15 36 -35q-43 -35 -141 -120q-9 9 -23 25q16 16 61 62t67 68z" />
    <glyph glyph-name="ecircumflex" unicode="&#xea;" horiz-adv-x="430" 
d="M44 191q0 98 55.5 165.5t145.5 67.5q73 0 112 -50q35 -43 35 -124q-16 -29 -29 -30q-101 -3 -263 -3q-3 -96 34 -140q22 -27 48 -36.5t64 -9.5q51 0 130 34q5 -15 9 -35q-81 -40 -149 -40q-93 0 -142.5 56.5t-49.5 144.5zM236 388q-50 0 -82 -32q-45 -45 -49 -102
q153 0 218 3q14 0 14 11q0 56 -31 89q-28 31 -70 31zM241 554q-27 -26 -91 -90q-14 10 -24 21q60 72 101 119h29q11 -13 46.5 -55.5t52.5 -62.5q-8 -8 -24 -22l-26.5 26.5t-34.5 35t-29 28.5z" />
    <glyph glyph-name="edieresis" unicode="&#xeb;" horiz-adv-x="430" 
d="M44 191q0 98 55.5 165.5t145.5 67.5q73 0 112 -50q35 -43 35 -124q-16 -29 -29 -30q-101 -3 -263 -3q-3 -96 34 -140q22 -27 48 -36.5t63 -9.5q51 0 130 34q7 -20 10 -35q-81 -40 -150 -40q-92 0 -141.5 56.5t-49.5 144.5zM236 388q-50 0 -82 -32q-45 -45 -49 -102
q153 0 218 3q14 0 14 11q0 56 -31 89q-28 31 -70 31zM168 565q36 0 36 -41q0 -13 -9.5 -24.5t-26.5 -11.5q-18 0 -28.5 10.5t-10.5 27.5q0 15 10 27t29 12zM315 565q17 0 26.5 -12t9.5 -27q0 -17 -10.5 -27.5t-27.5 -10.5t-27 11.5t-10 24.5q0 41 39 41z" />
    <glyph glyph-name="igrave" unicode="&#xec;" horiz-adv-x="251" 
d="M106 368l-81 3v30q16 2 48 8.5t56 11t28 4.5q2 0 2 -3q0 -56 -1 -194t-1 -192l74 -3q0 -22 -1 -32h-104q-15 0 -47 -0.5t-48 -0.5q0 22 1 33l70 3q4 0 4 4v328zM42 626q23 -22 67 -68.5t60 -61.5q-7 -9 -23 -25q-102 88 -141 120q17 18 37 35z" />
    <glyph glyph-name="iacute" unicode="&#xed;" horiz-adv-x="251" 
d="M106 368l-81 3v30q16 2 48 8.5t56 11t28 4.5q2 0 2 -3q0 -56 -1 -194t-1 -192l74 -3q0 -22 -1 -32h-104q-15 0 -47 -0.5t-48 -0.5q0 22 1 33l70 3q4 0 4 4v328zM193 626q19 -15 36 -35q-21 -18 -69.5 -59t-71.5 -61q-14 16 -23 25q21 21 64.5 65.5t63.5 64.5z" />
    <glyph glyph-name="icircumflex" unicode="&#xee;" horiz-adv-x="251" 
d="M106 368l-81 3v30q16 2 48 8.5t56 11t28 4.5q2 0 2 -3q0 -56 -1 -194t-1 -192l74 -3q0 -22 -1 -32h-104q-15 0 -47 -0.5t-48 -0.5q0 22 1 33l70 3q4 0 4 4v328zM123 554q-13 -13 -45 -44.5t-46 -45.5q-16 14 -23 22q88 104 100 118h29q16 -18 50.5 -60t48.5 -58
q-8 -8 -24 -22q-42 43 -90 90z" />
    <glyph glyph-name="idieresis" unicode="&#xef;" horiz-adv-x="251" 
d="M106 368l-81 3v30q16 2 48 8.5t56 11t28 4.5q2 0 2 -3q0 -56 -1 -194t-1 -192l74 -3q0 -22 -1 -32h-104q-15 0 -47 -0.5t-48 -0.5q0 22 1 33l70 3q4 0 4 4v328zM47 565q36 0 36 -41q0 -13 -9.5 -24.5t-26.5 -11.5q-18 0 -28.5 10.5t-10.5 27.5q0 15 10 27t29 12zM195 565
q17 0 26 -12t10 -27q0 -17 -10.5 -27.5t-28.5 -10.5q-17 0 -27 11.5t-10 24.5q0 41 40 41z" />
    <glyph glyph-name="eth" unicode="&#xf0;" horiz-adv-x="489" 
d="M381 368l7 3q-33 121 -97 185q-18 -13 -53.5 -40t-50.5 -38q-4 6 -12 16.5t-11 14.5q23 17 57 42.5l42 31.5q-62 56 -158 67q2 14 8 33q56 -3 107 -25t79 -47q49 39 90 68q8 -10 22 -31q-45 -33 -85 -64q50 -50 83.5 -130t33.5 -172q0 -158 -73 -235q-57 -57 -139 -57
q-69 0 -115 39q-69 58 -69 160q0 100 70 167q58 58 141 58q71 0 123 -46zM237 25q61 0 103 51q51 65 51 182q0 50 -18 69q-48 50 -123 50q-63 0 -104 -50q-43 -48 -43 -133q0 -99 58 -144q33 -25 76 -25z" />
    <glyph glyph-name="ntilde" unicode="&#xf1;" horiz-adv-x="544" 
d="M106 367l-81 1q0 12 2 30q14 3 43.5 9.5t51 11t24.5 4.5q2 0 2 -2q1 -10 5 -32t4 -28l5 -1q70 43 99.5 53.5t64.5 10.5q69 0 107 -66q18 -32 18 -70q0 -96 -2 -252l67 -3v-32q-15 0 -48 -0.5t-50 -0.5q-14 0 -44.5 -0.5t-43.5 -0.5v33l64 3q3 1 3 4q0 29 0.5 96t0.5 97
q0 81 -14 105q-24 43 -77 43q-30 0 -71.5 -19t-75.5 -46q-2 -160 -2 -279l79 -3q0 -22 -1 -33q-15 0 -52 0.5t-56 0.5q-15 0 -45 -0.5t-43 -0.5q0 5 0.5 16t0.5 17l63 3q3 0 3 3zM227 580q26 0 62 -30q4 -3 11 -8.5t10.5 -8t10 -5t12.5 -2.5q15 0 20.5 12t9.5 39h31
q-4 -94 -60 -94q-25 0 -61 30q-3 2 -10 7.5t-10.5 7.5t-9 5.5t-10.5 4.5t-10 1q-22 0 -32 -50h-31q8 91 67 91z" />
    <glyph glyph-name="ograve" unicode="&#xf2;" horiz-adv-x="493" 
d="M238 -10q-79 0 -131 47q-64 61 -64 163q0 112 82 180q53 44 129 44q75 0 121 -37q75 -59 75 -170q0 -117 -80 -184q-53 -43 -132 -43zM245 24q59 0 94 36q52 52 52 153q0 91 -47 138q-39 39 -96 39t-95 -37q-51 -51 -51 -148q0 -94 53 -146q37 -35 90 -35zM186 625
q23 -22 68 -68.5t60 -61.5q-14 -17 -24 -25q-102 88 -141 120q17 18 37 35z" />
    <glyph glyph-name="oacute" unicode="&#xf3;" horiz-adv-x="493" 
d="M238 -10q-79 0 -131 47q-64 61 -64 163q0 112 82 180q53 44 129 44q75 0 121 -37q75 -59 75 -170q0 -117 -80 -184q-53 -43 -132 -43zM245 24q59 0 94 36q52 52 52 153q0 91 -47 138q-39 39 -96 39t-95 -37q-51 -51 -51 -148q0 -94 53 -146q37 -35 90 -35zM336 625
q19 -13 37 -35q-44 -36 -142 -120q-9 9 -23 25q82 84 128 130z" />
    <glyph glyph-name="ocircumflex" unicode="&#xf4;" horiz-adv-x="493" 
d="M238 -10q-79 0 -131 47q-64 61 -64 163q0 112 82 180q53 44 129 44q75 0 121 -37q75 -59 75 -170q0 -117 -80 -184q-53 -43 -132 -43zM245 24q59 0 94 36q52 52 52 153q0 91 -47 138q-39 39 -96 39t-95 -37q-51 -51 -51 -148q0 -94 53 -146q37 -35 90 -35zM259 554
q-54 -52 -92 -90q-16 14 -23 21q51 62 100 119h29q16 -18 51.5 -60.5t48.5 -57.5q-8 -8 -24 -22q-12 11 -27 26.5t-34.5 35z" />
    <glyph glyph-name="otilde" unicode="&#xf5;" horiz-adv-x="493" 
d="M238 -10q-79 0 -131 47q-64 61 -64 163q0 112 82 180q53 44 129 44q75 0 121 -37q75 -59 75 -170q0 -117 -80 -184q-53 -43 -132 -43zM245 24q59 0 94 36q52 52 52 153q0 91 -47 138q-39 39 -96 39t-95 -37q-51 -51 -51 -148q0 -94 53 -146q37 -35 90 -35zM206 580
q27 0 63 -30q4 -3 11 -8.5t10.5 -8t10 -5t12.5 -2.5q15 0 20.5 12t9.5 39h31q-4 -94 -60 -94q-27 0 -61 30q-3 2 -10 7.5t-10.5 7.5t-9 5.5t-10.5 4.5t-10 1q-22 0 -32 -50h-31q8 91 66 91z" />
    <glyph glyph-name="odieresis" unicode="&#xf6;" horiz-adv-x="493" 
d="M238 -10q-79 0 -131 47q-64 61 -64 163q0 112 82 180q53 44 129 44q75 0 121 -37q75 -59 75 -170q0 -117 -80 -184q-53 -43 -132 -43zM245 24q59 0 94 36q52 52 52 153q0 91 -47 138q-39 39 -96 39t-95 -37q-51 -51 -51 -148q0 -94 53 -146q37 -35 90 -35zM182 565
q36 0 36 -41q0 -13 -9.5 -24.5t-26.5 -11.5q-18 0 -28.5 10.5t-10.5 27.5q0 15 10 27t29 12zM330 565q17 0 26.5 -12t9.5 -27q0 -17 -10.5 -27.5t-27.5 -10.5t-27 11.5t-10 24.5q0 41 39 41z" />
    <glyph glyph-name="divide" unicode="&#xf7;" horiz-adv-x="513" 
d="M215 366q0 16 11 28.5t31 12.5q19 0 29.5 -12.5t10.5 -29.5q0 -15 -10.5 -29t-27.5 -14q-23 0 -33.5 14t-10.5 30zM449 216l-386 -1q0 29 1 43q133 0 387 2q2 -21 -2 -44zM215 110q0 15 11.5 28t31.5 13q18 0 28.5 -12.5t10.5 -31.5q0 -14 -10.5 -27.5t-28.5 -13.5
q-22 0 -32.5 14t-10.5 30z" />
    <glyph glyph-name="oslash" unicode="&#xf8;" horiz-adv-x="493" 
d="M255 424q71 0 120 -38q23 26 53 64q14 -10 27 -24q-25 -30 -54 -66q48 -53 48 -142q0 -125 -86 -191q-51 -37 -124 -37q-68 0 -117 35q-28 -35 -54 -66q-14 11 -25 22q10 13 29.5 37.5t24.5 30.5q-53 59 -53 150q0 116 84 182q53 43 127 43zM247 389q-56 0 -94 -38
q-52 -49 -52 -146q0 -76 28 -119q40 48 216 265q-35 38 -98 38zM245 24q57 0 92 34q55 52 55 154q0 74 -25 110q-42 -51 -118 -143t-98 -119q34 -36 94 -36z" />
    <glyph glyph-name="ugrave" unicode="&#xf9;" horiz-adv-x="517" 
d="M371 44l-5 1q-63 -37 -90 -46t-61 -9q-51 0 -89 41.5t-38 94.5q0 47 0.5 130.5t0.5 118.5l-65 1q0 24 1 34q13 0 41 1t49 2t26 1q3 0 3 -3q-3 -117 -3 -241v-7q0 -66 16 -92q25 -40 77 -40q58 0 135 58v89v111.5v85.5l-69 2q0 5 1 17t1 18q72 2 119 2q2 0 2 -3
q0 -57 -1 -179t-1 -182q0 -17 8 -17l70 1v-30q-49 -14 -100 -14q-15 17 -28 54zM174 625q16 -16 61 -62.5t67 -67.5q-7 -9 -23 -25q-19 16 -141 119q12 14 36 36z" />
    <glyph glyph-name="uacute" unicode="&#xfa;" horiz-adv-x="517" 
d="M371 44l-5 1q-63 -37 -90 -46t-61 -9q-51 0 -89 41.5t-38 94.5q0 47 0.5 130.5t0.5 118.5l-65 1q0 24 1 34q13 0 41 1t49 2t26 1q3 0 3 -3q-3 -117 -3 -241v-7q0 -66 16 -92q25 -40 77 -40q58 0 135 58v89v111.5v85.5l-69 2q0 5 1 17t1 18q72 2 119 2q2 0 2 -3
q0 -57 -1 -179t-1 -182q0 -17 8 -17l70 1v-30q-49 -14 -100 -14q-15 17 -28 54zM321 624q19 -13 36 -35q-26 -22 -78.5 -66.5t-62.5 -52.5q-16 16 -23 25q13 13 59 60t69 69z" />
    <glyph glyph-name="ucircumflex" unicode="&#xfb;" horiz-adv-x="517" 
d="M371 44l-5 1q-63 -37 -90 -46t-61 -9q-51 0 -89 41.5t-38 94.5q0 47 0.5 130.5t0.5 118.5l-65 1q0 24 1 34q13 0 41 1t49 2t26 1q3 0 3 -3q-3 -117 -3 -241v-7q0 -66 16 -92q25 -40 77 -40q58 0 135 58v89v111.5v85.5l-69 2q0 5 1 17t1 18q72 2 119 2q2 0 2 -3
q0 -57 -1 -179t-1 -182q0 -17 8 -17l70 1v-30q-49 -14 -100 -14q-15 17 -28 54zM250 554l-91 -91q-8 8 -24 22q10 11 47 55t54 64h29q16 -18 51.5 -60.5t48.5 -57.5q-4 -4 -12 -11.5t-12 -11.5z" />
    <glyph glyph-name="udieresis" unicode="&#xfc;" horiz-adv-x="517" 
d="M371 44l-5 1q-63 -37 -90 -46t-61 -9q-51 0 -89 41.5t-38 94.5q0 47 0.5 130.5t0.5 118.5l-65 1q0 24 1 34q13 0 41 1t49 2t26 1q3 0 3 -3q-3 -117 -3 -241v-7q0 -66 16 -92q25 -40 77 -40q58 0 135 58v89v111.5v85.5l-69 2q0 5 1 17t1 18q72 2 119 2q2 0 2 -3
q0 -57 -1 -179t-1 -182q0 -17 8 -17l70 1v-30q-49 -14 -100 -14q-15 17 -28 54zM179 565q36 0 36 -41q0 -13 -9.5 -24.5t-26.5 -11.5q-18 0 -28.5 10.5t-10.5 27.5q0 15 10 27t29 12zM326 565q17 0 26.5 -12t9.5 -27q0 -17 -10.5 -27.5t-27.5 -10.5t-27 11.5t-10 24.5
q0 41 39 41z" />
    <glyph glyph-name="yacute" unicode="&#xfd;" horiz-adv-x="448" 
d="M452 382l-46 -3q-15 -39 -81 -199q-30 -74 -78 -171.5t-84 -151.5q-52 -79 -89 -99q-9 0 -27 13t-18 20q56 39 95 88q49 62 75 125q-49 122 -86 220q-10 26 -29 78t-28 74q0 3 -5 3l-52 3q0 23 1 32h77h115q0 -22 -1 -33l-77 -2q12 -42 49 -148q17 -51 61 -172h6
q45 107 62 150q27 72 58 165q2 5 -3 5l-68 2q0 23 1 32q14 0 46.5 0.5t50.5 0.5h76q0 -21 -1 -32zM317 625q19 -13 37 -35q-43 -35 -141 -120q-4 4 -12 12.5t-12 12.5q82 84 128 130z" />
    <glyph glyph-name="thorn" unicode="&#xfe;" horiz-adv-x="498" 
d="M133 372l5 -1q64 34 91.5 43.5t60.5 9.5q74 0 119.5 -58t45.5 -126q0 -73 -21 -124q-27 -60 -73 -92q-47 -34 -119 -34q-56 0 -106 26l-4 -3v-61v-79v-61l94 -2q-1 -5 -1.5 -16.5t-0.5 -16.5q-78 0 -118 -1q-63 0 -90 -1q0 22 1 33l60 4q4 0 4 5v757l-80 1q0 20 1 29
q14 3 46.5 10t56.5 12t28 5q2 0 2 -3q0 -32 -1 -127.5t-1 -128.5zM398 215q0 62 -22 105q-32 59 -102 59q-67 0 -139 -52q-1 -81 -1 -246q-1 -18 35 -36.5t76 -18.5q63 0 97 36q56 54 56 153z" />
    <glyph glyph-name="ydieresis" unicode="&#xff;" horiz-adv-x="448" 
d="M452 382l-46 -3q-15 -39 -81 -199q-30 -74 -78 -171.5t-84 -151.5q-52 -79 -89 -99q-9 0 -27 13t-18 20q56 39 95 88q49 62 75 125q-49 122 -86 220q-10 26 -29 78t-28 74q0 3 -5 3l-52 3q0 23 1 32h78h114q0 -22 -1 -33l-77 -2q12 -38 49 -148q44 -125 62 -172h5
q25 57 62 150q27 72 58 165q2 5 -3 5l-68 2q0 23 1 32q14 0 46.5 0.5t50.5 0.5h76q0 -21 -1 -32zM159 565q36 0 36 -41q0 -13 -9.5 -24.5t-26.5 -11.5q-18 0 -28.5 10.5t-10.5 27.5q0 15 10 27t29 12zM306 565q17 0 26.5 -12t9.5 -27q0 -17 -10.5 -27.5t-27.5 -10.5
t-27 11.5t-10 24.5q0 41 39 41z" />
    <glyph glyph-name="Amacron" unicode="&#x100;" horiz-adv-x="597" 
d="M-14 35l58 4q4 0 5 4q43 107 132.5 341.5t105.5 275.5q9 1 31 1q38 -100 117.5 -321.5t109.5 -300.5l63 -3q0 -24 -1 -35h-86q-23 0 -64.5 -0.5t-59.5 -0.5q0 6 0.5 18t0.5 17l86 3q4 0 2 5q-31 87 -61 167q-2 5 -6 5l-254 -1q-19 -51 -63 -175l100 -3q0 -24 -1 -35h-131
q-14 0 -43 -0.5t-42 -0.5q0 24 1 35zM301 569h-4q-10 -28 -53 -142t-64 -169q-2 -6 3 -6h229q-41 118 -111 317zM406 778q2 -20 0 -41h-212q-2 19 0 39q36 1 106 1.5t106 0.5z" />
    <glyph glyph-name="amacron" unicode="&#x101;" horiz-adv-x="435" 
d="M291 36h-5q-88 -46 -146 -46q-39 0 -74 27t-35 66q0 49 49.5 89.5t136.5 39.5h75q2 91 -18.5 129.5t-71.5 38.5q-60 0 -118 -70l-29 29q76 85 159 85q60 0 95 -40.5t35 -125.5q0 -128 -2 -210q0 -18 10 -18l71 2v-30q-39 -12 -101 -12q-10 9 -31 46zM90 88q0 -25 20 -41
t53 -16q59 0 124 46q3 1 3 8v91q-10 2 -66 2q-68 0 -101 -25t-33 -65zM313 543v-41q-27 0 -93 0.5t-97 0.5q-2 18 0 38q126 2 190 2z" />
    <glyph glyph-name="Abreve" unicode="&#x102;" horiz-adv-x="597" 
d="M-14 35l58 4q4 0 5 4q43 107 132.5 341.5t105.5 275.5q9 1 31 1q38 -100 117.5 -321.5t109.5 -300.5l63 -3q0 -24 -1 -35h-86q-23 0 -64.5 -0.5t-59.5 -0.5q0 6 0.5 18t0.5 17l86 3q4 0 2 5q-31 87 -61 167q-2 5 -6 5l-254 -1q-19 -51 -63 -175l100 -3q0 -24 -1 -35h-131
q-14 0 -43 -0.5t-42 -0.5q0 24 1 35zM301 569h-4q-10 -28 -53 -142t-64 -169q-2 -6 3 -6h229q-41 118 -111 317zM309 749q-45 0 -76.5 27t-42.5 66q15 8 32 13q36 -59 90 -59q53 0 88 54q9 -2 33 -9q-10 -32 -44 -62t-80 -30z" />
    <glyph glyph-name="abreve" unicode="&#x103;" horiz-adv-x="435" 
d="M291 36h-5q-88 -46 -146 -46q-39 0 -74 27t-35 66q0 49 49.5 89.5t136.5 39.5h75q2 91 -18.5 129.5t-71.5 38.5q-60 0 -118 -70l-29 29q76 85 159 85q60 0 95 -40.5t35 -125.5q0 -128 -2 -210q0 -18 10 -18l71 2v-30q-39 -12 -101 -12q-10 9 -31 46zM90 88q0 -25 20 -41
t53 -16q59 0 124 46q3 1 3 8v91q-10 2 -66 2q-68 0 -101 -25t-33 -65zM216 481q-40 0 -69.5 26t-39.5 64q14 6 33 12q17 -29 34.5 -43t44.5 -14q48 0 76 52q20 -3 34 -9q-8 -30 -39.5 -59t-73.5 -29z" />
    <glyph glyph-name="Aogonek" unicode="&#x104;" horiz-adv-x="597" 
d="M301 569h-4q-10 -28 -53 -142t-64 -169q-2 -6 3 -6h229q-41 118 -111 317zM370 -116q0 56 72 116h-45q0 5 0.5 17t0.5 18l86 3q4 0 2 5q-31 87 -61 167q-2 5 -6 5l-254 -1q-19 -51 -63 -175l100 -3q0 -24 -1 -36h-131h-85q0 24 1 35l58 4q4 0 5 4q43 107 132.5 341.5
t105.5 275.5q10 1 31 1q38 -100 117.5 -321.5t109.5 -300.5l63 -3q0 -24 -1 -36h-86h-37q-62 -48 -62 -103q0 -23 12.5 -36t32.5 -13q23 0 39 8q8 -17 10 -29q-28 -18 -65 -18q-32 0 -56.5 20.5t-24.5 54.5z" />
    <glyph glyph-name="aogonek" unicode="&#x105;" horiz-adv-x="435" 
d="M90 88q0 -25 20 -41t53 -16q59 0 124 46q3 1 3 8v91q-10 2 -66 2q-68 0 -101 -25t-33 -65zM263 -111q0 51 59 101q-11 11 -31 46h-5q-88 -46 -146 -46q-39 0 -74 27t-35 66q0 49 49.5 89.5t136.5 39.5h75q2 91 -18.5 129.5t-71.5 38.5q-60 0 -118 -70l-29 29
q76 85 159 85q60 0 95 -40.5t35 -125.5q0 -84 -2 -210q0 -18 10 -18l71 2v-30q-3 -1 -13 -2.5t-22.5 -4.5t-22.5 -8q-55 -29 -55 -86q0 -21 11 -32.5t30 -11.5q20 0 36 7q6 -15 8 -27q-27 -16 -59 -16q-29 0 -51 18.5t-22 49.5z" />
    <glyph glyph-name="Cacute" unicode="&#x106;" horiz-adv-x="578" 
d="M52 290q0 186 129 295q89 75 222 75q80 0 126 -23l9 -159q-23 -4 -43 -5l-15 109q-1 12 -8 16q-29 20 -93 20q-106 0 -176 -71q-95 -95 -95 -237q0 -68 13.5 -113t49.5 -88q29 -34 78 -55t103 -21q82 0 184 46q7 -22 10 -39q-120 -50 -202 -50q-112 0 -187 61
q-49 38 -77 100.5t-28 138.5zM483 847q17 -21 31 -44q-22 -12 -50.5 -29t-61.5 -36.5t-48 -28.5q-13 17 -19 27q48 35 148 111z" />
    <glyph glyph-name="cacute" unicode="&#x107;" horiz-adv-x="392" 
d="M44 183q0 107 64.5 174t164.5 67q58 0 87 -20q-1 -7 -11 -24.5t-17 -22.5q-1 0 -15.5 6.5t-33.5 11.5t-37 5q-56 0 -94 -38q-52 -54 -52 -140q0 -85 37 -130q33 -41 97 -41q51 0 126 31q1 -4 2.5 -9.5t3.5 -12.5t3 -11q-80 -39 -151 -39q-72 0 -123 51t-51 142zM331 625
q22 -17 36 -35q-43 -35 -141 -120q-9 9 -23 25q82 84 128 130z" />
    <glyph glyph-name="Ccaron" unicode="&#x10c;" horiz-adv-x="578" 
d="M52 290q0 186 129 295q89 75 222 75q80 0 126 -23l9 -159q-23 -4 -43 -5l-15 109q-1 12 -8 16q-29 20 -93 20q-106 0 -176 -71q-95 -95 -95 -237q0 -68 13.5 -113t49.5 -88q29 -34 78 -55t103 -21q82 0 184 46q7 -22 10 -39q-120 -50 -202 -50q-112 0 -187 61
q-49 38 -77 100.5t-28 138.5zM362 773q14 9 51.5 34.5t54.5 37.5q9 -7 23 -25q-94 -80 -113 -96q-23 0 -33 1q-12 10 -34 28.5t-41 34.5t-36 29q14 18 22 26q18 -11 56 -36.5t50 -33.5z" />
    <glyph glyph-name="ccaron" unicode="&#x10d;" horiz-adv-x="392" 
d="M44 183q0 107 64.5 174t164.5 67q58 0 87 -20q-1 -7 -11 -24.5t-17 -22.5q-1 0 -15.5 6.5t-33.5 11.5t-37 5q-56 0 -94 -38q-52 -54 -52 -140q0 -85 37 -130q33 -41 97 -41q51 0 126 31q1 -4 2.5 -9.5t3.5 -12.5t3 -11q-80 -39 -151 -39q-72 0 -123 51t-51 142zM237 528
l90 90q11 -8 24 -22q-62 -74 -99 -118h-9h-11.5h-9.5q-4 5 -41.5 50.5t-57.5 68.5q10 11 23 21q60 -57 91 -90z" />
    <glyph glyph-name="Dcaron" unicode="&#x10e;" horiz-adv-x="685" 
d="M48 35l75 2q4 0 4 5v569l-79 3q0 6 0.5 18.5t0.5 17.5q21 0 87.5 0.5t107.5 0.5q92 0 148 -12.5t106 -42.5q63 -37 99.5 -104t36.5 -149q0 -85 -30 -158t-90 -118q-88 -67 -235 -67h-121q-15 0 -53.5 -0.5t-57.5 -0.5q0 6 0.5 18t0.5 18zM183 611l-2 -534q0 -25 15.5 -33
t75.5 -8q145 0 223 69q37 33 60 90t23 120q0 84 -22 136.5t-73 95.5q-80 68 -231 68q-56 0 -69 -4zM315 763q23 16 106 72q9 -7 23 -25q-51 -44 -114 -96q-22 0 -32 1q-43 37 -111 92q12 17 21 26q10 -6 107 -70z" />
    <glyph glyph-name="dcaron" unicode="&#x10f;" horiz-adv-x="544" 
d="M369 35h-5q-58 -29 -84 -37t-56 -8q-76 0 -123 49q-57 56 -57 151q0 98 63 169q57 65 152 65q50 0 102 -22l3 3q0 158 -1 238l-85 1v31q20 3 53 9.5t56.5 11t27.5 4.5q3 0 3 -4q-1 -99 -2 -326t-1 -312q0 -13 3 -19t10 -5l72 2q0 -20 -1 -31q-48 -15 -102 -15
q-15 13 -28 45zM253 385q-71 0 -113 -54q-39 -53 -39 -134q0 -75 35 -123q34 -45 96 -45t125 45q5 4 5 13v269q-55 29 -109 29zM493 700q19 0 34.5 -18.5t15.5 -40.5q0 -70 -79 -115q-12 10 -18 22q50 30 50 67q0 11 -7 18.5t-12.5 10t-17.5 6.5q-4 20 7 35t27 15z" />
    <glyph glyph-name="Dcroat" unicode="&#x110;" horiz-adv-x="702" 
d="M144 340v271l-79 3q0 6 0.5 18.5t0.5 17.5q21 0 87 0.5t107 0.5q95 0 146 -11.5t97 -36.5q71 -40 109.5 -109.5t38.5 -150.5q0 -182 -117 -274q-88 -69 -238 -69h-121q-15 0 -53 -0.5t-57 -0.5v36l75 2q4 0 4 5v260h-93q0 27 1 37q31 1 92 1zM199 302l-1 -225
q0 -25 15.5 -33t75.5 -8q142 0 223 70q36 31 59.5 88t23.5 121q0 85 -22.5 137t-73.5 95q-78 68 -237 68q-49 0 -62 -4l-1 -271q26 0 90.5 0.5t106.5 0.5q0 -15 -2 -39h-195z" />
    <glyph glyph-name="dcroat" unicode="&#x111;" horiz-adv-x="508" 
d="M101 196q0 -74 35 -122q34 -45 96 -45t125 45q6 4 6 13q0 190 -1 269q-55 29 -108 29q-72 0 -114 -54q-39 -53 -39 -135zM364 520h-128q0 14 2 38q46 1 126 1q0 14 -0.5 41.5t-0.5 42.5l-85 1q0 22 1 31q20 3 53 9.5t56 11t27 4.5q3 0 3 -4q0 -19 -0.5 -64.5t-0.5 -71.5
h58q0 -12 -2 -40h-56q-2 -310 -2 -462q0 -13 3 -19t10 -5l72 2q0 -20 -1 -31q-48 -15 -102 -15q-15 13 -28 45h-5q-59 -29 -84.5 -37t-55.5 -8q-76 0 -123 49q-57 56 -57 151q0 98 63 169q57 65 152 65q50 0 102 -22l4 3q0 21 -0.5 59.5t-0.5 55.5z" />
    <glyph glyph-name="Emacron" unicode="&#x112;" horiz-adv-x="547" 
d="M51 35l74 3q3 0 3 3v571l-78 2q0 24 1 36q16 0 53.5 -0.5t57.5 -0.5q15 0 110.5 0.5t107.5 0.5h83q6 -90 8 -144q-22 -4 -40 -5l-16 90q-3 14 -23 17q-48 5 -174 5q-7 0 -20 -0.5t-15 -0.5l-1 -262q31 0 88 0.5t88 1.5q25 1 26 20l5 51h38q-1 -15 -1.5 -46.5t-0.5 -46.5
v-91h-12h-14.5h-12.5l-3 55q-1 19 -26 19q-51 1 -175 1l-1 -258q0 -13 8.5 -16.5t48.5 -3.5q148 0 175 8q13 3 18 19l33 95q4 -1 18.5 -3.5t20.5 -4.5q-14 -70 -34 -150h-306h-113q0 24 1 35zM383 778q2 -20 0 -41h-212q-2 19 0 39q36 1 106 1.5t106 0.5z" />
    <glyph glyph-name="emacron" unicode="&#x113;" horiz-adv-x="430" 
d="M44 191q0 98 55.5 165.5t145.5 67.5q73 0 112 -50q35 -43 35 -124q-16 -29 -29 -30q-101 -3 -263 -3q-3 -96 34 -140q22 -27 48 -36.5t64 -9.5q51 0 130 34q5 -15 9 -35q-81 -40 -149 -40q-93 0 -142.5 56.5t-49.5 144.5zM236 388q-50 0 -82 -32q-45 -45 -49 -102
q153 0 218 3q14 0 14 11q0 56 -31 89q-28 31 -70 31zM326 543v-41q-27 0 -93 0.5t-97 0.5q-2 18 0 38q126 2 190 2z" />
    <glyph glyph-name="Edotaccent" unicode="&#x116;" horiz-adv-x="547" 
d="M51 35l74 3q3 0 3 3v571l-78 2q0 24 1 36q16 0 53.5 -0.5t57.5 -0.5q15 0 110.5 0.5t107.5 0.5h83q6 -90 8 -144q-22 -4 -40 -5l-16 90q-3 14 -23 17q-48 5 -174 5q-7 0 -20 -0.5t-15 -0.5l-1 -262q31 0 88 0.5t88 1.5q25 1 26 20l5 51h38q-1 -15 -1.5 -46.5t-0.5 -46.5
v-91h-12h-14.5h-12.5l-3 55q-1 19 -26 19q-51 1 -175 1l-1 -258q0 -13 8.5 -16.5t48.5 -3.5q148 0 175 8q13 3 18 19l33 95q4 -1 18.5 -3.5t20.5 -4.5q-14 -70 -34 -150h-306h-113q0 24 1 35zM280 804q21 0 30.5 -13.5t9.5 -30.5q0 -14 -11 -26.5t-29 -12.5t-30 11.5
t-12 29.5q0 16 10.5 29t31.5 13z" />
    <glyph glyph-name="edotaccent" unicode="&#x117;" horiz-adv-x="430" 
d="M44 191q0 98 55.5 165.5t145.5 67.5q73 0 112 -50q35 -43 35 -124q-16 -29 -29 -30q-101 -3 -263 -3q-3 -96 34 -140q22 -27 48 -36.5t64 -9.5q51 0 130 34q5 -15 9 -35q-81 -40 -149 -40q-93 0 -142.5 56.5t-49.5 144.5zM236 388q-50 0 -82 -32q-45 -45 -49 -102
q153 0 218 3q14 0 14 11q0 56 -31 89q-28 31 -70 31zM244 577q39 0 39 -44q0 -14 -11 -26.5t-28 -12.5q-18 0 -30 12t-12 29q0 16 10.5 29t31.5 13z" />
    <glyph glyph-name="Eogonek" unicode="&#x118;" horiz-adv-x="547" 
d="M349 -119q0 53 81 119q-35 0 -124 0.5t-143 0.5q-21 0 -58.5 -0.5t-54.5 -0.5q0 24 1 35l74 4q3 0 3 3v570l-78 3q0 24 1 36q16 0 53.5 -0.5t57.5 -0.5q159 0 218 1h83q6 -90 8 -144q-12 -2 -40 -6l-16 90q-3 15 -23 18q-39 4 -174 4h-35l-1 -263q31 0 88 0.5t88 1.5
q25 1 26 20l5 51h38q-1 -15 -1.5 -46.5t-0.5 -46.5v-90q-25 -2 -39 -1l-3 55q-1 19 -26 19q-51 1 -175 1l-1 -258q0 -13 8.5 -16t48.5 -3q147 0 176 8q12 3 18 19l33 94q18 -3 39 -8q-3 -14 -10.5 -46.5t-14 -60t-11.5 -43.5q-67 -52 -67 -106q0 -23 12.5 -36t32.5 -13
q23 0 39 8q8 -17 10 -29q-28 -18 -65 -18q-32 0 -56.5 20.5t-24.5 54.5z" />
    <glyph glyph-name="eogonek" unicode="&#x119;" horiz-adv-x="430" 
d="M236 388q-52 0 -82 -32q-45 -45 -49 -102q145 0 218 3q14 0 14 11q0 56 -31 89q-28 31 -70 31zM245 -89q0 42 42 85q-27 -6 -51 -6q-93 0 -143 56.5t-50 143.5q0 99 56 166.5t146 67.5q73 0 112 -50q35 -43 35 -124q-16 -29 -29 -30q-114 -3 -263 -3q-3 -96 34 -140
q22 -27 48 -36.5t64 -9.5q50 0 129 34q2 -5 10 -35q-26 -12 -38 -19q-55 -36 -55 -88q0 -21 11 -32.5t30 -11.5q20 0 36 7q6 -15 8 -27q-27 -16 -59 -16q-29 0 -51 18.5t-22 49.5z" />
    <glyph glyph-name="Ecaron" unicode="&#x11a;" horiz-adv-x="547" 
d="M51 35l74 3q3 0 3 3v571l-78 2q0 24 1 36q16 0 53.5 -0.5t57.5 -0.5q15 0 110.5 0.5t107.5 0.5h83q6 -90 8 -144q-22 -4 -40 -5l-16 90q-3 14 -23 17q-48 5 -174 5q-7 0 -20 -0.5t-15 -0.5l-1 -262q31 0 88 0.5t88 1.5q25 1 26 20l5 51h38q-1 -15 -1.5 -46.5t-0.5 -46.5
v-91h-12h-14.5h-12.5l-3 55q-1 19 -26 19q-51 1 -175 1l-1 -258q0 -13 8.5 -16.5t48.5 -3.5q148 0 175 8q13 3 18 19l33 95q4 -1 18.5 -3.5t20.5 -4.5q-14 -70 -34 -150h-306h-113q0 24 1 35zM277 762q93 64 106 73q11 -10 22 -26q-42 -36 -113 -95h-9.5h-12.5h-10
q-16 13 -34.5 28.5t-41.5 35t-35 29.5q14 18 22 26q12 -8 49 -33t57 -38z" />
    <glyph glyph-name="ecaron" unicode="&#x11b;" horiz-adv-x="430" 
d="M44 191q0 98 55.5 165.5t145.5 67.5q73 0 112 -50q35 -43 35 -124q-16 -29 -29 -30q-101 -3 -263 -3q-3 -96 34 -140q22 -27 48 -36.5t64 -9.5q51 0 130 34q5 -15 9 -35q-81 -40 -149 -40q-93 0 -142.5 56.5t-49.5 144.5zM236 388q-50 0 -82 -32q-45 -45 -49 -102
q153 0 218 3q14 0 14 11q0 56 -31 89q-28 31 -70 31zM242 528l90 90q14 -10 24 -22q-18 -21 -58 -68t-42 -50q-14 -2 -29 0q-14 16 -48 57t-52 62q11 12 24 21q27 -26 91 -90z" />
    <glyph glyph-name="Gbreve" unicode="&#x11e;" horiz-adv-x="660" 
d="M518 471l-11 98q-2 16 -9 22q-38 29 -115 29q-109 0 -181 -71q-91 -89 -91 -228q0 -140 75 -215q77 -78 205 -78q29 0 56 4.5t41.5 11t14.5 11.5v179l-115 2q0 24 1 36h139h88q0 -14 -2 -36l-53 -2q-4 0 -4 -4l-2 -208q-53 -32 -173 -32q-140 0 -220 68q-110 94 -110 253
q0 89 38 164t105 123q88 62 208 62q93 0 151 -28q3 -47 7 -157q-13 -2 -43 -4zM372 730q-45 0 -77 27t-43 66q17 9 32 13q38 -59 91 -59q55 0 87 54q10 -2 34 -9q-10 -32 -44 -62t-80 -30z" />
    <glyph glyph-name="gbreve" unicode="&#x11f;" horiz-adv-x="446" 
d="M137 114v5q-89 42 -89 142q0 65 48.5 114t132.5 49q29 0 61 -8q8 -2 21 -2q18 1 63 2.5t63 2.5v-40h-99v-3q39 -36 39 -102q0 -68 -45 -115q-57 -58 -155 -52q-4 -3 -11.5 -9t-11.5 -9.5t-10 -8.5t-9.5 -8.5t-7 -7.5t-5 -7.5t-1.5 -6.5q0 -21 27 -27t111 -9
q107 -3 137 -24q45 -28 45 -75q0 -39 -24 -73.5t-70 -55.5q-68 -28 -148 -28q-86 0 -134 29.5t-48 84.5q0 30 22 48q18 15 43 34t37 30v6q-54 12 -54 62q0 6 10.5 15t61.5 47zM103 260q0 -60 30.5 -89.5t75.5 -29.5q49 0 81 34t32 94q0 57 -26 87q-28 33 -78 33
q-53 0 -84 -33.5t-31 -95.5zM390 -96q0 37 -25.5 49.5t-97.5 18.5q-4 0 -104 5q-6 -5 -17.5 -14.5t-16.5 -13.5t-14 -12t-13 -12l-10.5 -10.5t-9 -11.5t-6 -11t-4.5 -11.5t-1 -11.5q0 -38 41.5 -57t92.5 -19q73 0 123 25q62 32 62 86zM231 481q-40 0 -69 26t-39 64
q12 6 32 12q17 -29 34.5 -43t44.5 -14q48 0 76 52q21 -4 34 -9q-8 -30 -39.5 -59t-73.5 -29z" />
    <glyph glyph-name="Gcommaaccent" unicode="&#x122;" horiz-adv-x="660" 
d="M518 471l-11 98q-2 16 -9 22q-38 29 -115 29q-109 0 -181 -71q-91 -89 -91 -228q0 -140 75 -215q77 -78 205 -78q29 0 56 4.5t41.5 11t14.5 11.5v179l-115 2q0 24 1 36h139h88q0 -14 -2 -36l-53 -2q-4 0 -4 -4l-2 -208q-53 -32 -173 -32q-140 0 -220 68q-110 94 -110 253
q0 89 38 164t105 123q88 62 208 62q93 0 151 -28q3 -47 7 -157q-13 -2 -43 -4zM377 -53q20 0 36.5 -20.5t16.5 -47.5q0 -78 -82 -130q-3 4 -20 26q52 34 52 76q0 27 -37 39q-4 23 7 40t27 17z" />
    <glyph glyph-name="gcommaaccent" unicode="&#x123;" horiz-adv-x="446" 
d="M137 114v5q-89 42 -89 142q0 65 48.5 114t132.5 49q29 0 61 -8q8 -2 21 -2q18 1 63 2.5t63 2.5v-40h-99v-3q39 -36 39 -102q0 -68 -45 -115q-57 -58 -155 -52q-4 -3 -11.5 -9t-11.5 -9.5t-10 -8.5t-9.5 -8.5t-7 -7.5t-5 -7.5t-1.5 -6.5q0 -21 27 -27t111 -9
q107 -3 137 -24q45 -28 45 -75q0 -39 -24 -73.5t-70 -55.5q-68 -28 -148 -28q-86 0 -134 29.5t-48 84.5q0 30 22 48q18 15 43 34t37 30v6q-54 12 -54 62q0 6 10.5 15t61.5 47zM103 260q0 -60 30.5 -89.5t75.5 -29.5q49 0 81 34t32 94q0 57 -26 87q-28 33 -78 33
q-53 0 -84 -33.5t-31 -95.5zM390 -96q0 37 -25.5 49.5t-97.5 18.5q-4 0 -104 5q-6 -5 -17.5 -14.5t-16.5 -13.5t-14 -12t-13 -12l-10.5 -10.5t-9 -11.5t-6 -11t-4.5 -11.5t-1 -11.5q0 -38 41.5 -57t92.5 -19q73 0 123 25q62 32 62 86zM221 475q-19 0 -34.5 18t-15.5 41
q0 72 79 115q12 -11 18 -22q-50 -30 -50 -67q0 -23 37 -35q4 -20 -7 -35t-27 -15z" />
    <glyph glyph-name="Imacron" unicode="&#x12a;" horiz-adv-x="308" 
d="M128 612l-84 3q0 13 2 35q16 0 56 -0.5t59 -0.5q20 0 56.5 0.5t52.5 0.5v-11v-13v-11l-84 -3q-3 0 -3 -4l-2 -569l90 -3q1 -12 -1 -35h-110q-20 0 -58.5 -0.5t-54.5 -0.5q0 24 1 35l76 4q4 0 4 4v569zM265 774q2 -20 0 -42q-31 0 -104 0.5t-108 0.5q-2 19 0 39
q36 1 106 1.5t106 0.5z" />
    <glyph glyph-name="imacron" unicode="&#x12b;" horiz-adv-x="251" 
d="M106 368l-81 3v30q16 2 48 8.5t56 11t28 4.5q2 0 2 -3q0 -56 -1 -194t-1 -192l74 -3q0 -22 -1 -32h-104q-15 0 -47 -0.5t-48 -0.5q0 22 1 33l70 3q4 0 4 4v328zM220 543v-41q-27 0 -93 0.5t-97 0.5q-2 18 0 38q126 2 190 2z" />
    <glyph glyph-name="Iogonek" unicode="&#x12e;" horiz-adv-x="308" 
d="M98 -113q0 56 70 114q-14 0 -58.5 -0.5t-63.5 -0.5q0 24 1 35l77 4q4 0 4 4v569l-84 3q0 13 2 35q16 0 56 -0.5t59 -0.5q20 0 56.5 0.5t52.5 0.5v-11v-13v-11l-84 -3q-3 0 -3 -4l-2 -569l90 -3q1 -13 -1 -36h-5q-5 1 -11.5 1h-14.5t-17 -0.5t-17 -2.5q-21 -6 -38 -37.5
t-17 -60.5q0 -23 12.5 -36t32.5 -13q23 0 39 8q8 -17 10 -29q-28 -18 -65 -18q-32 0 -56.5 20.5t-24.5 54.5z" />
    <glyph glyph-name="iogonek" unicode="&#x12f;" horiz-adv-x="251" 
d="M129 618q21 0 30 -14t9 -30q0 -19 -11.5 -31.5t-30.5 -12.5t-31.5 13t-12.5 30q0 19 12.5 32t34.5 13zM79 -103q0 51 60 102h-108q0 22 1 32l70 3q4 0 4 4v328l-81 3v30q16 2 48 8.5t56 11t28 4.5q2 0 2 -3q0 -56 -1 -194t-1 -192l74 -2q0 -23 -1 -33q-45 3 -58 -4
q-47 -29 -47 -78q0 -30 10 -41t30 -12q22 0 38 8q6 -12 9 -27q-28 -16 -59 -16q-29 0 -51.5 18.5t-22.5 49.5z" />
    <glyph glyph-name="Idotaccent" unicode="&#x130;" horiz-adv-x="308" 
d="M128 612l-84 3q0 13 2 35q16 0 56 -0.5t59 -0.5q20 0 56.5 0.5t52.5 0.5v-11v-13v-11l-84 -3q-3 0 -3 -4l-2 -569l90 -3q1 -12 -1 -35h-110q-20 0 -58.5 -0.5t-54.5 -0.5q0 24 1 35l76 4q4 0 4 4v569zM159 801q21 0 30.5 -13.5t9.5 -30.5q0 -14 -11 -26.5t-29 -12.5
q-19 0 -30.5 12t-11.5 29q0 16 10.5 29t31.5 13z" />
    <glyph glyph-name="dotlessi" unicode="&#x131;" horiz-adv-x="251" 
d="M106 368l-81 3v30q16 2 48 8.5t56 11t28 4.5q2 0 2 -3q0 -56 -1 -194t-1 -192l74 -3q0 -22 -1 -32h-104q-15 0 -47 -0.5t-48 -0.5q0 22 1 33l70 3q4 0 4 4v328z" />
    <glyph glyph-name="Kcommaaccent" unicode="&#x136;" horiz-adv-x="618" 
d="M127 611l-76 3q0 25 1 36q16 0 53 -0.5t55 -0.5q17 0 52 0.5t51 0.5q0 -25 -1 -36l-75 -2q-5 -1 -5 -7l-1 -254q46 0 75 8q26 23 94.5 104t117.5 144q2 3 -2 3l-72 4q0 24 1 35h124q13 0 38.5 0.5t35.5 0.5q0 -24 -1 -35l-57 -4q-28 -33 -231 -263v-5q54 -40 121 -138
q70 -103 99 -143q16 -21 33 -21l77 -3q0 -24 -1 -36q-12 -1 -36.5 -1.5t-36.5 -0.5q-11 0 -28.5 -0.5t-27.5 -0.5q-8 9 -24 31.5t-47.5 70t-46.5 70.5q-97 144 -137 144q-44 0 -68 -3l-1 -273l88 -3v-35h-111q-19 0 -55 -0.5t-51 -0.5q0 24 1 35l72 4q3 0 3 3v569zM330 -46
q20 0 36.5 -20.5t16.5 -47.5q0 -79 -83 -130q-17 22 -19 26q52 34 52 76q0 27 -38 39q-4 23 7.5 40t27.5 17z" />
    <glyph glyph-name="kcommaaccent" unicode="&#x137;" horiz-adv-x="479" 
d="M92 646l-80 -1q0 6 0.5 16.5t0.5 14.5q15 2 46.5 8t56.5 11t28 5t3 -4q0 -56 -0.5 -131t-1.5 -172t-1 -147q42 0 66 4q64 60 117 122q1 4 -2 5l-50 2q0 25 1 34h88q14 0 41 0.5t39 0.5q2 -16 0 -34l-49 -4q-94 -93 -142 -137v-5q38 -34 87 -107q52 -74 59 -81q9 -9 19 -9
l62 -2q0 -22 -1 -33q-37 -2 -114 -2q-26 32 -74 107q-51 83 -91 105q-34 0 -56 -2q0 -26 -0.5 -87.5t-0.5 -86.5l70 -2q0 -23 -1 -33h-95q-17 0 -49 -0.5t-45 -0.5q0 22 1 33l65 3q2 0 2 4q1 180 1 606zM239 -43q19 0 34.5 -18t15.5 -41q0 -70 -79 -115q-8 8 -18 22
q50 31 50 68q0 11 -7 18.5t-12 9.5t-17 6q-4 21 6.5 35.5t26.5 14.5z" />
    <glyph glyph-name="Lacute" unicode="&#x139;" horiz-adv-x="513" 
d="M128 611l-78 3q-1 12 1 35h110h121q0 -12 -2 -36l-94 -2q-2 0 -2 -4l-3 -551q0 -13 6 -16.5t36 -3.5q150 0 182 6q12 4 18 21l37 106q17 -3 39 -10q-12 -53 -38 -159h-299h-112q0 24 1 35l74 3q3 0 3 4v569zM279 839q21 -26 32 -44q-22 -12 -50.5 -29t-61.5 -36.5
t-48 -28.5q-13 15 -19 27q78 58 147 111z" />
    <glyph glyph-name="lacute" unicode="&#x13a;" horiz-adv-x="242" 
d="M94 645l-83 1q0 22 1 32q17 2 49 7.5t57 10t28 4.5t3 -4q0 -23 -2 -281.5t-2 -378.5l84 -2q0 -23 -1 -33h-110q-17 0 -51 -0.5t-49 -0.5q0 22 1 33l71 3q3 0 3 4q2 393 1 605zM209 860q21 -26 32 -44q-134 -79 -160 -94q-11 12 -20 27q62 44 148 111z" />
    <glyph glyph-name="Lcommaaccent" unicode="&#x13b;" horiz-adv-x="513" 
d="M128 611l-78 3q-1 12 1 35h110h121q0 -12 -2 -36l-94 -2q-2 0 -2 -4l-3 -551q0 -13 6 -16.5t36 -3.5q150 0 182 6q12 4 18 21l37 106q17 -3 39 -10q-7 -31 -38 -160q-13 0 -117 0.5t-182 0.5q-21 0 -58.5 -0.5t-53.5 -0.5q0 25 1 36l74 3q3 0 3 4v569zM286 -47
q20 0 36.5 -20.5t16.5 -47.5q0 -79 -83 -130q-3 4 -9.5 13t-9.5 13q52 34 52 76q0 27 -38 39q-4 23 7.5 40t27.5 17z" />
    <glyph glyph-name="lcommaaccent" unicode="&#x13c;" horiz-adv-x="242" 
d="M94 645l-83 1q0 22 1 32q17 2 49 7.5t57 10t28 4.5t3 -4q0 -23 -2 -281.5t-2 -378.5l84 -2q0 -23 -1 -33h-110q-17 0 -51 -0.5t-49 -0.5q0 22 1 33l71 3q3 0 3 4q2 393 1 605zM125 -53q19 0 34.5 -18.5t15.5 -40.5q0 -71 -79 -116q-10 10 -18 23q50 30 50 67q0 23 -36 35
q-4 20 6.5 35t26.5 15z" />
    <glyph glyph-name="Lcaron" unicode="&#x13d;" horiz-adv-x="513" 
d="M128 611l-78 3q-1 12 1 35h110h121q0 -12 -2 -36l-94 -2q-2 0 -2 -4l-3 -551q0 -13 6 -16.5t36 -3.5q150 0 182 6q12 4 18 21l37 106q17 -3 39 -10q-12 -53 -38 -159h-299h-112q0 24 1 35l74 3q3 0 3 4v569zM364 651q20 0 36.5 -20.5t16.5 -47.5q0 -79 -83 -130
q-3 4 -9.5 13t-9.5 13q52 32 52 76q0 29 -38 38q-4 24 7.5 41t27.5 17z" />
    <glyph glyph-name="lcaron" unicode="&#x13e;" horiz-adv-x="275" 
d="M94 645l-83 1q0 22 1 32q17 2 49 7.5t57 10t28 4.5t3 -4q0 -23 -2 -281t-2 -379l84 -2q0 -23 -1 -33h-110q-17 0 -51 -0.5t-49 -0.5q0 22 1 33l71 3q3 0 3 4q2 393 1 605zM224 700q19 0 34.5 -18.5t15.5 -40.5q0 -70 -79 -115q-12 10 -18 22q50 30 50 67q0 11 -7 18.5
t-12.5 10t-17.5 6.5q-4 20 7 35t27 15z" />
    <glyph glyph-name="Lslash" unicode="&#x141;" horiz-adv-x="533" 
d="M147 611l-78 3q-1 12 1 35h111h120q0 -24 -1 -36l-95 -2q-2 0 -2 -3l-1 -261q12 7 65 36t90 49q9 -15 16 -37q-113 -58 -171 -91l-1 -248q0 -13 6 -16.5t36 -3.5q148 0 182 6q12 4 18 21l36 106q17 -3 40 -10q-12 -53 -38 -159h-300h-112q0 5 0.5 17t0.5 18l74 3q3 0 3 3
v234q-58 -32 -92 -51q-6 11 -17 33q41 22 109 60v294z" />
    <glyph glyph-name="lslash" unicode="&#x142;" horiz-adv-x="275" 
d="M38 33l72 3q2 0 2 4q1 84 1 275q-59 -28 -82 -39q-9 18 -14 33q81 39 96 47v289l-83 1q0 22 1 32q17 2 49 7.5t56.5 10t27.5 4.5t3 -4q-2 -172 -2 -313q75 37 91 45q7 -14 13 -36q-38 -20 -105 -52q0 -53 -0.5 -156t-0.5 -148l84 -3q0 -22 -1 -32h-109q-17 0 -51 -0.5
t-49 -0.5q0 22 1 33z" />
    <glyph glyph-name="Nacute" unicode="&#x143;" horiz-adv-x="716" 
d="M50 35l68 3q3 0 3 4l1 570l-78 2q0 14 2 36q20 0 64.5 -0.5t65.5 -0.5q210 -310 379 -570l5 2q-2 356 -4 531l-100 1q0 25 1 36h122q17 0 48.5 0.5t44.5 0.5v-11v-13.5v-10.5l-66 -3q-2 0 -2 -4l-3 -606q-18 -9 -33 -9q-169 236 -395 579h-6q0 -355 -1 -534l107 -2
q0 -24 -1 -35h-128q-17 0 -49.5 -0.5t-45.5 -0.5q0 24 1 35zM456 824q16 -18 32 -44q-22 -12 -50.5 -29t-61.5 -36.5t-48 -28.5q-16 20 -20 28q41 29 148 110z" />
    <glyph glyph-name="nacute" unicode="&#x144;" horiz-adv-x="544" 
d="M106 367l-81 1q0 12 2 30q14 3 43.5 9.5t51 11t24.5 4.5q2 0 2 -2q1 -10 5 -32t4 -28l5 -1q70 43 99.5 53.5t64.5 10.5q69 0 107 -66q18 -32 18 -70q0 -96 -2 -252l67 -3v-32q-15 0 -48 -0.5t-50 -0.5q-14 0 -44.5 -0.5t-43.5 -0.5v33l64 3q3 1 3 4q0 29 0.5 96t0.5 97
q0 81 -14 105q-24 43 -77 43q-30 0 -71.5 -19t-75.5 -46q-2 -160 -2 -279l79 -3q0 -22 -1 -33q-15 0 -52 0.5t-56 0.5q-15 0 -45 -0.5t-43 -0.5q0 5 0.5 16t0.5 17l63 3q3 0 3 3zM347 625q22 -17 36 -35q-43 -35 -141 -120q-9 9 -23 25q105 108 128 130z" />
    <glyph glyph-name="Ncommaaccent" unicode="&#x145;" horiz-adv-x="716" 
d="M50 35l68 3q3 0 3 4l1 570l-78 2q0 14 2 36q20 0 64.5 -0.5t65.5 -0.5q210 -310 379 -570l5 2q-2 356 -4 531l-100 1q0 25 1 36h122q17 0 48.5 0.5t44.5 0.5v-11v-13.5v-10.5l-66 -3q-2 0 -2 -4l-3 -606q-18 -9 -33 -9q-169 236 -395 579h-6q0 -355 -1 -534l107 -2
q0 -24 -1 -35h-128q-17 0 -49.5 -0.5t-45.5 -0.5q0 24 1 35zM364 -46q20 0 36.5 -20.5t16.5 -47.5q0 -79 -83 -130q-17 22 -19 26q52 32 52 76q0 28 -38 38q-4 24 7.5 41t27.5 17z" />
    <glyph glyph-name="ncommaaccent" unicode="&#x146;" horiz-adv-x="544" 
d="M106 367l-81 1q0 12 2 30q14 3 43.5 9.5t51 11t24.5 4.5q2 0 2 -2q1 -10 5 -32t4 -28l5 -1q70 43 99.5 53.5t64.5 10.5q69 0 107 -66q18 -32 18 -70q0 -96 -2 -252l67 -3v-32q-15 0 -48 -0.5t-50 -0.5q-14 0 -44.5 -0.5t-43.5 -0.5v33l64 3q3 1 3 4q0 29 0.5 96t0.5 97
q0 81 -14 105q-24 43 -77 43q-30 0 -71.5 -19t-75.5 -46q-2 -160 -2 -279l79 -3q0 -22 -1 -33q-15 0 -52 0.5t-56 0.5q-15 0 -45 -0.5t-43 -0.5q0 5 0.5 16t0.5 17l63 3q3 0 3 3zM272 -53q19 0 34.5 -18.5t15.5 -41.5q0 -70 -79 -115q-8 8 -18 22q50 31 50 68q0 24 -36 34
q-4 21 6.5 36t26.5 15z" />
    <glyph glyph-name="Ncaron" unicode="&#x147;" horiz-adv-x="716" 
d="M50 35l68 3q3 0 3 4l1 570l-78 2q0 14 2 36q20 0 64.5 -0.5t65.5 -0.5q210 -310 379 -570l5 2q-2 356 -4 531l-100 1q0 25 1 36h122q17 0 48.5 0.5t44.5 0.5v-11v-13.5v-10.5l-66 -3q-2 0 -2 -4l-3 -606q-18 -9 -33 -9q-169 236 -395 579h-6q0 -355 -1 -534l107 -2
q0 -24 -1 -35h-128q-17 0 -49.5 -0.5t-45.5 -0.5q0 24 1 35zM355 762q9 6 49 33t58 40q6 -5 22 -26q-42 -36 -113 -95h-10h-12.5h-9.5q-93 78 -112 93q6 8 22 26q12 -8 49 -33t57 -38z" />
    <glyph glyph-name="ncaron" unicode="&#x148;" horiz-adv-x="544" 
d="M106 367l-81 1q0 12 2 30q14 3 43.5 9.5t51 11t24.5 4.5q2 0 2 -2q1 -10 5 -32t4 -28l5 -1q70 43 99.5 53.5t64.5 10.5q69 0 107 -66q18 -32 18 -70q0 -96 -2 -252l67 -3v-32q-15 0 -48 -0.5t-50 -0.5q-14 0 -44.5 -0.5t-43.5 -0.5v33l64 3q3 1 3 4q0 29 0.5 96t0.5 97
q0 81 -14 105q-24 43 -77 43q-30 0 -71.5 -19t-75.5 -46q-2 -160 -2 -279l79 -3q0 -22 -1 -33q-15 0 -52 0.5t-56 0.5q-15 0 -45 -0.5t-43 -0.5q0 5 0.5 16t0.5 17l63 3q3 0 3 3zM273 528l90 90q11 -8 24 -22q-68 -81 -100 -118h-29q-4 5 -41.5 50.5t-57.5 68.5q10 11 23 21
q27 -26 91 -90z" />
    <glyph glyph-name="Omacron" unicode="&#x14c;" horiz-adv-x="713" 
d="M344 -10q-120 0 -204 84q-88 90 -88 246q0 91 38.5 166t97.5 117q82 57 186 57q96 0 166 -50q55 -40 88 -110t33 -154q0 -173 -105 -277q-81 -79 -212 -79zM357 30q104 0 167 68q79 89 79 228q0 151 -80 232q-63 62 -160 62q-91 0 -155 -55q-99 -82 -99 -240
q0 -145 80 -229q65 -66 168 -66zM469 778q2 -21 0 -41h-212q-2 19 0 39q36 1 106 1.5t106 0.5z" />
    <glyph glyph-name="omacron" unicode="&#x14d;" horiz-adv-x="493" 
d="M238 -10q-79 0 -131 47q-64 61 -64 163q0 112 82 180q53 44 129 44q75 0 121 -37q75 -59 75 -170q0 -117 -80 -184q-53 -43 -132 -43zM245 24q59 0 94 36q52 52 52 153q0 91 -47 138q-39 39 -96 39t-95 -37q-51 -51 -51 -148q0 -94 53 -146q37 -35 90 -35zM352 543v-41
q-27 0 -93 0.5t-97 0.5q-2 18 0 38q126 2 190 2z" />
    <glyph glyph-name="Ohungarumlaut" unicode="&#x150;" horiz-adv-x="713" 
d="M344 -10q-120 0 -204 84q-88 90 -88 246q0 91 38.5 166t97.5 117q82 57 186 57q96 0 166 -50q55 -40 88 -110t33 -154q0 -173 -105 -277q-81 -79 -212 -79zM357 30q104 0 167 68q79 89 79 228q0 151 -80 232q-63 62 -160 62q-91 0 -155 -55q-99 -82 -99 -240
q0 -145 80 -229q65 -66 168 -66zM401 852q12 -12 32 -38q-25 -17 -72 -51t-66 -47q-3 3 -9.5 12.5t-10.5 14.5q47 40 126 109zM510 848q8 -7 32 -36q-58 -42 -137 -100q-14 18 -20 26q70 62 125 110z" />
    <glyph glyph-name="ohungarumlaut" unicode="&#x151;" horiz-adv-x="493" 
d="M238 -10q-79 0 -131 47q-64 61 -64 163q0 112 82 180q53 44 129 44q75 0 121 -37q75 -59 75 -170q0 -117 -80 -184q-53 -43 -132 -43zM245 24q59 0 94 36q52 52 52 153q0 91 -47 138q-39 39 -96 39t-95 -37q-51 -51 -51 -148q0 -94 53 -146q37 -35 90 -35zM266 624
q15 -11 35 -33q-40 -36 -126 -112q-4 4 -12 12.5t-11 11.5q20 21 59.5 63t54.5 58zM382 621q20 -18 35 -33q-43 -38 -125 -114q-17 17 -24 25q70 74 114 122z" />
    <glyph glyph-name="OE" unicode="&#x152;" horiz-adv-x="978" 
d="M52 321q0 92 39 168t103 120q75 51 176 51q64 0 116 -26t78 -64v80q7 0 22.5 -0.5t21.5 -0.5q16 0 106.5 0.5t101.5 0.5h83q6 -90 8 -144q-19 -4 -40 -5l-16 88q-3 18 -26 19q-43 5 -171 5q-7 0 -20 -0.5t-15 -0.5l-1 -258q31 0 88 0.5t87 1.5q27 0 28 20l5 50q20 2 38 0
q-1 -15 -1.5 -46t-0.5 -46v-92h-39l-3 53q-1 13 -7 17t-22 4q-48 1 -173 1l-1 -261q0 -13 8.5 -16.5t48.5 -3.5q145 0 175 7q13 4 19 21l33 94q18 -3 39 -8q-22 -98 -35 -150h-286h-55v94q-71 -104 -221 -104q-119 0 -202 83q-89 89 -89 248zM109 329q0 -147 72 -223
q70 -76 173 -76q70 0 125.5 36.5t84.5 105.5v315q-55 133 -206 133q-95 0 -157 -59q-92 -86 -92 -232z" />
    <glyph glyph-name="oe" unicode="&#x153;" horiz-adv-x="774" 
d="M413 85h-4q-22 -42 -65 -68.5t-104 -26.5q-82 0 -131 46q-65 62 -65 163q0 116 81 180q55 45 134 45q58 0 99.5 -29.5t59.5 -73.5h4q24 48 67 75.5t98 27.5q74 0 113 -50q35 -43 35 -124q-16 -29 -29 -30q-101 -3 -262 -3q-3 -96 34 -140q22 -27 47.5 -36.5t63.5 -9.5
q51 0 130 34q5 -15 9 -35q-81 -40 -149 -40q-62 0 -104.5 25.5t-61.5 69.5zM248 24q55 0 89 34q29 30 40.5 64.5t11.5 87.5q0 91 -44 140q-37 39 -94 39q-62 0 -99 -40q-50 -53 -50 -140q0 -100 53 -150q37 -35 93 -35zM574 388q-44 0 -77 -31q-45 -49 -48 -103q152 0 217 3
q14 0 14 11q0 56 -31 89q-28 31 -75 31z" />
    <glyph glyph-name="Racute" unicode="&#x154;" horiz-adv-x="590" 
d="M127 612l-73 2q0 24 1 35q106 2 183 2q80 0 134 -16q48 -14 82.5 -55t34.5 -93q0 -64 -38.5 -111t-101.5 -70v-5q11 -4 20 -10.5t18 -17t15.5 -19t17 -26.5t16.5 -28.5t19.5 -35.5t20.5 -39q28 -54 40 -69.5t22 -15.5l65 -2q0 -25 -1 -37h-65q-17 -1 -48 -1
q-20 24 -70 120t-67 119q-20 27 -41.5 37t-63.5 10q-57 0 -67 -2v-244l93 -3q1 -12 -1 -37q-15 0 -55 0.5t-60 0.5q-19 0 -54 -0.5t-50 -0.5q0 25 1 36l68 4q5 0 5 3v569zM183 610l-2 -286q6 -2 62 -2q97 0 143 46.5t46 100.5q0 73 -49.5 109.5t-135.5 36.5q-54 0 -64 -5z
M376 840q16 -18 32 -44q-26 -15 -82.5 -48t-78.5 -46q-13 17 -19 27q62 44 148 111z" />
    <glyph glyph-name="racute" unicode="&#x155;" horiz-adv-x="352" 
d="M106 368l-77 2q0 19 1 29q17 3 46 9t51 11t24 5t2 -3q0 -9 0.5 -30t1 -52t0.5 -53h4q40 78 71.5 108.5t63.5 30.5q31 0 57 -10q0 -11 -8 -29.5t-15 -23.5q-31 7 -48 7q-15 0 -35 -17q-30 -24 -70 -101q-17 -32 -17 -93q-1 -41 -1 -123l97 -2q0 -22 -1 -32h-120
q-16 0 -47.5 -0.5t-45.5 -0.5q0 22 1 32l62 3q3 0 3 3v330zM271 625q19 -15 36 -35q-43 -35 -141 -120q-9 9 -23 25q16 16 61 62t67 68z" />
    <glyph glyph-name="Rcommaaccent" unicode="&#x156;" horiz-adv-x="590" 
d="M127 612l-73 2q0 24 1 35q106 2 183 2q80 0 134 -16q48 -14 82.5 -55t34.5 -93q0 -64 -38.5 -111t-101.5 -70v-5q11 -4 20 -10.5t18 -17t15.5 -19t17 -26.5t16.5 -28.5t19.5 -35.5t20.5 -39q28 -54 40 -69.5t22 -15.5l65 -2q0 -25 -1 -37h-65q-17 -1 -48 -1
q-20 24 -70 120t-67 119q-20 27 -41.5 37t-63.5 10q-57 0 -67 -2v-244l93 -3q1 -12 -1 -37q-15 0 -55 0.5t-60 0.5q-19 0 -54 -0.5t-50 -0.5q0 25 1 36l68 4q5 0 5 3v569zM183 610l-2 -286q6 -2 62 -2q97 0 143 46.5t46 100.5q0 73 -49.5 109.5t-135.5 36.5q-54 0 -64 -5z
M324 -46q20 0 36.5 -21t16.5 -47q0 -81 -83 -130q-18 23 -19 26q52 32 52 76q0 17 -10.5 25t-27.5 13q-4 24 7.5 41t27.5 17z" />
    <glyph glyph-name="rcommaaccent" unicode="&#x157;" horiz-adv-x="352" 
d="M106 368l-77 2q0 19 1 29q17 3 46 9t51 11t24 5t2 -3q0 -9 0.5 -30t1 -52t0.5 -53h4q40 78 71.5 108.5t63.5 30.5q31 0 57 -10q0 -11 -8 -29.5t-15 -23.5q-31 7 -48 7q-15 0 -35 -17q-30 -24 -70 -101q-17 -32 -17 -93q-1 -41 -1 -123l97 -2q0 -22 -1 -32h-120
q-16 0 -47.5 -0.5t-45.5 -0.5q0 22 1 32l62 3q3 0 3 3v330zM151 -53q19 0 34.5 -18.5t15.5 -40.5q0 -71 -79 -116q-10 10 -18 23q50 30 50 67q0 23 -36 35q-4 20 6.5 35t26.5 15z" />
    <glyph glyph-name="Rcaron" unicode="&#x158;" horiz-adv-x="590" 
d="M127 612l-73 2q0 24 1 35q106 2 183 2q80 0 134 -16q48 -14 82.5 -55t34.5 -93q0 -64 -38.5 -111t-101.5 -70v-5q11 -4 20 -10.5t18 -17t15.5 -19t17 -26.5t16.5 -28.5t19.5 -35.5t20.5 -39q28 -54 40 -69.5t22 -15.5l65 -2q0 -25 -1 -37h-65q-17 -1 -48 -1
q-20 24 -70 120t-67 119q-20 27 -41.5 37t-63.5 10q-57 0 -67 -2v-244l93 -3q1 -12 -1 -37q-15 0 -55 0.5t-60 0.5q-19 0 -54 -0.5t-50 -0.5q0 25 1 36l68 4q5 0 5 3v569zM183 610l-2 -286q6 -2 62 -2q97 0 143 46.5t46 100.5q0 73 -49.5 109.5t-135.5 36.5q-54 0 -64 -5z
M271 763q45 30 107 72q9 -7 23 -25q-19 -15 -58 -48.5t-56 -47.5q-22 0 -32 1q-15 12 -53 43.5t-59 48.5q14 18 22 26q18 -11 56 -36.5t50 -33.5z" />
    <glyph glyph-name="rcaron" unicode="&#x159;" horiz-adv-x="352" 
d="M106 368l-77 2q0 19 1 29q17 3 46 9t51 11t24 5t2 -3q0 -9 0.5 -30t1 -52t0.5 -53h4q40 78 71.5 108.5t63.5 30.5q31 0 57 -10q0 -11 -8 -29.5t-15 -23.5q-31 7 -48 7q-15 0 -35 -17q-30 -24 -70 -101q-17 -32 -17 -93q-1 -41 -1 -123l97 -2q0 -22 -1 -32h-120
q-16 0 -47.5 -0.5t-45.5 -0.5q0 22 1 32l62 3q3 0 3 3v330zM195 528l90 90q11 -8 24 -22q-68 -81 -100 -118q-14 -2 -29 0q-5 5 -42 50.5t-57 68.5q10 11 23 21q27 -26 91 -90z" />
    <glyph glyph-name="Sacute" unicode="&#x15a;" horiz-adv-x="479" 
d="M87 170l15 -106q1 -8 8 -12q37 -24 101 -24q87 0 126 45q34 37 34 87q0 33 -7 55t-28.5 40.5t-38.5 28t-60 29.5q-14 7 -21 10q-71 34 -107 71.5t-36 95.5q0 37 18 72t46 56q56 42 148 42q80 0 120 -24q3 -29 10 -137q-28 -4 -42 -5l-16 93q-3 12 -7 14q-24 21 -81 21
q-64 0 -103 -33q-41 -36 -41 -91q0 -52 27.5 -77t115.5 -66q81 -38 118 -76t37 -101q0 -81 -54 -133q-58 -55 -170 -55q-86 0 -145 24q-2 29 -10 151q26 4 43 5zM359 850q17 -21 31 -44q-28 -17 -89.5 -53t-70.5 -41q-13 17 -19 27q58 43 148 111z" />
    <glyph glyph-name="sacute" unicode="&#x15b;" horiz-adv-x="389" 
d="M79 127l13 -67q3 -9 9 -13q28 -22 72 -22q57 0 86 19q30 22 30 62q0 37 -20.5 52t-82.5 34q-13 4 -20 6q-58 18 -82 42t-24 64q0 60 56 95q44 25 112 25q62 0 92 -19q1 -16 4.5 -51t5.5 -53q-6 0 -19.5 -2t-20.5 -3l-13 66q-3 9 -8 11q-21 16 -64 16q-41 0 -69 -21
q-27 -22 -27 -58q0 -33 18 -45.5t83 -32.5q66 -19 97.5 -42.5t31.5 -75.5q0 -62 -57 -100q-38 -24 -113 -24t-117 20q-3 32 -14 110q9 2 41 7zM286 625q19 -15 36 -35q-43 -35 -141 -120q-9 9 -23 25q21 21 65 66t63 64z" />
    <glyph glyph-name="Scedilla" unicode="&#x15e;" horiz-adv-x="479" 
d="M153 -74l63 64h-16q-87 0 -146 24q-2 29 -10 151q26 4 43 5l15 -106q1 -8 8 -13q37 -24 101 -24q86 0 126 45q34 37 34 88q0 14 -2 26.5t-4 22.5t-8.5 20t-10 16t-15 14.5t-16 12.5t-21 12.5t-22.5 11.5t-27 13t-29 14q-71 34 -107 71.5t-36 95.5q0 37 18 72t46 56
q58 42 148 42q80 0 120 -24q3 -29 10 -137q-28 -4 -42 -5l-16 93q-1 10 -7 14q-24 21 -81 21q-64 0 -103 -33q-41 -36 -41 -91q0 -52 27.5 -77t115.5 -66q81 -38 118 -76t37 -101q0 -82 -54 -133q-41 -38 -99 -49l-57 -59q33 -6 49 -23.5t16 -40.5q0 -37 -35 -60t-95 -24
q-4 19 -5 31q81 2 81 47q0 17 -13 28t-51 11q-2 4 -7 20z" />
    <glyph glyph-name="scedilla" unicode="&#x15f;" horiz-adv-x="389" 
d="M112 -73l61 63h-16q-60 1 -105 20q-8 71 -14 110q9 2 41 7l13 -67q3 -9 9 -13q28 -22 72 -22q57 0 86 19q30 22 30 62q0 37 -20.5 52t-82.5 34q-13 4 -20 6q-58 18 -82 42t-24 64q0 60 56 95q44 25 112 25q62 0 92 -19q1 -16 4.5 -51t5.5 -53q-6 0 -19.5 -2t-20.5 -3
l-13 66q-3 9 -8 11q-21 16 -64 16q-41 0 -69 -21q-27 -22 -27 -58q0 -32 18 -45t83 -33q66 -19 97.5 -42.5t31.5 -75.5q0 -62 -57 -99q-22 -15 -64 -22l-52 -57q26 -4 39.5 -20.5t13.5 -38.5q0 -34 -32 -55t-80 -22q-2 8 -4 28q69 5 69 43q0 19 -13 28q-12 9 -40 11
q-4 8 -7 17z" />
    <glyph glyph-name="Scaron" unicode="&#x160;" horiz-adv-x="479" 
d="M87 170l15 -106q1 -8 8 -12q37 -24 101 -24q87 0 126 45q34 37 34 87q0 33 -7 55t-28.5 40.5t-38.5 28t-60 29.5q-14 7 -21 10q-71 34 -107 71.5t-36 95.5q0 37 18 72t46 56q56 42 148 42q80 0 120 -24q3 -29 10 -137q-28 -4 -42 -5l-16 93q-3 12 -7 14q-24 21 -81 21
q-64 0 -103 -33q-41 -36 -41 -91q0 -52 27.5 -77t115.5 -66q81 -38 118 -76t37 -101q0 -81 -54 -133q-58 -55 -170 -55q-86 0 -145 24q-2 29 -10 151q26 4 43 5zM266 763q20 14 58 39.5t49 32.5q13 -11 22 -25q-94 -80 -113 -96q-22 0 -32 1q-43 37 -111 92q12 17 21 26
q18 -11 56 -36.5t50 -33.5z" />
    <glyph glyph-name="scaron" unicode="&#x161;" horiz-adv-x="389" 
d="M79 127l13 -67q3 -9 9 -13q28 -22 72 -22q57 0 86 19q30 22 30 62q0 37 -20.5 52t-82.5 34q-13 4 -20 6q-58 18 -82 42t-24 64q0 60 56 95q44 25 112 25q62 0 92 -19q1 -16 4.5 -51t5.5 -53q-6 0 -19.5 -2t-20.5 -3l-13 66q-3 9 -8 11q-21 16 -64 16q-41 0 -69 -21
q-27 -22 -27 -58q0 -33 18 -45.5t83 -32.5q66 -19 97.5 -42.5t31.5 -75.5q0 -62 -57 -100q-38 -24 -113 -24t-117 20q-3 32 -14 110q9 2 41 7zM203 528l46.5 46.5t44.5 43.5q11 -8 23 -22q-62 -74 -99 -118q-14 -2 -30 0q-5 5 -42 50.5t-57 68.5q10 11 23 21q60 -57 91 -90z
" />
    <glyph glyph-name="Tcommaaccent" unicode="&#x162;" horiz-adv-x="553" 
d="M162 36l85 3q4 0 4 3v569q-122 0 -148 -3q-23 -1 -26 -19l-15 -96q-5 0 -13.5 1t-15.5 1.5t-13 0.5q2 23 3.5 48.5t3 57t2.5 48.5q7 0 37 -0.5t54 -0.5h163q17 0 85.5 0.5t78.5 0.5q23 0 49 0.5t35 0.5q4 -49 8 -153q-22 -4 -42 -5l-15 97q-3 18 -26 19q-31 2 -149 2
l-2 -572l97 -3q0 -24 -1 -36q-16 0 -57 0.5t-61 0.5q-19 0 -60.5 -0.5t-61.5 -0.5q0 24 1 36zM276 -51q20 0 36.5 -20.5t16.5 -46.5q0 -81 -83 -130q-3 4 -9.5 12.5t-9.5 12.5q52 34 52 76q0 18 -10.5 26t-27.5 13q-4 24 7.5 40.5t27.5 16.5z" />
    <glyph glyph-name="tcommaaccent" unicode="&#x163;" horiz-adv-x="339" 
d="M203 -9q-49 0 -77 25q-17 15 -21 31t-4 46q0 28 0.5 91.5t0.5 74.5q0 18 0.5 58t0.5 54h-69q0 16 2 38q42 2 63 2q5 0 7 7q0 64 2 94q39 29 49 29q2 0 2 -3q0 -18 -1 -60.5t-1 -65.5q107 0 158 1q0 -5 -3 -41h-157v-120q-1 -42 -1 -156q0 -33 19.5 -49.5t50.5 -16.5
q36 0 92 16q4 -14 6 -33q-64 -22 -119 -22zM189 -58q19 0 34.5 -18.5t15.5 -41.5q0 -70 -79 -115q-8 8 -18 22q50 31 50 68q0 24 -36 34q-4 21 6.5 36t26.5 15z" />
    <glyph glyph-name="Tcaron" unicode="&#x164;" horiz-adv-x="553" 
d="M162 36l85 3q4 0 4 3v569q-122 0 -148 -3q-23 -1 -26 -19l-15 -96q-5 0 -13.5 1t-15.5 1.5t-13 0.5q2 23 3.5 48.5t3 57t2.5 48.5q7 0 37 -0.5t54 -0.5h163q17 0 85.5 0.5t78.5 0.5q23 0 49 0.5t35 0.5q4 -49 8 -153q-22 -4 -42 -5l-15 97q-3 18 -26 19q-31 2 -149 2
l-2 -572l97 -3q0 -24 -1 -36q-16 0 -57 0.5t-61 0.5q-19 0 -60.5 -0.5t-61.5 -0.5q0 24 1 36zM283 762q20 14 58 39.5t49 32.5q13 -11 22 -25q-94 -80 -113 -96q-22 0 -32 1q-82 68 -112 92q16 20 22 26q18 -11 56 -36.5t50 -33.5z" />
    <glyph glyph-name="tcaron" unicode="&#x165;" horiz-adv-x="339" 
d="M203 -9q-49 0 -77 25q-17 15 -21 31t-4 46q0 28 0.5 91.5t0.5 74.5q0 18 0.5 58t0.5 54h-69q0 16 2 38q42 2 63 2q5 0 7 7q0 64 2 94q39 29 49 29q2 0 2 -3q0 -18 -1 -60.5t-1 -65.5q107 0 158 1q0 -5 -3 -41h-157v-120q-1 -42 -1 -156q0 -33 19.5 -49.5t50.5 -16.5
q36 0 92 16q4 -14 6 -33q-64 -22 -119 -22zM250 622q19 0 34.5 -18t15.5 -41q0 -71 -79 -114q-9 8 -18 22q50 30 50 67q0 11 -7 18.5t-12 9.5t-17 6q-4 21 6.5 35.5t26.5 14.5z" />
    <glyph glyph-name="Umacron" unicode="&#x16a;" horiz-adv-x="666" 
d="M163 611l-1 -337q-1 -75 9.5 -114.5t33.5 -70.5q44 -59 130 -59q34 0 60.5 8.5t39 17.5t27.5 24q53 51 53 183v103.5v131.5v108q0 4 -4 4l-87 2q0 25 1 36q15 0 52.5 0.5t58.5 0.5q18 0 51.5 0.5t47.5 0.5q0 -24 -1 -37l-68 -3l-2 -352q-1 -137 -69 -207
q-57 -61 -159 -61q-106 0 -162 57q-40 39 -52.5 88t-12.5 129v342q0 5 -5 5l-66 2q0 7 0.5 19t0.5 17h99q22 0 62 0.5t59 0.5q0 -24 -1 -36zM443 778q2 -20 0 -41h-212q-2 19 0 39q36 0 106 1t106 1z" />
    <glyph glyph-name="umacron" unicode="&#x16b;" horiz-adv-x="517" 
d="M371 44l-5 1q-63 -37 -90 -46t-61 -9q-51 0 -89 41.5t-38 94.5q0 47 0.5 130.5t0.5 118.5l-65 1q0 24 1 34q13 0 41 1t49 2t26 1q3 0 3 -3q-3 -117 -3 -241v-7q0 -66 16 -92q25 -40 77 -40q58 0 135 58v89v111.5v85.5l-68 2q0 24 1 35q72 2 119 2q2 0 2 -3q0 -57 -1 -179
t-1 -182q0 -17 8 -17l70 1v-30q-49 -14 -100 -14q-15 17 -28 54zM364 543v-41q-27 0 -93.5 0.5t-97.5 0.5q-2 18 0 38q128 2 191 2z" />
    <glyph glyph-name="Uring" unicode="&#x16e;" horiz-adv-x="666" 
d="M163 611l-1 -337q-1 -75 9.5 -114.5t33.5 -70.5q44 -59 130 -59q34 0 60.5 8.5t39 17.5t27.5 24q53 51 53 183v103.5v131.5v108q0 4 -4 4l-88 2q0 14 2 36q16 0 53 0.5t58 0.5q18 0 51.5 0.5t47.5 0.5q0 -24 -1 -37l-68 -3l-2 -352q-1 -137 -69 -207q-57 -61 -159 -61
q-106 0 -162 57q-40 39 -52.5 88t-12.5 129v342q0 5 -5 5l-66 2q0 7 0.5 19t0.5 17h99q22 0 62 0.5t59 0.5q0 -24 -2 -36zM341 860q40 0 64 -22.5t24 -55.5q0 -34 -25 -57.5t-64 -23.5t-64.5 21.5t-25.5 57.5q0 31 25.5 55.5t65.5 24.5zM339 827q-21 0 -33.5 -14t-12.5 -33
q0 -20 13 -32.5t34 -12.5q22 0 34 13t12 33t-12 33t-35 13z" />
    <glyph glyph-name="uring" unicode="&#x16f;" horiz-adv-x="517" 
d="M371 44l-5 1q-63 -37 -90 -46t-61 -9q-51 0 -89 41.5t-38 94.5q0 47 0.5 130.5t0.5 118.5l-65 1q0 24 1 34q13 0 41 1t49 2t26 1q3 0 3 -3q-3 -117 -3 -241v-7q0 -66 16 -92q25 -40 77 -40q58 0 135 58v89v111.5v85.5l-69 2q0 5 1 17t1 18q72 2 119 2q2 0 2 -3
q0 -57 -1 -179t-1 -182q0 -17 8 -17l70 1v-30q-49 -14 -100 -14q-15 17 -28 54zM244 640q39 0 62 -23t23 -56q0 -34 -24.5 -58t-62.5 -24q-37 0 -62.5 22.5t-25.5 57.5q0 31 25.5 56t64.5 25zM242 608q-21 0 -34.5 -15t-13.5 -34q0 -21 14 -34.5t35 -13.5q23 0 34.5 14.5
t11.5 34.5t-12 34t-35 14z" />
    <glyph glyph-name="Uhungarumlaut" unicode="&#x170;" horiz-adv-x="666" 
d="M163 611l-1 -337q-1 -75 9.5 -114.5t33.5 -70.5q44 -59 130 -59q34 0 60.5 8.5t39 17.5t27.5 24q53 51 53 183v103.5v131.5v108q0 4 -4 4l-88 2q0 14 2 36q16 0 53 0.5t58 0.5q18 0 51.5 0.5t47.5 0.5q0 -24 -1 -37l-68 -3l-2 -352q-1 -137 -69 -207q-57 -61 -159 -61
q-106 0 -162 57q-40 39 -52.5 88t-12.5 129v342q0 5 -5 5l-66 2q0 7 0.5 19t0.5 17h99q22 0 62 0.5t59 0.5q0 -24 -2 -36zM379 851q18 -18 32 -38q-125 -88 -138 -97q-4 4 -10.5 13t-9.5 13q24 21 69 60t57 49zM489 847q16 -15 31 -36q-60 -43 -137 -100q-4 5 -11 15t-9 12
q17 14 39 33.5t48.5 42.5t38.5 33z" />
    <glyph glyph-name="uhungarumlaut" unicode="&#x171;" horiz-adv-x="517" 
d="M371 44l-5 1q-63 -37 -90 -46t-61 -9q-51 0 -89 41.5t-38 94.5q0 47 0.5 130.5t0.5 118.5l-65 1q0 24 1 34q13 0 41 1t49 2t26 1q3 0 3 -3q-3 -117 -3 -241v-7q0 -66 16 -92q25 -40 77 -40q58 0 135 58v89v111.5v85.5l-69 2q0 5 1 17t1 18q72 2 119 2q2 0 2 -3
q0 -57 -1 -179t-1 -182q0 -17 8 -17l70 1v-30q-49 -14 -100 -14q-15 17 -28 54zM267 624q15 -11 35 -33q-40 -36 -126 -112q-16 16 -23 24q20 21 59.5 63t54.5 58zM383 621q20 -18 35 -33q-87 -79 -125 -114q-5 5 -13 13.5t-10 10.5q17 19 56.5 61.5t56.5 61.5z" />
    <glyph glyph-name="Uogonek" unicode="&#x172;" horiz-adv-x="666" 
d="M261 -124q0 58 70 115q-105 4 -157 56q-40 40 -52.5 89t-12.5 129v341q0 6 -5 6l-66 2q0 6 0.5 18t0.5 17h99q22 0 62 0.5t59 0.5q0 -24 -2 -36l-94 -3l-1 -337q-1 -75 9.5 -114.5t33.5 -70.5q43 -58 130 -58q80 0 127 49q53 51 53 184v343q0 4 -4 4l-87 2q0 25 1 36h111
q18 0 51.5 0.5t47.5 0.5q0 -24 -1 -36l-68 -3l-2 -353q-1 -137 -69 -207q-34 -36 -109 -59q-27 -9 -50 -41t-23 -62q0 -23 12.5 -36t32.5 -13q21 0 40 8q6 -13 9 -29q-28 -18 -65 -18q-32 0 -56.5 20.5t-24.5 54.5z" />
    <glyph glyph-name="uogonek" unicode="&#x173;" horiz-adv-x="517" 
d="M368 -105q0 48 57 96q-9 -1 -26 -1q-15 17 -28 54l-5 1q-63 -37 -90 -46t-61 -9q-51 0 -89 41.5t-38 94.5q0 47 0.5 130.5t0.5 118.5l-65 1q0 24 1 34q16 0 57.5 2t58.5 2q3 0 3 -3q-3 -117 -3 -241v-7q0 -66 16 -92q25 -40 77 -40q58 0 135 58v89v111.5v85.5l-69 2
q0 5 1 17t1 18q86 2 119 2q2 0 2 -3q0 -57 -1 -179t-1 -182q0 -17 8 -17l70 1v-30q-2 -1 -7.5 -1.5t-12.5 -2t-14 -5.5q-50 -31 -50 -88q0 -21 11 -32.5t30 -11.5q20 0 36 7q6 -15 8 -27q-27 -16 -59 -16q-29 0 -51 18.5t-22 49.5z" />
    <glyph glyph-name="Ydieresis" unicode="&#x178;" horiz-adv-x="545" 
d="M162 36l83 2q6 2 6 6v209q-107 194 -201 356q-3 3 -5 3l-55 3q0 24 1 36q13 0 43.5 -0.5t46.5 -0.5q25 0 68 0.5t63 0.5q0 -24 -1 -36l-98 -3q117 -219 168 -313h5q95 172 161 309q2 4 -2 4l-89 3q0 24 1 35h118q13 0 43 0.5t42 0.5q0 -24 -1 -35l-52 -4
q-20 -33 -202 -357l-1 -216l97 -3q0 -13 -2 -35h-118q-20 0 -60.5 -0.5t-59.5 -0.5q0 24 1 36zM222 798q19 0 27.5 -13t8.5 -28q0 -13 -10 -24.5t-26 -11.5q-18 0 -28.5 10.5t-10.5 27.5q0 15 10 27t29 12zM381 798q18 0 27 -12t9 -27q0 -16 -10 -27t-25 -11
q-19 0 -29.5 11.5t-10.5 24.5q0 15 9 28t30 13z" />
    <glyph glyph-name="Zacute" unicode="&#x179;" horiz-adv-x="577" 
d="M102 44l1 -4h102h89.5t61 0.5t55 2.5t32.5 5q18 6 26 26l33 107q20 -3 43 -8q-21 -98 -41 -174q-4 0 -55 0.5t-116.5 0.5h-105.5h-182q-3 6 -7 16.5t-7 15.5q33 41 93.5 120.5t107.5 143.5t126 171.5t101 137.5l-2 5q-48 0 -114.5 0.5t-85.5 0.5q-72 0 -103 -3
q-14 -2 -21 -25l-31 -107l-42 6q7 40 30 169q7 0 20.5 -0.5t33 -1t33.5 -0.5h336q8 -15 14 -36q-301 -410 -425 -569zM349 839q17 -21 31 -44q-92 -55 -160 -94q-13 17 -19 27q32 23 148 111z" />
    <glyph glyph-name="zacute" unicode="&#x17a;" horiz-adv-x="424" 
d="M96 39l1 -4q162 0 205 4q25 4 30 21l28 79q19 -3 40 -8q-10 -44 -32 -132q-3 0 -18.5 0.5t-43 0.5h-60.5h-114h-89q-7 16 -11 29q23 28 86 103.5t115 138.5t82 102l-1 5q-96 0 -176 -2q-23 0 -28 -15l-25 -80q-24 4 -41 9q5 23 14.5 64.5t13.5 59.5q4 0 34 -0.5t54 -0.5
q110 -2 210 0q2 -4 4 -9.5t4.5 -12.5t3.5 -11q-238 -286 -286 -341zM282 624q22 -17 36 -35q-43 -35 -141 -120q-22 25 -23 26q21 21 65 65.5t63 63.5z" />
    <glyph glyph-name="Zdotaccent" unicode="&#x17b;" horiz-adv-x="577" 
d="M101 44l1 -4h102h89.5t61 0.5t55 2.5t32.5 5q20 6 26 26l33 107q20 -3 43 -8q-21 -98 -41 -174q-4 0 -55 0.5t-116.5 0.5h-105.5h-182q-3 6 -7 16.5t-7 15.5q33 41 93 120t109 145t124.5 169.5t101.5 138.5l-2 5q-48 0 -114 0.5t-85 0.5q-73 0 -104 -3q-14 -2 -21 -25
l-31 -107q-5 1 -13.5 2t-15.5 2t-13 2q5 27 15 84.5t15 84.5q9 -1 40.5 -1.5t46.5 -0.5h336q8 -15 14 -36q-316 -431 -425 -569zM309 810q21 0 30.5 -13.5t9.5 -30.5q0 -14 -11 -26.5t-29 -12.5q-19 0 -30.5 11.5t-11.5 29.5q0 16 10.5 29t31.5 13z" />
    <glyph glyph-name="zdotaccent" unicode="&#x17c;" horiz-adv-x="424" 
d="M96 39l1 -4q161 0 205 4q24 4 30 21l27 79q19 -3 41 -8l-33 -132q-3 0 -18.5 0.5t-43 0.5h-59.5h-115h-88q-7 16 -11 29q270 328 282 344l-1 5q-95 0 -175 -2q-23 0 -28 -15l-25 -80q-23 3 -42 9q4 17 13.5 59t15.5 65q4 0 34 -0.5t54 -0.5q108 -2 210 0q6 -16 11 -33
q-135 -166 -285 -341zM214 577q39 0 39 -44q0 -14 -11 -26.5t-28 -12.5q-18 0 -30 12t-12 29q0 16 10.5 29t31.5 13z" />
    <glyph glyph-name="Zcaron" unicode="&#x17d;" horiz-adv-x="577" 
d="M102 44l1 -4h102h89.5t61 0.5t55 2.5t32.5 5q18 6 26 26l33 107q20 -3 43 -8q-21 -98 -41 -174q-4 0 -55 0.5t-116.5 0.5h-105.5h-182q-3 6 -7 16.5t-7 15.5q33 41 93.5 120.5t107.5 143.5t126 171.5t101 137.5l-2 5q-48 0 -114.5 0.5t-85.5 0.5q-72 0 -103 -3
q-14 -2 -21 -25l-31 -107l-42 6q7 40 30 169q7 0 20.5 -0.5t33 -1t33.5 -0.5h336q8 -15 14 -36q-301 -410 -425 -569zM307 761q14 10 107 73q1 0 22 -25q-94 -80 -113 -96q-22 0 -32 1q-15 12 -53 44t-59 48q14 18 22 26q12 -8 49 -33t57 -38z" />
    <glyph glyph-name="zcaron" unicode="&#x17e;" horiz-adv-x="424" 
d="M96 39l1 -4q162 0 205 4q25 4 30 21l28 79q19 -3 40 -8q-10 -44 -32 -132q-3 0 -18.5 0.5t-43 0.5h-60.5h-114h-89q-7 16 -11 29q23 28 86 103.5t115 138.5t82 102l-1 5q-96 0 -176 -2q-23 0 -28 -15l-25 -80q-24 4 -41 9q5 23 14.5 64.5t13.5 59.5q4 0 34 -0.5t54 -0.5
q110 -2 210 0q2 -4 4 -9.5t4.5 -12.5t3.5 -11q-238 -286 -286 -341zM214 528q13 12 29 28.5t34.5 35l26.5 26.5q11 -8 24 -22q-84 -101 -100 -119h-29q-11 13 -45.5 55.5t-53.5 64.5q10 11 23 21l45 -45t46 -45z" />
    <glyph glyph-name="florin" unicode="&#x192;" horiz-adv-x="513" 
d="M434 655q38 0 58 -12q0 -6 -8.5 -23.5t-15.5 -24.5q-36 12 -80 12q-51 0 -81 -35q-26 -29 -37.5 -72.5t-15.5 -139.5q29 0 93.5 0.5t101.5 0.5q0 -27 -2 -38q-138 0 -195 -1q-9 -213 -17 -280q-9 -81 -67.5 -133t-125.5 -52q-28 0 -50 8q2 23 23 48q37 -8 59 -8
q39 0 73.5 35t40.5 106q9 104 13 276h-121q0 13 2 37q20 0 58 0.5t58 0.5q4 0 4 7q4 97 16.5 137.5t52.5 81.5q65 69 163 69z" />
    <glyph glyph-name="Scommaaccent" unicode="&#x218;" horiz-adv-x="479" 
d="M87 170l15 -106q1 -8 8 -12q37 -24 101 -24q87 0 126 45q34 37 34 87q0 33 -7 55t-28.5 40.5t-38.5 28t-60 29.5q-14 7 -21 10q-71 34 -107 71.5t-36 95.5q0 37 18 72t46 56q56 42 148 42q80 0 120 -24q3 -29 10 -137q-28 -4 -42 -5l-16 93q-3 12 -7 14q-24 21 -81 21
q-64 0 -103 -33q-41 -36 -41 -91q0 -52 27.5 -77t115.5 -66q82 -39 118.5 -76.5t36.5 -100.5q0 -81 -54 -133q-58 -55 -170 -55q-86 0 -145 24q-2 29 -10 151q26 4 43 5zM239 -53q20 0 36.5 -20.5t16.5 -47.5q0 -79 -83 -130q-16 22 -19 26q52 34 52 76q0 27 -38 39
q-4 23 7.5 40t27.5 17z" />
    <glyph glyph-name="scommaaccent" unicode="&#x219;" horiz-adv-x="389" 
d="M79 127l13 -67q3 -9 9 -13q28 -22 72 -22q57 0 86 19q30 22 30 62q0 37 -20.5 52t-82.5 34q-13 4 -20 6q-58 18 -82 42t-24 64q0 60 56 95q44 25 112 25q62 0 92 -19q1 -16 4.5 -51t5.5 -53q-6 0 -19.5 -2t-20.5 -3l-13 66q-3 9 -8 11q-21 16 -64 16q-41 0 -69 -21
q-27 -22 -27 -58q0 -33 18 -45.5t83 -32.5q66 -19 97.5 -42.5t31.5 -75.5q0 -62 -57 -100q-38 -24 -113 -24q-73 0 -117 20q-3 32 -14 110q9 2 41 7zM195 -54q19 0 34.5 -18.5t15.5 -40.5q0 -71 -79 -116q-10 10 -18 23q50 30 50 67q0 11 -7 19t-12.5 10l-16.5 6
q-4 20 6.5 35t26.5 15z" />
    <glyph glyph-name="uni021A" unicode="&#x21a;" horiz-adv-x="553" 
d="M162 36l85 3q4 0 4 3v569q-122 0 -148 -3q-23 -1 -26 -19l-15 -96q-35 3 -41 3q1 25 3.5 77t4.5 77q7 0 37.5 -0.5t53.5 -0.5h163q17 0 85.5 0.5t78.5 0.5q23 0 49 0.5t35 0.5q4 -49 8 -153q-22 -4 -42 -5l-15 97q-1 18 -26 19q-31 2 -149 2l-2 -572l97 -3q0 -24 -1 -36
q-16 0 -57 0.5t-61 0.5q-19 0 -60.5 -0.5t-61.5 -0.5q0 24 1 36zM276 -51q20 0 36.5 -20.5t16.5 -46.5q0 -81 -83 -130q-1 1 -8.5 10.5t-10.5 14.5q52 34 52 76q0 18 -10.5 26t-27.5 13q-4 24 7.5 40.5t27.5 16.5z" />
    <glyph glyph-name="uni021B" unicode="&#x21b;" horiz-adv-x="339" 
d="M203 -9q-49 0 -77 25q-17 15 -21 31t-4 46q0 28 0.5 91.5t0.5 75.5q0 18 0.5 58t0.5 54h-69q0 16 2 38q11 0 32 1t31 1q5 0 7 6q0 64 2 94q39 29 49 29q2 0 2 -3q0 -18 -1 -60.5t-1 -66.5q26 0 79.5 0.5t78.5 0.5q0 -5 -3 -41h-157v-120q-1 -41 -1 -155q0 -33 19.5 -49.5
t50.5 -16.5q36 0 92 16q4 -14 6 -33q-64 -22 -119 -22zM189 -58q19 0 34.5 -18.5t15.5 -41.5q0 -70 -79 -115q-8 8 -18 22q50 31 50 68q0 25 -37 34q-4 21 7 36t27 15z" />
    <glyph glyph-name="circumflex" unicode="&#x2c6;" horiz-adv-x="300" 
d="M151 554l-45 -45t-46 -45q-14 10 -24 21q12 14 32.5 39t37.5 44.5t31 35.5h29q11 -13 46.5 -55.5t52.5 -62.5q-8 -8 -24 -22q-12 11 -27 26.5t-34.5 35z" />
    <glyph glyph-name="caron" unicode="&#x2c7;" horiz-adv-x="300" 
d="M151 528l29 29t34 34.5t27 26.5q14 -10 24 -22q-17 -20 -53.5 -63.5t-46.5 -55.5h-29l-100 120q10 12 24 21q13 -13 45.5 -45t45.5 -45z" />
    <glyph glyph-name="uni02C9" unicode="&#x2c9;" horiz-adv-x="300" 
d="M245 543v-41q-27 0 -93 0.5t-97 0.5q-2 18 0 38q126 2 190 2z" />
    <glyph glyph-name="breve" unicode="&#x2d8;" horiz-adv-x="300" 
d="M148 481q-40 0 -69 26t-39 64q12 6 32 12q17 -29 34.5 -43t44.5 -14q48 0 76 52q21 -4 34 -9q-8 -30 -39.5 -59t-73.5 -29z" />
    <glyph glyph-name="dotaccent" unicode="&#x2d9;" horiz-adv-x="300" 
d="M152 580q39 0 39 -44q0 -14 -11 -26.5t-28 -12.5q-18 0 -30 11.5t-12 29.5q0 16 10.5 29t31.5 13z" />
    <glyph glyph-name="ring" unicode="&#x2da;" horiz-adv-x="300" 
d="M153 640q39 0 62 -23t23 -56q0 -34 -24.5 -58t-62.5 -24q-37 0 -62.5 22.5t-25.5 57.5q0 31 25.5 56t64.5 25zM151 608q-21 0 -34.5 -15t-13.5 -34q0 -21 13.5 -34.5t35.5 -13.5q23 0 34.5 14.5t11.5 34.5t-12 34t-35 14z" />
    <glyph glyph-name="ogonek" unicode="&#x2db;" horiz-adv-x="300" 
d="M196 -104q0 54 68 108h40q-61 -46 -61 -96q0 -21 11 -32.5t30 -11.5q20 0 36 7q6 -15 8 -27q-27 -16 -59 -16q-29 0 -51 18.5t-22 49.5z" />
    <glyph glyph-name="tilde" unicode="&#x2dc;" horiz-adv-x="300" 
d="M100 583q26 0 62 -30q4 -3 11 -8.5t10.5 -8t10 -5t12.5 -2.5q15 0 20.5 12t9.5 39h31q-4 -94 -60 -94q-25 0 -61 30q-4 3 -12.5 9.5t-13 9t-11 5t-13.5 2.5q-22 0 -32 -50h-31q8 91 67 91z" />
    <glyph glyph-name="hungarumlaut" unicode="&#x2dd;" horiz-adv-x="300" 
d="M139 624q15 -11 35 -33q-40 -36 -126 -112q-16 16 -23 24q20 21 59.5 63t54.5 58zM254 621q16 -13 36 -33q-87 -79 -125 -114l-8 8l-9 9l-7 7q112 122 113 123z" />
    <glyph glyph-name="pi" unicode="&#x3c0;" horiz-adv-x="527" 
d="M482 424h-68v-291q0 -89 14 -133h-46q-15 32 -15 127v297h-183q-5 -106 -26.5 -237t-47.5 -187h-44q27 66 47.5 190t25.5 234q-21 0 -53 -2q-34 -4 -48 -8l-9 30q42 19 113 19h347z" />
    <glyph glyph-name="uni2010" unicode="&#x2010;" horiz-adv-x="297" 
d="M117 218h-87q0 29 1 42h89q26 0 74 0.5t73 1.5q0 -18 -2 -44h-148z" />
    <glyph glyph-name="figuredash" unicode="&#x2012;" horiz-adv-x="513" 
d="M33 319h221q90 0 228 2q0 -19 -2 -43h-227h-221q0 28 1 41z" />
    <glyph glyph-name="endash" unicode="&#x2013;" horiz-adv-x="500" 
d="M246 218h-216q0 29 1 42h217q90 0 222 2q0 -18 -2 -44h-222z" />
    <glyph glyph-name="emdash" unicode="&#x2014;" horiz-adv-x="1000" 
d="M470 219q-58 0 -220.5 -0.5t-219.5 -0.5q0 29 1 42q73 0 220 0.5t221 0.5q70 0 242 0.5t256 0.5q0 -18 -2 -44q-68 0 -250 0.5t-248 0.5z" />
    <glyph glyph-name="quoteleft" unicode="&#x2018;" horiz-adv-x="181" 
d="M102 496q-21 0 -38.5 20t-17.5 51q0 46 27 83t68 58q11 -10 22 -28q-59 -37 -59 -83q0 -28 40 -39q6 -26 -7 -44t-35 -18z" />
    <glyph glyph-name="quoteright" unicode="&#x2019;" horiz-adv-x="181" 
d="M79 699q20 0 38 -20.5t18 -51.5q0 -45 -27 -82t-68 -59q-14 16 -22 29q59 37 59 83q0 30 -40 38q-6 27 7 45t35 18z" />
    <glyph glyph-name="quotesinglbase" unicode="&#x201a;" horiz-adv-x="225" 
d="M105 83q21 0 39 -20.5t18 -51.5q0 -45 -27 -82t-68 -59q-14 16 -22 29q59 37 59 83q0 30 -40 38q-6 27 6.5 45t34.5 18z" />
    <glyph glyph-name="quotedblleft" unicode="&#x201c;" 
d="M101 504q-21 0 -38 20t-17 49q0 43 26.5 79t66.5 56q13 -14 21 -27q-57 -36 -57 -80q0 -31 42 -37q4 -28 -8.5 -44t-35.5 -16zM245 504q-20 0 -37.5 20t-17.5 49q0 43 26.5 79t66.5 56q14 -14 21 -27q-57 -36 -57 -80q0 -27 42 -38q4 -26 -9 -42.5t-35 -16.5z" />
    <glyph glyph-name="quotedblright" unicode="&#x201d;" 
d="M78 699q19 0 37 -20t18 -49q0 -43 -26.5 -79t-66.5 -56q-16 18 -21 27q57 36 57 81q0 25 -42 39q-4 27 8.5 42t35.5 15zM221 699q19 0 37 -20t18 -49q0 -43 -26.5 -79t-66.5 -56q-12 13 -21 27q57 36 57 81q0 25 -42 39q-3 26 9.5 41.5t34.5 15.5z" />
    <glyph glyph-name="quotedblbase" unicode="&#x201e;" horiz-adv-x="366" 
d="M104 79q19 0 37 -20t18 -49q0 -43 -26.5 -79t-66.5 -56q-14 13 -21 27q57 36 57 80q0 27 -42 40q-4 27 8.5 42t35.5 15zM248 79q19 0 37 -20t18 -49q0 -43 -26.5 -79t-66.5 -56q-14 13 -21 27q57 36 57 80q0 26 -42 40q-3 26 9.5 41.5t34.5 15.5z" />
    <glyph glyph-name="dagger" unicode="&#x2020;" horiz-adv-x="422" 
d="M230 653l2 -4q-1 -41 -2 -121.5t-1 -98.5q26 0 78 0.5t79 0.5q0 -18 -2 -42h-155q-4 -337 -5 -516q-38 -6 -40 -6q-1 91 -2.5 282.5t-1.5 239.5h-142q0 12 2 40q23 0 66.5 0.5t65.5 0.5q8 0 8 7q0 80 -2 198q8 5 27.5 12t24.5 7z" />
    <glyph glyph-name="daggerdbl" unicode="&#x2021;" horiz-adv-x="422" 
d="M230 653q1 -2 0 -4q-1 -36 -1.5 -110t-0.5 -110q26 0 78.5 0.5t79.5 0.5q0 -18 -2 -42h-155q-1 -83 -3 -247q25 0 78.5 0.5t80.5 0.5q1 -19 -2 -40q-61 0 -157 -2q0 -39 -0.5 -115.5t-1.5 -113.5l-39 -6q-1 43 -2 133.5t-1 101.5q-24 0 -72 -0.5t-73 -0.5q0 18 2 42h137
q5 0 5 7q0 32 -0.5 117.5t-0.5 122.5h-143q0 12 2 40q88 0 132 1q8 0 8 7q0 82 -2 202q8 5 27 10t26 5z" />
    <glyph glyph-name="bullet" unicode="&#x2022;" horiz-adv-x="275" 
d="M141 352q42 0 64.5 -29.5t22.5 -64.5q0 -39 -25 -66.5t-63 -27.5q-41 0 -66.5 26.5t-25.5 64.5q0 40 25.5 68.5t67.5 28.5z" />
    <glyph glyph-name="onedotenleader" unicode="&#x2024;" horiz-adv-x="250" 
d="M128 87q23 0 33.5 -16t10.5 -33q0 -18 -12 -32.5t-32 -14.5q-23 0 -35.5 13t-12.5 34q0 18 12.5 33.5t35.5 15.5z" />
    <glyph glyph-name="twodotenleader" unicode="&#x2025;" horiz-adv-x="500" 
d="M128 87q23 0 33.5 -16t10.5 -33q0 -18 -12 -32.5t-32 -14.5q-23 0 -35.5 13t-12.5 34q0 18 12.5 33.5t35.5 15.5zM377 87q23 0 33.5 -16t10.5 -33q0 -18 -12 -32.5t-32 -14.5q-23 0 -35.5 13t-12.5 34q0 18 12.5 33.5t35.5 15.5z" />
    <glyph glyph-name="ellipsis" unicode="&#x2026;" horiz-adv-x="749" 
d="M128 87q23 0 33.5 -16t10.5 -33q0 -18 -12 -32.5t-32 -14.5q-23 0 -35.5 13t-12.5 34q0 18 12.5 33.5t35.5 15.5zM378 87q23 0 33.5 -16t10.5 -33q0 -18 -12 -32.5t-32 -14.5q-23 0 -35.5 13t-12.5 34q0 18 12.5 33.5t35.5 15.5zM628 87q23 0 33.5 -16t10.5 -33
q0 -18 -12 -32.5t-32 -14.5q-23 0 -35.5 13t-12.5 34q0 18 12.5 33.5t35.5 15.5z" />
    <glyph glyph-name="perthousand" unicode="&#x2030;" horiz-adv-x="1077" 
d="M501 623l-2 3q-137 -4 -224 -5q22 -15 38 -48.5t16 -73.5q0 -81 -46 -129q-38 -42 -99 -42q-51 0 -86 28q-57 44 -57 133q0 74 49 123q40 40 105 40q55 0 185 4t162 8q11 -13 17 -23q-70 -127 -167 -316q-86 -167 -183 -349q-25 9 -36 15q64 119 186 355q58 110 142 277z
M187 618q-39 0 -63 -24q-35 -38 -35 -103q0 -73 36 -106q26 -23 62 -23q32 0 54 18q40 35 40 114q0 65 -34 101q-19 23 -60 23zM556 315q54 0 88 -32q48 -46 48 -125t-45 -127q-38 -41 -98 -41q-51 0 -88 28q-55 42 -55 128q0 80 54 132q39 37 96 37zM901 315q56 0 90 -34
q46 -46 46 -124t-44 -125q-39 -42 -100 -42q-52 0 -88 27q-55 43 -55 130q0 81 54 131q40 37 97 37zM550 281q-35 0 -60 -26q-36 -40 -36 -108q0 -67 35 -100q25 -23 61 -23q35 0 59 21q35 31 35 106q0 67 -33 105q-20 25 -61 25zM895 281q-39 0 -62 -26q-35 -40 -35 -107
q0 -66 33 -99q24 -25 64 -25q34 0 57 21q37 33 37 110q0 64 -32 101q-22 25 -62 25z" />
    <glyph glyph-name="guilsinglleft" unicode="&#x2039;" horiz-adv-x="244" 
d="M103 224q48 -71 100 -140q-14 -14 -27 -23q-86 95 -134 145q-1 10 -1 29q73 76 134 147q13 -9 27 -23q-58 -77 -99 -135z" />
    <glyph glyph-name="guilsinglright" unicode="&#x203a;" horiz-adv-x="244" 
d="M140 222q-39 56 -99 136q9 10 27 24q113 -123 135 -146q0 -20 -1 -29q-76 -81 -133 -146q-9 7 -27 23q58 77 98 138z" />
    <glyph glyph-name="fraction" unicode="&#x2044;" horiz-adv-x="62" 
d="M-129 -15q-3 1 -14.5 5t-17.5 7q138 256 162 302q159 305 187 359q30 -8 36 -11q-150 -283 -193 -365q-89 -168 -160 -297z" />
    <glyph glyph-name="zero.superior" unicode="&#x2070;" 
d="M278 600q0 -92 -42 -136q-27 -30 -80 -30q-48 0 -77 31q-35 41 -35 122q0 95 46 141q30 30 76 30q52 0 79 -36q33 -40 33 -122zM161 727q-27 0 -43 -24q-25 -34 -25 -115q0 -68 22 -99q15 -24 46 -24q30 0 46 22q22 31 22 107q0 71 -17 103q-15 30 -51 30z" />
    <glyph glyph-name="four.superior" unicode="&#x2074;" 
d="M231 471l42 -1v-8.5v-10.5v-9h-68h-76v28l61 1q2 0 2 1v49h-151q-6 10 -16 30q12 14 36 46.5t36 47.5q13 17 32 42t32.5 42t22.5 28q8 0 24.5 -0.5t24.5 -0.5q0 -33 -0.5 -101t-1.5 -101h59q0 -21 -1 -33h-58v-50zM192 707h-6q-5 -7 -24 -32t-34 -45q-22 -30 -53 -70
q-2 -6 2 -6h114z" />
    <glyph glyph-name="five.superior" unicode="&#x2075;" 
d="M65 602l-2 1q6 55 18 147h90h91q0 -10 -2 -34h-138q-2 -12 -6.5 -38.5t-7.5 -39.5q24 2 40 2q54 0 88 -24.5t34 -69.5q0 -53 -40 -83q-36 -29 -104 -29q-44 0 -70 6q-2 10 -6.5 36t-6.5 41q22 6 34 7l12 -47q1 -2 5 -6q14 -5 36 -5q42 0 66 18q25 20 25 55
q0 32 -23.5 50.5t-67.5 18.5q-17 0 -65 -6z" />
    <glyph glyph-name="six.superior" unicode="&#x2076;" 
d="M92 602h2q40 34 84 34q40 0 66 -23q32 -27 32 -74q0 -54 -38 -82q-32 -23 -78 -23q-50 0 -79 29q-36 36 -36 108q0 106 56 153q37 34 90 34q32 0 61 -9q4 -29 7 -71q-10 -2 -32 -6l-10 44q-2 4 -5 6q-8 5 -26 5q-32 0 -56 -27q-33 -37 -38 -98zM166 464q27 0 44 20
q18 20 18 49q0 40 -24 58q-14 11 -38 11q-17 0 -38 -11t-34 -33q-2 -53 27 -79q18 -15 45 -15z" />
    <glyph glyph-name="seven.superior" unicode="&#x2077;" 
d="M232 713l-2 3q-107 2 -131 0q-11 0 -14 -13l-10 -42q-19 4 -33 5q11 64 14 84h56h155q6 -16 11 -33q-75 -124 -107 -224q-7 -23 -9 -56q-30 -2 -48 -2q0 33 10 62q24 64 108 216z" />
    <glyph glyph-name="eight.superior" unicode="&#x2078;" 
d="M205 608v-4q72 -23 74 -80q0 -40 -36 -67q-35 -23 -88 -23q-55 0 -87 24q-29 21 -29 59q0 58 72 89v4q-57 24 -57 69q0 31 29 55q31 24 83 24q44 0 69 -18q29 -23 29 -55q0 -50 -59 -77zM100 677q0 -19 16.5 -32.5t53.5 -27.5q48 23 48 63q0 19 -12 33q-14 15 -44 15
q-28 0 -43 -12q-19 -14 -19 -39zM232 523q0 24 -20 39.5t-67 31.5q-60 -26 -60 -72q0 -26 22 -43q20 -15 50 -15q31 0 51 14q24 17 24 45z" />
    <glyph glyph-name="nine.superior" unicode="&#x2079;" 
d="M229 590l-3 1q-38 -33 -83 -33q-48 0 -75 26q-26 24 -26 65q0 48 36 81q32 28 81 28q51 0 82 -33q34 -36 34 -107q0 -103 -55 -151q-41 -33 -94 -33q-39 0 -63 8q-1 8 -5.5 32.5t-6.5 37.5q8 2 32 7l15 -44q2 -3 6 -6q8 -4 27 -4q40 0 62 26q29 35 36 99zM154 727
q-27 0 -45 -20q-20 -22 -20 -50q0 -31 16 -49q16 -17 49 -17q17 0 38.5 11.5t34.5 31.5q0 51 -27 77q-18 16 -46 16z" />
    <glyph glyph-name="parenleft.superior" unicode="&#x207d;" horiz-adv-x="211" 
d="M65 589q0 73 35.5 129.5t81.5 82.5q12 -16 16 -25q-33 -24 -59 -73t-26 -114q0 -123 84 -190q-10 -13 -21 -23q-111 84 -111 213z" />
    <glyph glyph-name="parenright.superior" unicode="&#x207e;" horiz-adv-x="211" 
d="M147 589q0 -127 -113 -213q-2 2 -19 25q84 69 84 189q0 62 -25 111t-58 75q13 21 16 25q45 -23 80 -80.5t35 -131.5z" />
    <glyph glyph-name="n.superior" unicode="&#x207f;" horiz-adv-x="415" 
d="M80 600l-62 1v27q13 2 37.5 7t42 8.5t21.5 3.5q1 0 1 -2q6 -39 6 -43v-1q50 31 72.5 39t49.5 8q51 0 79 -49q15 -25 15 -55q0 -27 -1 -88t-1 -88l53 -2q0 -20 -1 -30h-79h-68q0 20 1 29l46 2q3 1 3 4v133q0 58 -10 76q-18 30 -57 30q-20 0 -50 -13.5t-51 -31.5
q-1 -57 -1 -197l58 -2q0 -20 -1 -30h-83h-71v30l50 2q2 0 2 3z" />
    <glyph glyph-name="zero.inferior" unicode="&#x2080;" 
d="M278 53q0 -92 -42 -136q-27 -30 -80 -30q-48 0 -77 31q-35 41 -35 122q0 95 46 141q30 30 76 30q52 0 79 -36q33 -40 33 -122zM161 180q-27 0 -43 -24q-25 -34 -25 -115q0 -68 22 -99q15 -24 46 -24q30 0 46 22q22 31 22 107q0 71 -17 103q-15 30 -51 30z" />
    <glyph glyph-name="one.inferior" unicode="&#x2081;" 
d="M193 -73l76 -1q0 -21 -1 -31h-99h-105v30l82 2q2 0 2 2v227q-42 -11 -83 -23q-1 5 -3.5 16t-3.5 17q29 9 62 21.5t51 19.5t22 7q1 0 1 -3q0 -47 -0.5 -142t-0.5 -142z" />
    <glyph glyph-name="two.inferior" unicode="&#x2082;" 
d="M263 121q0 -67 -95 -144q-32 -28 -54 -43l2 -5q9 0 150 3q3 0 3 -2q-1 -6 -1 -18t-1 -17h-138h-78q-1 4 -5 12.5t-5 12.5q61 44 95 74q26 24 37 34.5t26.5 37t15.5 52.5q0 29 -18 47q-15 16 -49 16q-35 0 -50 -14q-3 -1 -3 -6l-8 -51q-5 0 -16 0.5t-17 0.5q1 34 5 82
q38 19 92 19q57 0 82 -23q30 -26 30 -68z" />
    <glyph glyph-name="three.inferior" unicode="&#x2083;" 
d="M79 -21l11 -47l1 -2q1 -2 2 -3q18 -10 48 -10q37 0 59 16q24 16 24 47q0 28 -24 44t-62 16h-40v32q55 -1 86 15.5t31 43.5q0 24 -15 35q-14 14 -52 14q-30 0 -49 -11l-3 -6l-7 -48q-20 2 -33 2q2 23 4 76q38 18 96 18q56 0 81 -21q26 -22 26 -50q0 -58 -71 -77v-5
q41 -4 61 -25.5t20 -49.5q0 -47 -41 -73q-35 -23 -98 -23q-48 0 -79 7q0 3 -11 80q25 4 35 5z" />
    <glyph glyph-name="four.inferior" unicode="&#x2084;" 
d="M231 -76l42 -1v-8.5v-10.5v-9h-68h-76v28l61 1q2 0 2 1v49h-151q-6 10 -16 30q12 14 36 46.5t36 47.5q13 17 32 42t32.5 42t22.5 28q8 0 24.5 -0.5t24.5 -0.5q0 -33 -0.5 -101t-1.5 -101h59q0 -21 -1 -33h-58v-50zM192 160h-6q-5 -7 -24 -32t-34 -45q-22 -30 -53 -70
q-2 -6 2 -6h114z" />
    <glyph glyph-name="five.inferior" unicode="&#x2085;" 
d="M65 55l-2 1q6 55 18 147h90h91q0 -10 -2 -34h-138q-2 -12 -6.5 -38.5t-7.5 -39.5q24 2 40 2q54 0 88 -24.5t34 -69.5q0 -53 -40 -83q-36 -29 -104 -29q-44 0 -70 6q-2 10 -6.5 36t-6.5 41q21 6 34 7l12 -47q1 -2 5 -6q14 -5 36 -5q42 0 66 18q25 20 25 55
q0 32 -23.5 50.5t-67.5 18.5q-17 0 -65 -6z" />
    <glyph glyph-name="six.inferior" unicode="&#x2086;" 
d="M92 55h2q40 34 84 34q40 0 66 -23q32 -27 32 -74q0 -54 -38 -82q-32 -23 -78 -23q-50 0 -79 29q-36 36 -36 108q0 106 56 153q37 34 90 34q32 0 61 -9q4 -29 7 -71q-10 -2 -32 -6l-10 44q-2 4 -5 6q-8 5 -26 5q-32 0 -56 -27q-33 -37 -38 -98zM166 -83q27 0 44 20
q18 19 18 49q0 40 -24 58q-14 11 -38 11q-17 0 -38 -11t-34 -33q-2 -53 27 -79q18 -15 45 -15z" />
    <glyph glyph-name="seven.inferior" unicode="&#x2087;" 
d="M232 166l-2 3q-107 2 -131 0q-11 0 -14 -13l-10 -42q-19 4 -33 5q11 64 14 84h56h155q6 -16 11 -33q-75 -124 -107 -224q-7 -23 -9 -56q-30 -2 -48 -2q0 33 10 62q24 64 108 216z" />
    <glyph glyph-name="eight.inferior" unicode="&#x2088;" 
d="M205 61v-4q72 -23 74 -80q0 -40 -36 -67q-35 -23 -88 -23q-55 0 -87 24q-29 21 -29 59q0 58 72 89v4q-57 24 -57 69q0 31 29 55q31 24 83 24q44 0 69 -18q29 -23 29 -55q0 -50 -59 -77zM100 130q0 -19 16.5 -32.5t53.5 -27.5q48 23 48 63q0 19 -12 33q-14 15 -44 15
q-28 0 -43 -12q-19 -14 -19 -39zM232 -24q0 24 -20 39.5t-67 31.5q-60 -26 -60 -72q0 -26 22 -43q20 -15 50 -15q31 0 51 14q24 17 24 45z" />
    <glyph glyph-name="nine.inferior" unicode="&#x2089;" 
d="M229 43l-3 1q-38 -33 -83 -33q-48 0 -75 26q-26 24 -26 65q0 48 36 81q32 28 81 28q51 0 82 -33q34 -36 34 -107q0 -103 -55 -151q-41 -33 -94 -33q-39 0 -63 8q-1 8 -5.5 32.5t-6.5 37.5q8 2 32 7l15 -44q2 -3 6 -6q8 -4 27 -4q40 0 62 26q29 35 36 99zM154 180
q-27 0 -45 -20q-20 -22 -20 -50q0 -31 16 -49q16 -17 49 -17q17 0 38.5 11.5t34.5 31.5q0 51 -27 77q-18 16 -46 16z" />
    <glyph glyph-name="parenleft.inferior" unicode="&#x208d;" horiz-adv-x="211" 
d="M65 43q0 73 35.5 129.5t81.5 82.5q12 -16 16 -25q-33 -24 -59 -73t-26 -114q0 -123 84 -190q-10 -13 -21 -23q-111 84 -111 213z" />
    <glyph glyph-name="parenright.inferior" unicode="&#x208e;" horiz-adv-x="211" 
d="M147 42q0 -127 -113 -213q-2 2 -19 25q84 69 84 189q0 62 -25 111t-58 75q13 21 16 25q45 -23 80 -80.5t35 -131.5z" />
    <glyph glyph-name="colonmonetary" unicode="&#x20a1;" horiz-adv-x="517" 
d="M322 33l-11 -109q-20 -2 -38 0l11 109q-36 2 -64 10l-14 -119q-19 -2 -37 0l14 131q-65 29 -101.5 91.5t-36.5 139.5q0 102 51 184.5t138 110.5l11 124q12 3 40 3l-11 -115q31 7 64 7l10 105q12 3 40 3l-11 -109q73 -3 116 -29q0 -8 -9 -24t-18 -23q-48 31 -92 35
l-49 -485q54 2 141 37q8 -22 9 -36q-93 -37 -153 -41zM287 73l48 488q-30 1 -65 -7l-46 -468q32 -12 63 -13zM188 101l41 440q-56 -28 -92.5 -92t-36.5 -146q0 -78 21 -122.5t67 -79.5z" />
    <glyph glyph-name="Euro" unicode="&#x20ac;" horiz-adv-x="513" 
d="M3 350v38h51q26 116 116 192q87 74 206 74q67 0 113 -23q6 -100 8 -158q-23 -4 -43 -5l-14 109q-3 11 -9 16q-29 19 -78 19q-43 0 -87 -18.5t-75 -51.5q-65 -67 -85 -154h280v-38h-287q-2 -28 -2 -43q0 -20 1 -29h288v-39l-285 1q9 -73 58 -132q26 -31 72 -53.5t96 -22.5
q33 0 65 7.5t51 15t52 23.5q7 -22 10 -39q-4 -2 -22.5 -10t-23 -10t-19.5 -8t-21.5 -7.5t-20.5 -5.5t-24.5 -5t-24.5 -2t-30 -1q-100 0 -174 60q-85 66 -100 190h-42v38h39v18q0 31 4 54h-43z" />
    <glyph glyph-name="uni2113" unicode="&#x2113;" horiz-adv-x="457" 
d="M402 124l28 -24q-61 -109 -176 -109q-72 0 -109 47.5t-38 120.5v7q-10 -8 -56 -40l-18 31q48 33 74 57v278q0 102 37 150t98 48q49 0 79 -38.5t30 -101.5q0 -170 -197 -348v-15q0 -153 109 -153q82 0 139 90zM154 505v-251q149 149 149 294q0 101 -72 101
q-32 0 -54.5 -37t-22.5 -107z" />
    <glyph glyph-name="trademark" unicode="&#x2122;" horiz-adv-x="608" 
d="M70 427l38 1v195q-34 0 -52 -3l-7 -48q-5 0 -14.5 0.5t-14.5 0.5q1 35 3 77q36 -1 108 -1q19 0 51.5 0.5t48.5 0.5q2 -42 3 -77q-5 0 -14.5 -0.5t-14.5 -0.5l-7 48q-18 3 -51 3v-195l41 -1q0 -18 -1 -27q-8 0 -27 0.5t-31 0.5q-10 0 -30 -0.5t-29 -0.5v27zM257 427l34 1
q0 32 0.5 99t0.5 96h-34v26h87q10 -28 32.5 -95t33.5 -98h4q55 155 66 193h85v-26h-34v-195l35 -1v-27q-7 0 -25 0.5t-29 0.5q-8 0 -21.5 -0.5t-19.5 -0.5q0 17 1 27l25 1q2 110 2 169h-5q-18 -54 -70 -186h-29q-32 80 -67 189h-5q0 -25 0.5 -85t0.5 -87l26 -1q0 -18 -1 -27
q-6 0 -20.5 0.5t-22.5 0.5q-9 0 -25.5 -0.5t-24.5 -0.5v27z" />
    <glyph glyph-name="Omega" unicode="&#x2126;" horiz-adv-x="689" 
d="M645 43l1 -43h-222v35q67 44 111 125.5t44 179.5q0 65 -24 126t-79 106t-129 45t-129.5 -42.5t-81.5 -104.5t-26 -132q0 -93 45 -177t109 -126v-35h-221v43h145v4q-58 50 -94.5 125t-36.5 166q0 143 84 232.5t207 89.5q126 0 205 -88t79 -227q0 -186 -131 -298v-4h144z
" />
    <glyph glyph-name="estimated" unicode="&#x212e;" horiz-adv-x="830" 
d="M778 305h-588q-5 0 -5 -5v-177q0 -11 8 -21q91 -96 223 -96q141 0 234 108h53q-51 -59 -126.5 -93.5t-161.5 -34.5q-150 0 -256.5 95.5t-106.5 231.5t106.5 232t256.5 96t256.5 -96t106.5 -232v-8zM645 328v180q0 12 -9 21q-92 92 -220 92q-130 0 -222 -95q-9 -9 -9 -23
v-175q0 -5 5 -5h451q4 0 4 5z" />
    <glyph glyph-name="onethird" unicode="&#x2153;" horiz-adv-x="688" 
d="M193 368l76 -1q0 -21 -1 -31h-99h-105v30l82 2q2 0 2 2v227q-10 -2 -22.5 -5.5t-30.5 -8.5t-30 -8q-1 5 -3.5 16t-3.5 16q29 10 62 22.5t51 19.5t22 7q1 0 1 -3q0 -48 -0.5 -143t-0.5 -142zM184 -15l-15 5t-19 7q88 160 162 302q117 223 187 359q26 -6 39 -11
q-38 -70 -194 -366q-61 -116 -160 -296zM442 84l11 -47q1 -1 2 -3l1 -2q18 -10 48 -10q37 0 59 16q24 16 24 46q0 29 -24 45t-62 16h-40v32q55 -1 86 15.5t31 43.5q0 24 -15 35q-14 14 -52 14q-30 0 -49 -11l-3 -6l-7 -48q-20 2 -33 2q2 23 4 76q38 18 96 18q57 0 81 -21
q26 -20 26 -50q0 -58 -71 -77v-5q41 -4 61 -25.5t20 -49.5q0 -47 -41 -72q-34 -24 -98 -24q-47 0 -79 7q-1 8 -3 23.5t-4 29.5t-3 27q21 4 34 5z" />
    <glyph glyph-name="twothirds" unicode="&#x2154;" horiz-adv-x="688" 
d="M263 563q0 -70 -95 -144q-32 -28 -54 -43l2 -5q9 0 150 3q3 0 3 -2q-1 -6 -1 -18t-1 -17h-138h-78q-1 4 -5 12.5t-5 12.5q61 44 95 74q26 24 37 34.5t26.5 37t15.5 52.5q0 29 -18 47q-15 16 -49 16q-35 0 -50 -14q-3 -1 -3 -6l-8 -51q-5 0 -16 0.5t-17 0.5q1 34 5 82
q38 19 92 19q57 0 82 -23q30 -26 30 -68zM185 -15q-31 10 -35 12q88 160 162 302q159 305 187 359q29 -7 38 -11q-48 -91 -193 -365q-33 -63 -159 -297zM442 84l11 -47q1 -1 2 -3l1 -2q18 -10 48 -10q37 0 59 16q24 16 24 46q0 29 -24 45t-62 16h-40v32q55 -1 86 15.5
t31 43.5q0 24 -15 35q-14 14 -52 14q-30 0 -49 -11l-3 -6l-7 -48q-20 2 -33 2q2 23 4 76q38 18 96 18q57 0 81 -21q26 -20 26 -50q0 -58 -71 -77v-5q41 -4 61 -25.5t20 -49.5q0 -47 -41 -72q-34 -24 -98 -24q-47 0 -79 7q0 3 -11 80q25 4 35 5z" />
    <glyph glyph-name="oneeighth" unicode="&#x215b;" horiz-adv-x="688" 
d="M196 368l76 -1q0 -21 -1 -31h-99h-105v30l82 2q2 0 2 2v227q-10 -2 -22.5 -5.5t-30.5 -8.5t-30 -8q-1 5 -3.5 16t-3.5 16q29 10 62 22.5t51 19.5t22 7q1 0 1 -3q0 -48 -0.5 -143t-0.5 -142zM187 -15l-15 5t-19 7q88 160 162 302q117 223 187 359q26 -6 39 -11
q-38 -70 -194 -366q-61 -116 -160 -296zM568 166v-4q72 -23 74 -80q0 -40 -36 -66q-33 -24 -88 -24t-87 24q-29 21 -29 59q0 58 72 89v4q-57 24 -57 69q0 31 29 55q31 24 83 24q44 0 69 -18q29 -23 29 -55q0 -50 -59 -77zM463 235q0 -19 16.5 -32.5t53.5 -27.5q48 25 48 63
q0 19 -12 33q-13 15 -44 15q-28 0 -43 -12q-19 -14 -19 -39zM595 81q0 24 -20 39.5t-67 31.5q-60 -28 -60 -71q0 -27 22 -44q20 -15 50 -15q31 0 51 14q24 17 24 45z" />
    <glyph glyph-name="threeeighths" unicode="&#x215c;" horiz-adv-x="688" 
d="M83 421l11 -47l1 -2q1 -2 2 -3q18 -10 48 -10q36 0 59 15q24 18 24 47t-24 45t-62 16h-40v32q55 -1 86 15.5t31 43.5q0 23 -15 34q-14 14 -52 14q-33 0 -49 -11l-3 -6l-7 -47q-5 1 -16.5 1.5t-16.5 0.5q2 24 4 75q38 18 96 18q57 0 81 -21q26 -20 26 -50q0 -57 -71 -76
v-5q41 -4 61 -25.5t20 -49.5q0 -47 -41 -73q-35 -23 -98 -23q-48 0 -79 7q0 3 -11 80q25 4 35 5zM183 -15q-2 1 -15 5t-19 7q109 203 161 302q39 76 188 359q29 -7 38 -11q-150 -283 -193 -365q-63 -120 -160 -297zM564 166v-4q73 -22 73 -80q0 -40 -36 -66q-33 -24 -88 -24
t-87 24q-29 21 -29 59q0 60 72 89v4q-57 24 -57 69q0 31 29 55q31 24 83 24q45 0 70 -18q29 -23 29 -55q0 -50 -59 -77zM458 235q0 -19 16.5 -32.5t54.5 -27.5q48 25 48 63q0 19 -12 33q-13 15 -44 15q-29 0 -44 -12q-19 -14 -19 -39zM590 82q0 24 -20 39t-67 31
q-60 -26 -60 -71q0 -27 22 -44q20 -15 50 -15q31 0 51 14q24 17 24 46z" />
    <glyph glyph-name="fiveeighths" unicode="&#x215d;" horiz-adv-x="688" 
d="M74 496l-2 2q5 46 18 146h90h91q0 -10 -2 -34h-138q-2 -12 -6.5 -38t-7.5 -39q24 2 40 2q54 0 88 -24.5t34 -69.5q0 -53 -40 -83q-36 -29 -104 -29q-45 0 -70 6q-2 10 -6.5 36t-6.5 41q22 6 34 7l12 -47q0 -2 5 -6q14 -5 36 -5q42 0 66 18q25 20 25 55q0 32 -23.5 50.5
t-67.5 18.5q-37 0 -65 -7zM181 -15l-15 5t-19 7q70 127 161 302q39 76 188 359q29 -7 38 -11q-150 -283 -193 -365q-63 -120 -160 -297zM562 166v-4q73 -23 73 -80q0 -40 -36 -66q-33 -24 -88 -24t-87 24q-29 21 -29 59q0 60 72 89v4q-57 24 -57 69q0 31 29 55q31 24 83 24
q45 0 70 -18q29 -23 29 -55q0 -50 -59 -77zM456 235q0 -19 16.5 -32.5t54.5 -27.5q48 25 48 63q0 19 -12 33q-13 15 -44 15q-29 0 -44 -12q-19 -14 -19 -39zM588 82q0 24 -20 39t-67 31q-60 -26 -60 -71q0 -27 22 -44q20 -15 50 -15q31 0 51 14q24 17 24 46z" />
    <glyph glyph-name="seveneighths" unicode="&#x215e;" horiz-adv-x="688" 
d="M265 607l-2 3q-107 2 -131 0q-11 0 -14 -13l-10 -41q-4 0 -15 1.5t-18 2.5q11 64 14 84h56h155q6 -16 11 -33q-74 -123 -107 -223q-7 -23 -9 -56q-30 -2 -48 -2q0 33 10 62q24 63 108 215zM157 -15l-15 5t-19 7q109 203 161 302q39 76 188 359q29 -7 38 -11
q-150 -283 -193 -365q-63 -120 -160 -297zM538 166v-4q73 -22 73 -80q0 -40 -36 -66q-33 -24 -88 -24t-87 24q-29 21 -29 59q0 60 72 89v4q-57 24 -57 69q0 31 29 55q31 24 83 24q45 0 70 -18q29 -23 29 -55q0 -50 -59 -77zM432 235q0 -19 16.5 -32.5t54.5 -27.5
q48 25 48 63q0 19 -12 33q-13 15 -44 15q-29 0 -44 -12q-19 -14 -19 -39zM564 82q0 24 -20 39t-67 31q-60 -26 -60 -71q0 -27 22 -44q20 -15 50 -15q31 0 51 14q24 17 24 46z" />
    <glyph glyph-name="partialdiff" unicode="&#x2202;" horiz-adv-x="505" 
d="M89 625l-17 31q69 49 153 49q95 0 164.5 -88.5t69.5 -249.5q0 -176 -71.5 -273t-172.5 -97q-86 0 -132 55.5t-46 139.5q0 97 62 165t147 68q59 0 106 -28.5t60 -61.5h4q0 6 0.5 20.5t0.5 20.5q0 140 -59.5 214.5t-132.5 74.5q-79 0 -136 -40zM246 386q-66 0 -114 -54.5
t-48 -134.5q0 -74 36.5 -117t97.5 -43h1q74 0 125.5 70t64.5 173q-18 45 -62.5 75.5t-100.5 30.5z" />
    <glyph glyph-name="Delta" unicode="&#x2206;" horiz-adv-x="607" 
d="M44 0v34l236 615h47l235 -615v-34h-518zM98 43h409l-154 404q-29 75 -49 140h-3q-8 -27 -44 -124z" />
    <glyph glyph-name="product" unicode="&#x220f;" horiz-adv-x="591" 
d="M481 607v-670h-49v670h-273v-670h-49v670h-89v42h549v-42h-89z" />
    <glyph glyph-name="summation" unicode="&#x2211;" horiz-adv-x="499" 
d="M19 -63v33l259 321l-245 323v35h429v-43h-362v-3l238 -310l-249 -310v-3h408v-43h-478z" />
    <glyph glyph-name="minus" unicode="&#x2212;" horiz-adv-x="513" 
d="M449 213l-386 -1q0 29 1 43q133 0 387 2q0 -18 -2 -44z" />
    <glyph glyph-name="uni2215" unicode="&#x2215;" horiz-adv-x="62" 
d="M-129 -15q-3 1 -14.5 5t-17.5 7q138 256 162 302q159 305 187 359q30 -8 36 -11q-150 -283 -193 -365q-89 -168 -160 -297z" />
    <glyph glyph-name="uni2219" unicode="&#x2219;" horiz-adv-x="230" 
d="M118 309q23 0 33.5 -16t10.5 -33q0 -18 -12 -32.5t-32 -14.5q-23 0 -35.5 13t-12.5 34q0 18 12.5 33.5t35.5 15.5z" />
    <glyph glyph-name="radical" unicode="&#x221a;" horiz-adv-x="527" 
d="M540 797l-221 -890h-42l-154 420l-69 -30l-15 36l112 47l129 -362q12 -30 14 -42h1q4 23 8 41l191 780h46z" />
    <glyph glyph-name="infinity" unicode="&#x221e;" horiz-adv-x="703" 
d="M524 126q-11 0 -21.5 2t-19 4t-19.5 8t-17.5 9.5t-18 12.5t-16 12t-16.5 14.5t-14.5 14l-15.5 15.5l-14 14q-38 -37 -55 -52.5t-53.5 -34.5t-72.5 -19q-57 0 -94 37t-37 97q0 55 40 94.5t99 39.5q13 0 26.5 -3t24 -6.5t24 -12t21 -13t21.5 -17.5t18.5 -17t19.5 -19.5
t18 -17.5q35 35 54 52t55 35.5t72 18.5q57 0 94 -37t37 -97q0 -55 -40.5 -94.5t-99.5 -39.5zM528 167q39 0 65.5 27.5t26.5 65.5q0 40 -25.5 66.5t-64.5 26.5q-29 0 -59.5 -17t-47 -32t-43.5 -44l24 -24t28.5 -27t26.5 -19.5t34.5 -17.5t34.5 -5zM173 167h2q28 0 58 16.5
t47.5 32.5t43.5 44q-11 10 -32 31q-62 62 -115 62q-40 0 -67 -27.5t-27 -65.5q0 -41 25.5 -67.5t64.5 -25.5z" />
    <glyph glyph-name="integral" unicode="&#x222b;" horiz-adv-x="318" 
d="M292 766l-10 -36q-12 4 -27 4q-29 0 -44 -18q-34 -37 -34 -160q0 -70 4.5 -239.5t4.5 -238.5q0 -135 -46 -187q-31 -31 -73 -31q-29 0 -45 9l9 35q19 -6 35 -6q27 0 44 20q33 39 33 162q0 69 -5 240t-5 239q0 133 47 183q31 31 75 31q19 0 37 -7z" />
    <glyph glyph-name="approxequal" unicode="&#x2248;" horiz-adv-x="513" 
d="M428 337l25 -29q-51 -51 -111 -51q-26 0 -56 10q-8 3 -20.5 8t-18.5 7q-3 1 -15 6.5t-20 8.5q-21 8 -45 8q-43 0 -86 -41l-25 29q51 51 111 51q25 0 55 -10q8 -3 20.5 -8t18.5 -7q5 -2 17 -7t19 -8q21 -8 45 -8q43 0 86 41zM432 200l25 -29q-53 -51 -111 -51q-28 0 -55 9
q-9 3 -22.5 9.5t-16.5 7.5q-7 2 -36 15q-21 8 -45 8q-41 0 -86 -41l-25 29q51 51 111 51q26 0 56 -10q8 -3 20.5 -8t18.5 -7q3 -1 15 -6.5t20 -8.5q23 -9 45 -9q41 0 86 41z" />
    <glyph glyph-name="notequal" unicode="&#x2260;" horiz-adv-x="513" 
d="M301 282l-35 -95h185q0 -28 -1 -42q-65 -1 -199 -1q-7 -21 -21 -57.5t-16 -43.5q-9 4 -39 16l30 84q-95 0 -142 -1q0 19 2 45h156q12 31 34 95q-33 0 -97 -0.5t-94 -0.5q0 30 1 43q67 1 205 1q30 85 35 100q18 -6 41 -17q-15 -46 -30 -82q24 0 69 0.5t67 0.5
q0 -17 -2 -45h-149z" />
    <glyph glyph-name="lessequal" unicode="&#x2264;" horiz-adv-x="513" 
d="M157 330q52 -48 234 -195q-10 -18 -25 -34q-140 111 -264 208q-1 13 -1 39q90 66 266 199q15 -17 25 -35q-185 -140 -235 -182zM65 -3q0 42 3 45h386q0 -28 -1 -42q-274 0 -388 -3z" />
    <glyph glyph-name="greaterequal" unicode="&#x2265;" horiz-adv-x="513" 
d="M348 321q-11 9 -68.5 56t-107 87.5t-60.5 48.5q16 24 25 33q139 -105 266 -204v-39q-122 -94 -264 -202q-12 12 -26 33q10 8 113.5 90t121.5 97zM59 -3q0 42 3 45h386q0 -28 -1 -42q-262 0 -388 -3z" />
    <glyph glyph-name="lozenge" unicode="&#x25ca;" horiz-adv-x="482" 
d="M435 320l-173 -347h-43l-173 347l173 347h43zM386 319l-138 287l-8 16h-2q0 -1 -1.5 -4t-3 -6.5t-2.5 -5.5l-136 -285l138 -286q2 -4 5 -11l2 -6h2q0 1 8 17z" />
    <glyph glyph-name="Euro.fitted" unicode="&#xe000;" horiz-adv-x="621" 
d="M53 350v38h51q26 116 116 192q87 74 219 74q81 0 125 -23q1 -26 4 -79t5 -79q-23 -4 -43 -5l-14 109q-3 11 -9 16q-29 19 -91 19q-106 0 -175 -70q-65 -67 -85 -154h306v-38h-313q-2 -28 -2 -43q0 -20 1 -29h314v-39l-311 1q9 -73 58 -132q29 -34 77.5 -55t102.5 -21
q80 0 182 46q7 -22 10 -39q-119 -49 -200 -49q-110 0 -186 60q-85 66 -100 190h-42v38h39v18q0 31 4 54h-43z" />
    <glyph glyph-name="Euro.oldstyle" unicode="&#xe001;" horiz-adv-x="507" 
d="M26 250v37l48 -1q21 94 96 154q72 58 186 58q66 0 106 -17q6 -84 7 -129q-30 -2 -42 -4l-11 86q-1 8 -7 12q-26 13 -71 13q-86 0 -141 -52q-52 -49 -67 -121l262 1v-38l-267 1v-17q0 -26 1 -37h266v-37l-260 1q9 -39 41 -74q48 -56 144 -56q64 0 150 32q8 -23 10 -37
q-102 -35 -168 -35q-97 0 -159 46q-58 43 -77 124h-47v37l42 -1q-1 7 -1 21q0 23 1 33h-42z" />
    <glyph glyph-name="cent.fitted" unicode="&#xe005;" horiz-adv-x="472" 
d="M47 298q0 87 53.5 151.5t139.5 77.5q1 34 1 101q13 4 43 6q0 -30 -2 -102q6 1 22 1q58 0 111 -25q0 -9 -10 -24.5t-19 -19.5q-63 30 -105 29q-1 -56 -2.5 -174.5t-1.5 -173.5q59 3 140 36q7 -21 10 -33q-86 -37 -150 -42q-1 -36 -1 -102q-11 -2 -40 -4q0 14 0.5 49.5
t0.5 54.5q-85 4 -137.5 54t-52.5 140zM99 311q0 -83 43 -126q36 -36 95 -39q1 55 2 172t1 172q-65 -9 -103 -63.5t-38 -115.5z" />
    <glyph glyph-name="degree.oldstyle" unicode="&#xe006;" horiz-adv-x="294" 
d="M150 605q45 0 72 -27t27 -68t-29.5 -69.5t-72.5 -28.5q-42 0 -71.5 25.5t-29.5 68.5q0 39 30 69t74 30zM147 569q-25 0 -40 -18.5t-15 -43.5q0 -26 16 -42t40 -16q26 0 40.5 17t14.5 43t-14.5 43t-41.5 17z" />
    <glyph glyph-name="dollar.fitted" unicode="&#xe007;" horiz-adv-x="446" 
d="M45 452q0 68 66 112q43 30 101 34q0 19 0.5 54t0.5 50q20 6 43 6q0 -15 -1 -51t-1 -57q84 1 140 -29q0 -7 -9.5 -23t-18.5 -21q-62 34 -112 38q-1 -36 -2.5 -111t-2.5 -110q79 -25 119.5 -57t40.5 -91q0 -74 -55 -118q-45 -38 -116 -45q0 -17 -0.5 -51t-0.5 -51
q-9 -1 -40 -4q0 17 0.5 51.5t0.5 52.5q-43 -2 -95 8.5t-87 30.5q14 31 32 42q79 -45 150 -45q2 69 4 240q-76 25 -116.5 56.5t-40.5 88.5zM96 457q0 -40 25.5 -60.5t86.5 -41.5q2 61 4 209q-48 -4 -78 -28q-38 -29 -38 -79zM359 186q0 47 -27 68.5t-89 42.5
q-1 -37 -2.5 -114t-2.5 -114q54 8 84 31q37 31 37 86z" />
    <glyph glyph-name="florin.fitted" unicode="&#xe00a;" horiz-adv-x="455" 
d="M405 655q39 0 58 -12q0 -6 -8.5 -23.5t-15.5 -24.5q-36 12 -80 12q-51 0 -81 -35q-26 -29 -37.5 -72.5t-15.5 -139.5q29 0 93.5 0.5t101.5 0.5q0 -27 -2 -38q-138 0 -195 -1q-9 -213 -17 -280q-9 -81 -67.5 -133t-125.5 -52q-28 0 -50 8q2 23 23 48q37 -8 59 -8
q39 0 73 35t41 106q9 104 13 276h-121q0 13 2 37q19 0 58 0.5t58 0.5q4 0 4 7q4 97 16.5 137.5t52.5 81.5q65 69 163 69z" />
    <glyph glyph-name="florin.oldstyle" unicode="&#xe00b;" horiz-adv-x="408" 
d="M350 498q30 0 52 -9q0 -9 -6.5 -24t-13.5 -22q-33 9 -66 9q-48 0 -73 -28q-38 -44 -39 -163q24 0 77.5 0.5t84.5 0.5q0 -15 -2 -39h-161q-10 -195 -14 -227q-7 -58 -56 -104.5t-107 -46.5q-29 0 -47 7q0 20 20 46q26 -7 48 -7q85 0 94 115q9 103 11 217h-100q0 25 1 37
q16 0 48 0.5t48 0.5q4 0 4 6q3 77 13.5 108.5t43.5 65.5q56 57 140 57z" />
    <glyph glyph-name="numbersign.oldstyle" unicode="&#xe00c;" horiz-adv-x="517" 
d="M200 486q30 2 44 2q-8 -49 -26 -147h119q3 15 25 146q14 1 43 1q-4 -26 -12.5 -75.5t-12.5 -70.5h105q0 -1 -1 -16.5t-2 -22.5h-110q-4 -24 -12 -70l-12 -69h113q0 -25 -2 -37q-17 0 -57 -0.5t-61 -0.5q-3 -15 -13.5 -75.5t-16.5 -92.5q-26 -2 -40 -1q9 57 29 169h-120
q-9 -56 -29 -168q-26 -2 -40 -1l14.5 87t13.5 82q-17 0 -53.5 -0.5t-52.5 -0.5q0 17 2 39h112q4 23 11 69.5t11 69.5h-113q0 26 1 37q42 1 120 1q16 98 23 145zM211 303q-8 -45 -24 -139h120q15 85 22 139h-118z" />
    <glyph glyph-name="bullet.001" unicode="&#xe00d;" horiz-adv-x="1000" 
d="M615 636q2 -39 2.5 -127t1.5 -114q-50 -2 -239 -2v77.5v93.5v70q67 4 235 2zM334 353q2 -34 1.5 -118.5t0.5 -121.5q-94 -5 -238 -3q-3 101 1 242q68 3 235 1zM901 353q0 -181 -1 -242q-118 -3 -235 0q-3 126 0 243q42 1 130.5 0t105.5 -1zM616 68q3 -184 1 -241
q-157 -2 -236 0q-1 33 -1 77t0.5 94.5t0.5 71.5q168 0 235 -2z" />
    <glyph glyph-name="bullet.002" unicode="&#xe00e;" horiz-adv-x="1000" 
d="M515 734q76 -150 134 -300q0 -1 -4 -7q-114 -4 -294 -2q40 109 137 309h27zM998 246q0 -20 -1 -30q-182 -97 -299 -144q-1 25 -1 312q200 -79 301 -138zM0 213v25q135 71 305 143q2 -83 2 -314q-216 96 -307 146zM351 26l4 10q265 0 296 -1q-60 -163 -129 -305h-32
q-54 100 -139 296z" />
    <glyph glyph-name="bullet.003" unicode="&#xe00f;" horiz-adv-x="1000" 
d="M334 635q1 -35 1.5 -118t1.5 -119q-80 -4 -241 -4q0 39 -0.5 123.5t-0.5 116.5q93 5 239 1zM902 635q0 -98 -2 -240q-133 -2 -239 0q-1 85 1 242q102 2 240 -2zM618 350q2 -136 2 -240q-124 -3 -241 0q-2 52 1 241q169 0 238 -1zM334 67q3 -97 1 -241q-70 -3 -238 0
q-5 122 0 239q94 4 237 2zM903 65q0 -116 -4 -240q-85 -1 -238 1q0 166 2 240q104 3 240 -1z" />
    <glyph glyph-name="bullet.004" unicode="&#xe010;" horiz-adv-x="1000" 
d="M15 723q209 3 461 1q9 -219 1 -486q-88 -2 -462 -2v487zM81 651q-3 -263 1 -340q80 -4 333 3q1 72 -5 339q-34 1 -329 -2zM163 566q33 2 166 2q2 -48 2 -172q-52 -2 -168 0q-2 89 0 170zM664 567q25 1 168 1q2 -46 2 -173q-107 -4 -169 0q-1 27 -1 172zM521 226
q167 1 462 -1q2 -264 0 -486q-201 -3 -463 1q-4 254 1 486zM587 155q-6 -190 -2 -341q240 -6 333 -4q2 233 0 340q-233 6 -331 5zM669 64q46 2 167 2q2 -56 2 -172q-27 -1 -55.5 -1t-62 0.5t-51.5 0.5v170zM163 61h168q1 -17 1 -173q-112 -2 -169 -1q-2 112 0 174z" />
    <glyph glyph-name="bullet.005" unicode="&#xe011;" horiz-adv-x="916" 
d="M85 262l7 4q479 0 668 4q2 302 -1 420q34 3 74 0q-1 -193 -1 -485l-8 -5h-207t-250.5 -0.5t-208.5 -2.5q-3 -86 0 -421q-42 -2 -67 -1l-7 5q1 105 1 265.5v216.5zM200 408v279q181 2 281 1q1 -41 1 -137.5v-140.5q-62 -2 -282 -2zM270 474q98 -2 143 1q0 82 -3 148
q-28 -1 -78.5 -2.5t-66.5 -1.5q3 -112 5 -145zM435 -223q-2 176 -2 281q186 0 283 -1v-85.5v-106.5v-87q-123 -3 -281 -1zM505 -159l3 -1q119 3 141 4q0 80 -3 146q-23 0 -73.5 -0.5t-71.5 -1.5q0 -100 4 -147z" />
    <glyph glyph-name="bullet.006" unicode="&#xe012;" horiz-adv-x="1000" 
d="M759 429v-85h233v-67q-71 -2 -233 -2v-84q160 0 233 -2v-65q-68 -1 -233 -1v-82q30 0 113 -1t120 -1v-66q-72 -1 -236 -1v-234q-12 0 -35.5 0.5t-31.5 0.5q0 29 -1.5 112t-1.5 113q-25 -1 -81 -1v-67.5v-87.5v-69q-9 -1 -66 -1v226h-81v-69.5v-89.5v-67q-13 -1 -36.5 0
t-30.5 1q0 27 -0.5 110t-0.5 114h-78q-1 -41 -2 -126t-1 -98h-66q-1 32 -1 117.5v114.5q-161 0 -234 1q-1 21 -1 66q32 0 115 1t119 2q-1 30 -1 84q-33 1 -117 0t-115 -1v22v25v18q195 3 232 3v85q-31 1 -114 1h-118q-1 12 -1 67h73.5h92h67.5v84q-30 0 -112.5 0.5
t-119.5 0.5q-1 12 -1 67q35 0 119.5 0.5t115.5 0.5v228q11 0 34 0.5t32 0.5q1 -30 1.5 -110.5t0.5 -112.5q25 1 82 1v220q21 1 65 1q3 -162 3 -221h79q1 35 1.5 118.5t0.5 102.5q10 1 21.5 1t24.5 -0.5t19 -0.5q1 -25 1.5 -108.5t0.5 -112.5q13 0 40 -0.5t40 -0.5
q0 110 2 222h66v-227q32 -1 117 -1.5t119 -0.5q2 -42 2 -65q-40 -1 -130 -2t-105 -1zM686 433q-134 3 -376 3q0 -30 -0.5 -101t-0.5 -144.5t1 -153.5q202 -5 381 -2q0 99 -2.5 240.5t-2.5 157.5z" />
    <glyph glyph-name="bullet.007" unicode="&#xe013;" horiz-adv-x="1000" 
d="M500 -216l-9 14q268 573 439 904l18 2q2 -117 2 -920q-67 0 -224.5 -0.5t-225.5 0.5zM418 -203l-9 -11q-31 -1 -359 -1v889l10 6q246 5 357 0q0 -526 1 -883zM594 -144l5 -8q195 3 277 7q2 65 6.5 290.5t7.5 324.5l-8 1q-161 -325 -288 -615z" />
    <glyph glyph-name="bullet.008" unicode="&#xe014;" horiz-adv-x="1000" 
d="M409 680l9 -9v-886q-80 -2 -358 0l-9 6q-1 215 -1 890q328 0 359 -1zM948 -238l-18 1q-175 340 -438 905q4 10 6 14q68 1 226 0.5t225 -0.5q3 -703 -1 -920zM605 616l-5 -6q115 -275 282 -613l7 1q-1 128 -14 615q-54 3 -270 3z" />
    <glyph glyph-name="bullet.009" unicode="&#xe015;" horiz-adv-x="1000" 
d="M508 -205l-6 -14q-68 -1 -226 -0.5t-225 0.5q-3 703 1 920l18 -1q175 -343 438 -905zM591 -217l-10 8q1 356 1 889q44 0 179 0.5t180 -0.5l8 -6q1 -216 1 -891h-359zM397 -156l5 8q-93 219 -281 613h-8q1 -88 3.5 -307.5t4.5 -307.5q84 -4 276 -6z" />
    <glyph glyph-name="bullet.010" unicode="&#xe016;" horiz-adv-x="1000" 
d="M502 681l7 -14q-284 -605 -438 -904l-18 -1q-3 273 -1 919h450zM582 671l8 9q44 -1 106 -1t140.5 0.5t113.5 0.5q0 -204 -0.5 -500t-0.5 -391l-9 -6q-291 0 -358 2v886zM401 606l-4 8q-195 3 -272 0q-5 -125 -10 -617l8 -1q198 423 278 610z" />
    <glyph glyph-name="bullet.011" unicode="&#xe017;" horiz-adv-x="860" 
d="M235 -315l-6 4q34 95 69 181q-140 0 -201 1v701q312 3 665 2q3 -488 2 -702q-66 -1 -199 -1q10 -30 33 -90.5t33 -89.5l-6 -7q-331 0 -390 1zM431 220h9q17 -45 54 -145.5t49 -131.5q5 0 61 1t84 2q4 276 4 558q-299 -2 -520 -6q-4 -540 -4 -554q94 -2 158 -2
q99 262 105 278z" />
    <glyph glyph-name="bullet.012" unicode="&#xe018;" horiz-adv-x="860" 
d="M659 755l3 -7q-7 -29 -24.5 -92t-25.5 -92h49h54.5h45.5q0 -510 -1 -687q-382 -2 -659 -1q0 600 1 687q50 1 143 1q-55 167 -61 185l6 6q40 0 141 0.5t185 0.5t143 -1zM425 183l10 -1q105 374 138 503q-114 5 -289 3l-4 -6q124 -433 145 -499z" />
    <glyph glyph-name="bullet.013" unicode="&#xe019;" horiz-adv-x="1000" 
d="M90 23l-7 5q-2 220 1 389l4 5q23 -9 80 -32.5t87 -35.5v220q88 0 231 0.5t246 0.5t185 -1q3 -334 2 -703q-176 -2 -662 -2q-1 39 -1 219q-71 -29 -166 -65zM583 222l1 -9q-124 -52 -255 -102q0 -51 2 -165q191 -4 517 -4q-2 386 -5 557q-4 0 -199.5 2t-314.5 2
q-2 -116 -1 -178q101 -38 255 -103z" />
    <glyph glyph-name="bullet.014" unicode="&#xe01a;" horiz-adv-x="1000" 
d="M911 -7l-7 -3q-61 20 -163 48q1 -2 0.5 -79t-0.5 -79q-492 0 -651 2q-4 343 -1 680q54 0 178.5 0.5t242.5 0.5t230 -1q1 -56 1 -152q141 50 164 58l6 -5q2 -310 0 -470zM361 227l-1 -10q340 -98 484 -138q2 196 0 288l-5 6q-29 -9 -209.5 -63t-268.5 -83z" />
    <glyph glyph-name="bullet.015" unicode="&#xe01b;" horiz-adv-x="1000" 
d="M0 56v676h1000v-670l-7 1q-35 44 -148 167h-7q-55 -56 -150 -164h-5q-70 98 -161 214h-6q-1 -1 -172 -207l-8 -1q-97 116 -154 176h-10q-54 -61 -165 -192h-7zM0 -268v155q66 0 291.5 -1t406.5 -0.5t302 2.5v-156h-1000z" />
    <glyph glyph-name="bullet.016" unicode="&#xe01c;" horiz-adv-x="394" 
d="M207 395h-21q-62 103 -168 297l5 8q291 0 344 -1q-61 -127 -160 -304zM195 334q39 0 65 -29t26 -70q0 -45 -25 -75t-66 -30q-42 0 -70.5 28t-28.5 70q0 46 29 76t70 30zM184 70l19 -1q58 -94 169 -297l-5 -8q-291 0 -344 1q79 161 161 305z" />
    <glyph glyph-name="bullet.017" unicode="&#xe01d;" horiz-adv-x="1000" 
d="M660 218l1 22q66 41 289 169l8 -5q0 -313 -1 -348q-189 99 -297 162zM340 241v-19q-168 -102 -290 -171l-8 5q0 313 1 348q143 -73 297 -163zM590 229q0 -41 -24 -68t-61 -27q-45 0 -70 27t-25 67q0 41 25.5 71t63.5 30q39 0 65 -28t26 -72z" />
    <glyph glyph-name="bullet.018" unicode="&#xe01e;" horiz-adv-x="574" 
d="M0 315v33q160 2 251 1q64 -43 114.5 -88.5t112.5 -111.5q67 0 96 1v-33q-152 -2 -251 -1q-41 23 -122.5 94t-111.5 106q-12 0 -43 -0.5t-46 -0.5z" />
    <glyph glyph-name="bullet.019" unicode="&#xe01f;" horiz-adv-x="574" 
d="M574 348v-32q-14 0 -45.5 0.5t-43.5 0.5q-30 -35 -111.5 -106.5t-122.5 -94.5q-98 -1 -251 1v32h96q62 66 112.5 111.5t114.5 88.5q91 1 251 -1z" />
    <glyph glyph-name="bullet.020" unicode="&#xe020;" horiz-adv-x="982" 
d="M48 93l4 3q104 -65 146 -93l-1 -3q-24 -1 -78 -0.5t-76 0.5q-6 48 5 93zM144 385h3q28 -87 39 -125q-15 -3 -107 -18q4 27 23.5 72.5t41.5 70.5zM410 538l3 -3q-27 -83 -40 -117q-65 31 -116 59q20 21 67.5 40.5t85.5 20.5zM718 473l-2 -4q-52 -27 -104 -52
q-8 20 -24 59.5t-23 59.5q42 -3 85.5 -22t67.5 -41zM833 378l3 3q28 -34 46 -80t23 -78q-36 10 -108 33q13 47 36 122zM725 50h-5q-11 103 -73 178q-57 62 -152 62q-57 0 -97 -17t-77 -56q-61 -81 -69 -177h-5q-161 116 -184 133l1 3q113 22 203 38l1 2q-47 135 -69 207l2 5
q76 -35 202 -97h2q38 110 78 209h6q50 -108 91 -210h1q72 38 196 97l3 -4q-30 -102 -63 -209v-1q71 -19 185 -52v-5q-75 -48 -177 -106zM937 4l-3 -4h-163v4q29 16 86 47.5t70 38.5q7 -20 10 -86zM322 0l-3 5q0 46 14.5 89t35.5 66q50 56 122 56q80 0 122 -65
q35 -59 40 -149q-34 -2 -179 -2h-152z" />
    <glyph glyph-name="bullet.021" unicode="&#xe021;" horiz-adv-x="886" 
d="M527 76l1 -2q65 1 174 8.5t123 13.5q3 -25 -1.5 -56t-12.5 -39q-73 -1 -301 -1q-352 2 -439 3q-15 23 -15 93q60 -15 300 -22l1 2q-187 178 -267 286q2 22 16.5 46t30.5 32q37 -57 131.5 -165t132.5 -138h2q0 83 -11 464q13 11 41 18.5t50 3.5q-2 -56 -5 -243t-1 -251
l2 -1q52 55 130.5 154t114.5 157q11 1 30 -24t23 -51q-32 -51 -109.5 -138.5t-140.5 -149.5z" />
    <glyph glyph-name="bullet.022" unicode="&#xe022;" horiz-adv-x="1000" 
d="M500 483l5 6q241 4 491 2l3 -4q-82 -192 -231 -513h-7q-164 303 -261 509zM256 489l7 1q133 -296 227 -513l-3 -4q-294 -3 -488 1q-4 2 -5 4q125 258 262 511zM592 434l-3 -3q7 -13 72.5 -140.5t95.5 -183.5l5 -1q95 195 152 325l-2 3q-90 5 -320 0zM252 356l-4 -1
q-71 -134 -164 -323l3 -3q104 -2 315 2l2 3q-54 121 -152 322z" />
    <glyph glyph-name="bullet.023" unicode="&#xe023;" horiz-adv-x="1000" 
d="M761 84l-8 -1q-106 168 -244 412l5 9q42 1 475 1l4 -10q-144 -266 -232 -411zM489 -34l-5 -9q-124 -2 -471 1l-6 10q124 224 241 408h8q108 -181 233 -410z" />
    <glyph glyph-name="bullet.024" unicode="&#xe024;" horiz-adv-x="672" 
d="M501 -48l-12 1q-149 206 -331 439q-106 -137 -158 -205v99q125 171 155 214h12q236 -316 329 -436h9q19 25 167 222v-99q-15 -21 -74.5 -103t-96.5 -132zM508 271h-11q-93 138 -142 213l2 11q190 2 292 1l4 -11q-57 -87 -145 -214zM306 -26l-3 -11q-41 -1 -292 -1l-3 11
q64 101 140 214l11 1q60 -86 147 -214z" />
    <glyph glyph-name="bullet.025" unicode="&#xe025;" horiz-adv-x="1000" 
d="M743 -24l-6 -5q-83 0 -246 0.5t-245 1.5l-6 4q-1 243 1 740l6 2q503 -233 694 -327l1 -8q-120 -251 -199 -408zM705 30l5 2q63 137 147 332l-2 7q-281 130 -549 246l-4 -4q-1 -99 2 -577q58 0 125 -1t148 -2.5t128 -2.5zM674 121l-3 -3q-158 22 -321 50l-2 5
q111 154 214 280l3 1q52 -150 109 -333zM614 170l1 2q-38 108 -71 187h-3q-97 -125 -121 -157l1 -3q74 -14 193 -29z" />
    <glyph glyph-name="bullet.026" unicode="&#xe026;" horiz-adv-x="1000" 
d="M16 -27l-2 6q217 469 327 694l8 1q212 -99 407 -199l5 -6q0 -83 -0.5 -246t-1.5 -245l-4 -6q-242 -1 -739 1zM116 38l4 -4q99 -1 577 2q0 66 2 199t3 202l-2 5q-179 84 -330 147l-7 -2q-100 -214 -247 -549zM272 301l-1 4q152 56 327 116l3 -3q-19 -183 -43 -337l-4 -2
q-83 60 -282 222zM366 284v-3q109 -89 159 -129l3 1q14 104 20 209l-2 1q-63 -26 -180 -79z" />
    <glyph glyph-name="bullet.027" unicode="&#xe027;" horiz-adv-x="1000" 
d="M244 -11l-5 6q0 83 0.5 246t1.5 245l4 6q242 1 739 -1l2 -6q-226 -487 -327 -694l-8 -1q-213 101 -407 199zM298 27l2 -5q141 -65 330 -147l7 2q95 204 247 549l-4 4q-99 1 -577 -2q0 -65 -2 -198t-3 -203zM401 47l-3 3q23 188 44 333l5 2q131 -93 279 -222l1 -3
q-126 -48 -326 -113zM451 106l2 -1q116 45 179 75v3q-93 79 -157 129l-3 -1q-8 -59 -21 -205z" />
    <glyph glyph-name="bullet.028" unicode="&#xe028;" horiz-adv-x="1000" 
d="M257 487l6 5q83 0 246 -0.5t245 -1.5l6 -4q1 -243 -1 -740l-6 -2q-487 226 -694 327l-1 8q98 207 199 408zM295 433l-5 -2q-69 -150 -147 -331l2 -7q204 -95 549 -247l4 4q1 100 -2 578q-65 0 -198 2t-203 3zM324 342l3 3q121 -16 324 -49l2 -6q-57 -81 -219 -282l-3 -1
q-78 234 -107 335zM383 292l-1 -2q53 -157 66 -191h3q82 102 130 163l-1 3q-83 13 -197 27z" />
    <glyph glyph-name="bullet.029" unicode="&#xe029;" horiz-adv-x="1000" 
d="M775 567l-1 -13q-46 -55 -125 -151t-88 -108q117 -119 252 -241h9q38 48 107.5 139t70.5 93v-99q-166 -225 -171 -232l-15 1q-110 107 -349 331q148 175 218 264q-45 35 -132 101t-105 80h99q101 -73 230 -165zM479 526v-13q-61 -70 -194 -233l1 -12q172 -165 325 -304
h-99q-45 42 -138.5 126.5t-140.5 128.5q-2 53 0 105q122 147 149 180l-1 9q-60 51 -148 122q-2 42 0 83q27 -21 77.5 -60.5t91.5 -71.5t77 -60zM711 310q69 86 98 120q31 -27 99 -91q-72 -92 -99 -125q-68 66 -98 96z" />
    <glyph glyph-name="bullet.030" unicode="&#xe02a;" horiz-adv-x="1000" 
d="M446 732h100q-131 -102 -228 -181q57 -73 217 -264q-35 -33 -157.5 -149t-191.5 -182l-15 -1q-126 172 -171 232v99q24 -30 84.5 -109.5t94.5 -122.5h9q138 125 251 241q-164 202 -213 259v13q24 18 67.5 50t80 60t72.5 55zM714 268l1 12q-119 148 -194 233l1 13
q78 59 245 193q2 -41 0 -83q-63 -52 -148 -123v-9q53 -67 148 -180q2 -52 0 -105q-47 -44 -140.5 -128.5t-138.5 -126.5q-48 -1 -98 0q162 147 324 304zM290 310q-15 -15 -48 -47t-50 -49q-27 33 -99 125q83 78 98 91q31 -36 99 -120z" />
    <glyph glyph-name="bullet.031" unicode="&#xe02b;" horiz-adv-x="1000" 
d="M545 -268h-100q176 133 237 181q-90 115 -217 263q21 20 150 142t199 190l15 1q27 -35 83.5 -109t87.5 -114v-100q-121 155 -179 225h-9q-129 -117 -251 -242q30 -36 100 -122t113 -137v-13q-221 -159 -229 -165zM286 195l-1 -12q128 -158 194 -232l-1 -13
q-62 -46 -245 -193q-2 41 0 83q63 52 148 123v9q-53 67 -148 180q-2 53 0 105l279 255q50 1 98 0q-131 -117 -324 -305zM710 154q32 33 98 95q66 -79 99 -124q-67 -63 -98 -91q-17 20 -49.5 60t-49.5 60z" />
    <glyph glyph-name="bullet.032" unicode="&#xe02c;" horiz-adv-x="1000" 
d="M545 -268h-99q-67 51 -221 165l1 13q43 51 113 137t100 122q-125 128 -252 242h-9q-44 -54 -178 -225v100q18 23 76 99.5t95 123.5l15 -1q70 -68 195.5 -186.5t153.5 -145.5q-120 -140 -218 -263q58 -46 228 -181zM715 183l-1 12q-175 172 -325 305q1 0 49.5 0.5
t49.5 -0.5q41 -38 87.5 -80.5t103.5 -94.5t88 -80q2 -52 0 -105q-122 -147 -149 -180l1 -9q36 -31 148 -123q2 -42 0 -83q-181 145 -246 193v13q43 49 194 232zM289 154q-64 -80 -98 -120q-64 58 -99 91q16 22 99 124q51 -47 98 -95z" />
    <glyph glyph-name="bullet.033" unicode="&#xe02d;" horiz-adv-x="1000" 
d="M889 353l1 -15q-60 -117 -212 -379q-49 0 -138.5 -1t-165 -1t-147.5 2q-4 512 1 744l10 4q348 -174 651 -354zM551 467l-6 2q-145 -158 -254 -298l2 -6q159 -48 352 -92l5 5q-37 167 -99 389z" />
    <glyph glyph-name="bullet.034" unicode="&#xe02e;" horiz-adv-x="1000" 
d="M380 621l14 1q147 -75 380 -212q0 -49 1 -138.5t1 -164.5t-2 -147q-480 -6 -745 0l-4 11q204 396 355 650zM258 299l-1 -7q123 -125 282 -267l7 2q48 170 93 370l-5 5q-193 -48 -376 -103z" />
    <glyph glyph-name="bullet.035" unicode="&#xe02f;" horiz-adv-x="1000" 
d="M621 -157l-15 -1q-120 62 -380 212q0 49 -1 138.5t-1 165t2 147.5q512 4 745 -1l4 -10q-193 -381 -354 -651zM735 181l1 6q-135 127 -297 254l-7 -2q-32 -152 -62 -368l5 -5q159 45 360 115z" />
    <glyph glyph-name="bullet.036" unicode="&#xe030;" horiz-adv-x="1000" 
d="M111 111l-1 15q74 143 212 379q49 0 138.5 1t165 1t147.5 -2q4 -510 -1 -744l-10 -4q-364 185 -651 354zM434 -10l6 -2q129 128 268 281l-2 6q-123 42 -360 107l-5 -5q39 -183 93 -387z" />
    <glyph glyph-name="sterling.fitted" unicode="&#xe031;" horiz-adv-x="507" 
d="M340 654q51 0 85 -14q8 -85 10 -132q-7 -1 -20.5 -2.5t-20.5 -2.5l-14 93q-3 10 -11 14q-22 7 -55 7q-54 0 -88 -35q-38 -36 -38 -112q0 -9 13 -149q42 0 188 2q0 -16 -2 -38q-130 0 -182 -1q2 -24 2 -33q0 -118 -59 -205q-6 -10 9 -10q207 0 237 6q12 3 19 21l34 98
q10 -2 37 -9q-5 -21 -37 -152h-325h-108q0 5 0.5 17t0.5 18l67 3q12 0 17 7q57 57 57 179q0 32 -4 60h-102q0 14 2 36q31 1 92 1q5 0 5 6q-13 115 -13 130q0 93 56 146q57 51 148 51z" />
    <glyph glyph-name="sterling.oldstyle" unicode="&#xe032;" horiz-adv-x="484" 
d="M388 55l26 76q20 -3 37 -9q-13 -53 -32 -122h-285h-106q0 24 1 35l61 1q5 0 13 5q45 47 45 131q0 20 -2 40h-91q0 25 1 37q14 0 41.5 0.5t40.5 0.5q5 0 5 5q-10 76 -10 88q0 70 51 114q45 41 136 41q53 0 83 -11q6 -66 8 -108q-24 -2 -38 -3l-12 70q-2 8 -9 10
q-26 7 -51 7q-55 0 -79 -24q-37 -33 -37 -87q0 -14 10 -102q27 0 86.5 0.5t97.5 0.5q1 -13 -1 -39h-179q0 -2 0.5 -9t0.5 -11q0 -83 -47 -149q-4 -8 7 -8q178 0 213 5q10 3 15 15z" />
    <glyph glyph-name="yen.fitted" unicode="&#xe033;" horiz-adv-x="513" 
d="M240 44v101q-21 0 -76.5 -0.5t-80.5 -0.5q0 26 1 37h156v65h-159q0 24 1 35q49 1 144 1q-31 57 -87 163t-78 148q-2 4 -6 4l-44 2q0 24 1 36q8 0 33 -0.5t40 -0.5q25 0 68 0.5t61 0.5q0 -24 -1 -36l-95 -3q75 -149 148 -299h4q88 177 143 295q0 5 -4 5l-88 2q0 24 1 35
h114q12 0 39 0.5t36 0.5q0 -24 -1 -35l-44 -4q-98 -189 -166 -314q25 0 72.5 0.5t70.5 0.5q1 -12 -1 -37h-156l-1 -65q26 0 78.5 0.5t76.5 0.5q0 -25 -2 -36q-19 0 -74 -0.5t-79 -0.5l-1 -106l100 -3q1 -13 -1 -36q-16 0 -57 0.5t-62 0.5q-19 0 -59 -0.5t-59 -0.5q0 24 1 35
l87 3q6 0 6 6z" />
    <glyph glyph-name="yen.oldstyle" unicode="&#xe034;" horiz-adv-x="449" 
d="M225 235h4q69 115 124 214q3 4 -3 4l-68 2q0 22 1 33h99h64v-9.5v-12v-10.5l-41 -3q-18 -27 -68.5 -108.5t-80.5 -126.5h128q0 -22 -1 -33h-139l-1 -46h138q0 -21 -1 -31q-20 0 -68 -0.5t-69 -0.5v-71l89 -2q0 -23 -1 -34q-18 0 -54 0.5t-53 0.5q-16 0 -51.5 -0.5
t-55.5 -0.5q0 22 1 34l79 2q5 0 5 4v67q-18 0 -66.5 -0.5t-73.5 -0.5q0 23 1 33h139v46h-141v32q43 1 129 1q-84 128 -148 232q-3 3 -5 3l-41 2q0 23 1 33h64h110q0 -21 -1 -33l-73 -2q9 -15 56 -95.5t72 -122.5z" />
    <glyph glyph-name="uniF634" unicode="&#xf634;" horiz-adv-x="300" 
d="M149 -47q20 0 36.5 -20.5t16.5 -47.5q0 -79 -83 -130q-3 4 -9.5 13t-9.5 13q52 32 52 76q0 29 -38 38q-4 24 7.5 41t27.5 17z" />
    <glyph glyph-name="space_uni0326" unicode="&#xf6c3;" horiz-adv-x="300" 
d="M150 -54q19 0 34.5 -18.5t15.5 -41.5q0 -70 -79 -115q-8 8 -18 22q50 31 50 68q0 24 -36 34q-4 21 6.5 36t26.5 15z" />
    <glyph glyph-name="acute.cap" unicode="&#xf6c9;" horiz-adv-x="300" 
d="M354 840q17 -21 31 -44q-22 -12 -50.5 -29t-61.5 -36.5t-48 -28.5q-13 17 -19 27q14 11 45 34t57 42t46 35z" />
    <glyph glyph-name="caron.cap" unicode="&#xf6ca;" horiz-adv-x="300" 
d="M267 762q9 6 49 33t58 40q6 -5 22 -26q-84 -71 -113 -95h-32q-93 78 -112 93q6 8 22 26q12 -8 49 -33t57 -38z" />
    <glyph glyph-name="dieresis.cap" unicode="&#xf6cb;" horiz-adv-x="300" 
d="M194 798q19 0 27.5 -13t8.5 -28q0 -13 -10 -24.5t-26 -11.5q-18 0 -28.5 10.5t-10.5 27.5q0 15 10 27t29 12zM353 798q18 0 27 -12t9 -27q0 -16 -10 -27t-25 -11q-19 0 -29.5 11.5t-10.5 24.5q0 15 9 28t30 13z" />
    <glyph glyph-name="grave.cap" unicode="&#xf6ce;" horiz-adv-x="300" 
d="M196 840q28 -20 82.5 -61.5t64.5 -49.5q-6 -10 -19 -27q-4 2 -67 39.5t-93 54.5q16 26 32 44z" />
    <glyph glyph-name="hungarumlaut.cap" unicode="&#xf6cf;" horiz-adv-x="300" 
d="M274 851q12 -12 32 -38q-125 -88 -138 -97q-3 5 -10 14t-10 13q96 82 126 108zM384 847q20 -20 31 -36q-65 -45 -137 -100q-4 5 -11 15t-9 12q12 10 38.5 33t48.5 42.5t39 33.5z" />
    <glyph glyph-name="macron.cap" unicode="&#xf6d0;" horiz-adv-x="300" 
d="M379 778v-41h-212q-2 19 0 39q36 1 106 1.5t106 0.5z" />
    <glyph glyph-name="R_p" unicode="&#xf6dd;" horiz-adv-x="1020" 
d="M127 607l-73 2q0 24 1 35q102 2 180 2q73 0 127 -16q49 -14 83 -53.5t34 -93.5q0 -64 -38.5 -110.5t-101.5 -68.5v-5q7 -3 14 -7.5t13 -9t13 -12.5t11.5 -13.5t11.5 -16.5t11 -18t12 -22t12.5 -22.5t14 -26t14.5 -28.5q28 -53 40 -68.5t22 -14.5l87 -1v327h-67v9v11v9
q8 2 35.5 9.5t49 13.5t25.5 6q2 0 2 -3q4 -29 5 -50l4 -2q66 36 93.5 45.5t57.5 9.5q73 0 116.5 -59.5t42.5 -129.5q0 -72 -22 -120q-29 -64 -80 -97q-43 -28 -107 -28q-53 0 -100 26l-3 -3q0 -30 -0.5 -106.5t-0.5 -105.5l96 -2q0 -22 -1 -33q-80 0 -121 -1q-63 0 -90 -1
v33l61 4q4 0 4 5v197q-30 -2 -88 -2q-17 -1 -48 -1q-21 25 -71.5 120.5t-65.5 116.5q-20 28 -40 37.5t-60 9.5q-52 0 -62 -2v-242l93 -3q0 -25 -1 -37q-15 0 -55 0.5t-60 0.5q-19 0 -54 -0.5t-50 -0.5q0 25 1 36l68 4q5 0 5 3v564zM183 605l-2 -283q6 -2 57 -2q50 0 88 14.5
t57.5 37.5t29 46.5t9.5 47.5q0 73 -47.5 108.5t-132.5 35.5q-49 0 -59 -5zM803 379q-64 0 -134 -52q-2 -162 -2 -246q0 -18 34 -36.5t74 -18.5q54 0 92 37q55 53 55 151q0 64 -24 108q-31 57 -95 57z" />
    <glyph glyph-name="cent.inferior" unicode="&#xf6df;" 
d="M158 -123l1 58q-49 3 -80.5 29.5t-31.5 71.5q0 47 30.5 81t83.5 40v58q11 1 35 1l-1 -55h5q38 0 72 -16q0 -9 -7.5 -20.5t-14.5 -15.5q-32 21 -55 21l-3 -163q31 1 75 21q6 -12 9 -27q-44 -22 -84 -25l-1 -58q-11 -1 -33 -1zM159 -32l2 160q-30 -2 -50.5 -27.5
t-20.5 -55.5q0 -45 31 -65q13 -10 38 -12z" />
    <glyph glyph-name="cent.superior" unicode="&#xf6e0;" 
d="M158 424l1 58q-49 3 -80.5 29.5t-31.5 71.5q0 47 30.5 81t83.5 40v58q11 1 35 1l-1 -55h5q38 0 72 -16q0 -9 -7.5 -20.5t-14.5 -15.5q-32 21 -55 21l-3 -163q31 1 75 21q6 -12 9 -27q-44 -22 -84 -25l-1 -58q-11 -1 -33 -1zM159 515l2 160q-30 -2 -50.5 -27.5
t-20.5 -55.5q0 -45 31 -65q13 -10 38 -12z" />
    <glyph glyph-name="comma.inferior" unicode="&#xf6e1;" horiz-adv-x="219" 
d="M155 -99q0 -66 -78 -111q-5 6 -18 23q49 29 49 65q0 24 -37 33q-4 20 7 35t27 15q19 0 34.5 -18t15.5 -42z" />
    <glyph glyph-name="comma.superior" unicode="&#xf6e2;" horiz-adv-x="219" 
d="M155 448q0 -64 -78 -111q-5 5 -18 23q49 29 49 65q0 24 -37 33q-4 20 7 35t27 15q19 0 34.5 -18t15.5 -42z" />
    <glyph glyph-name="dollar.inferior" unicode="&#xf6e3;" 
d="M179 163l-2 -93q95 -22 95 -77q0 -37 -28 -59q-29 -23 -72 -24l-1 -53q-5 0 -16 -0.5t-17 -0.5l1 54q-63 -2 -105 23q5 23 21 35q41 -27 85 -28l1 102q-93 21 -93 75q0 35 34 56q21 16 65 20v55q22 2 34 2l-1 -56q54 -4 83 -19q0 -7 -7 -19t-13 -16q-32 22 -64 23z
M145 78l1 84q-26 0 -41 -13q-13 -13 -13 -29q0 -29 53 -42zM174 34l-2 -93q23 1 38 11q19 14 19 36q0 17 -12.5 27.5t-42.5 18.5z" />
    <glyph glyph-name="dollar.superior" unicode="&#xf6e4;" 
d="M179 710l-2 -93q95 -22 95 -77q0 -37 -28 -59q-29 -23 -72 -24l-1 -53q-10 -1 -33 -1l1 54q-63 -2 -105 23q5 23 21 35q41 -27 85 -28l1 102q-93 21 -93 75q0 35 34 56q21 16 65 20v55q22 2 34 2l-1 -56q54 -4 83 -19q0 -7 -7 -19t-13 -16q-32 22 -64 23zM145 625l1 84
q-26 0 -41 -13q-13 -13 -13 -29q0 -29 53 -42zM174 581l-2 -93q21 0 38 11q19 14 19 36q0 17 -12.5 27.5t-42.5 18.5z" />
    <glyph glyph-name="hyphen.inferior" unicode="&#xf6e5;" horiz-adv-x="241" 
d="M32 66q29 1 87 1q60 0 91 1q0 -8 -1 -20.5t-1 -17.5h-89h-88q0 24 1 36z" />
    <glyph glyph-name="hyphen.superior" unicode="&#xf6e6;" horiz-adv-x="241" 
d="M32 613q29 1 87 1q60 0 91 1q0 -8 -1 -20.5t-1 -17.5h-89h-88q0 24 1 36z" />
    <glyph glyph-name="period.inferior" unicode="&#xf6e7;" horiz-adv-x="219" 
d="M110 -40q17 0 25.5 -12t8.5 -26t-9.5 -25t-25.5 -11q-17 0 -27 10t-10 26q0 15 9.5 26.5t28.5 11.5z" />
    <glyph glyph-name="period.superior" unicode="&#xf6e8;" horiz-adv-x="219" 
d="M110 507q17 0 25.5 -12t8.5 -26t-9.5 -25t-25.5 -11q-17 0 -27 10t-10 26q0 15 9.5 26.5t28.5 11.5z" />
    <glyph glyph-name="b.superior" unicode="&#xf6ea;" horiz-adv-x="377" 
d="M105 611l2 -1q45 24 66 30.5t44 6.5q31 0 57 -18.5t38 -43.5q29 -52 22 -100q-3 -81 -57 -125q-40 -31 -98 -31q-50 0 -80 23l-14 -24q-6 0 -31 5q0 6 1.5 21t2.5 31.5t1 31.5v383l-58 3v27q19 2 59 10t43 8t3 -2q0 -33 -0.5 -113.5t-0.5 -121.5zM205 609q-48 0 -100 -36
q-1 -56 -1 -174q0 -13 24 -25.5t54 -12.5q39 0 68 26q38 36 38 101q0 61 -26 92q-23 29 -57 29z" />
    <glyph glyph-name="d.superior" unicode="&#xf6eb;" horiz-adv-x="398" 
d="M276 361h-3q-42 -21 -60 -26.5t-39 -5.5q-59 0 -94 36q-42 41 -42 111q0 71 47 124q42 47 114 47q36 0 71 -14l2 1q0 31 -0.5 85.5t-0.5 81.5l-64 1q0 20 1 28q17 2 42.5 6.5t44 8t22.5 3.5q1 0 1 -3q0 -65 -0.5 -226.5t-0.5 -233.5q0 -18 9 -18l56 1v-8.5v-10.5v-9
q-50 -11 -85 -11q-13 11 -21 32zM193 613q-46 0 -71 -31q-33 -36 -33 -102q0 -58 27 -88q25 -29 64 -29q44 0 87 30q4 3 4 9v192q-34 19 -78 19z" />
    <glyph glyph-name="e.superior" unicode="&#xf6ec;" horiz-adv-x="339" 
d="M39 477q0 96 63 141q35 29 89 29q55 0 84 -37q26 -35 26 -99q0 -3 -7 -10t-10 -8q-114 -2 -195 -2q-3 -63 25 -94q26 -32 79 -32q40 0 96 25q3 -8 8 -30q-57 -30 -114 -30q-70 0 -107 41t-37 106zM184 615q-34 0 -56 -20q-32 -29 -36 -72q109 0 150 2q9 0 9 8
q0 38 -22 62q-18 20 -45 20z" />
    <glyph glyph-name="i.superior" unicode="&#xf6ed;" horiz-adv-x="198" 
d="M102 792q16 0 24 -11.5t8 -23.5q0 -15 -10 -25.5t-25 -10.5q-16 0 -26 10.5t-10 24.5q0 15 10.5 25.5t28.5 10.5zM81 601l-63 2v27q15 2 40.5 6.5t44.5 8t23 3.5q1 0 1 -3q0 -40 -0.5 -139t-0.5 -138l58 -2q0 -5 -0.5 -15t-0.5 -15h-83h-77v30l55 2q3 0 3 3v230z" />
    <glyph glyph-name="l.superior" unicode="&#xf6ee;" horiz-adv-x="190" 
d="M69 803l-64 1v28q16 1 41.5 5t45 7.5t22.5 3.5t3 -2q-1 -74 -2 -244.5t-1 -233.5l65 -1q0 -21 -1 -30h-87q-14 0 -41 -0.5t-40 -0.5q0 21 1 30l55 2q2 0 2 4q2 280 1 431z" />
    <glyph glyph-name="m.superior" unicode="&#xf6ef;" horiz-adv-x="602" 
d="M81 600l-63 2q0 19 1 27q15 2 39 6.5t42 8t20 3.5t2 -2q2 -30 4 -39l2 -1q32 20 54 30t32 11.5t24 1.5q48 0 80 -50h1q47 32 69.5 40.5t49.5 8.5q49 0 78 -50q13 -25 13 -53q0 -27 -1 -87t-1 -89l53 -2q0 -20 -1 -30h-79h-67q0 20 1 29l46 3q2 0 2 3q0 26 0.5 75.5
t0.5 67.5q0 44 -10 65q-15 32 -55 32q-35 0 -90 -42v-201l55 -2q0 -20 -1 -30h-82h-66v30l47 2q1 0 1 3q1 49 1 147q0 48 -10 66q-15 28 -52 28q-41 0 -93 -42q0 -32 -1 -101t-1 -101l59 -2q0 -20 -1 -30h-80h-75q0 20 1 30l49 2q2 0 2 3v229z" />
    <glyph glyph-name="r.superior" unicode="&#xf6f1;" horiz-adv-x="271" 
d="M78 601l-60 1v27q15 2 39 7t41.5 8.5t20.5 3.5q1 0 1 -2q1 -16 1 -98h3q29 57 52 79t47 22q29 0 42 -9q0 -8 -5.5 -22t-10.5 -20q-2 0 -9 1.5t-14 2.5t-12 1q-12 0 -27 -12q-24 -22 -50 -74q-13 -22 -13 -68q-1 -27 -1 -81l75 -2v-29h-98q-13 0 -38 -0.5t-36 -0.5
q0 20 1 29l48 3q3 0 3 2v231z" />
    <glyph glyph-name="s.superior" unicode="&#xf6f2;" horiz-adv-x="303" 
d="M70 434l11 -49q1 -6 6 -10q21 -15 50 -15q39 0 59 12q22 14 22 42q0 27 -15.5 38t-59.5 24q-3 0 -4 0.5t-3 1l-4 1t-4 1.5q-43 13 -60.5 31.5t-17.5 48.5q0 44 42 69q31 18 84 18q50 0 71 -14q3 -26 7 -80q-10 -2 -34 -4l-10 49q0 5 -5 7q-16 11 -45 11q-35 0 -54 -20
q-12 -12 -12 -32q0 -23 14 -33t61 -23q24 -7 37.5 -13t28.5 -16t21.5 -24.5t6.5 -34.5q0 -45 -42 -73q-27 -18 -86 -18t-89 14q-2 13 -5.5 41.5t-5.5 43.5q18 4 35 6z" />
    <glyph glyph-name="t.superior" unicode="&#xf6f3;" horiz-adv-x="272" 
d="M76 405v121q1 23 1 76h-50q0 23 1 34q15 1 46 1q5 0 5 5q0 25 2 69q32 21 42 21q2 0 2 -2q0 -13 -0.5 -44.5t-0.5 -48.5q81 0 121 1q0 -12 -2 -36h-120q0 -1 -0.5 -36.5t-0.5 -46.5v-108q0 -47 51 -47q25 0 72 12q4 -20 5 -29q-54 -17 -94 -17q-43 0 -62 17
q-9 8 -13 18.5t-4.5 16.5t-0.5 23z" />
    <glyph glyph-name="breve.sc" unicode="&#xf6f4;" horiz-adv-x="300" 
d="M148 540q-40 0 -69 26t-39 64q12 6 32 12q17 -29 34.5 -43t44.5 -14q48 0 76 52q21 -4 34 -9q-8 -30 -39.5 -59t-73.5 -29z" />
    <glyph glyph-name="caron.sc" unicode="&#xf6f5;" horiz-adv-x="300" 
d="M151 600q15 14 46 46t44 44q20 -18 24 -22q-17 -20 -53.5 -63.5t-46.5 -55.5h-29l-30 36l-37.5 45l-32.5 39q10 11 24 21q13 -13 45.5 -45t45.5 -45z" />
    <glyph glyph-name="circumflex.sc" unicode="&#xf6f6;" horiz-adv-x="300" 
d="M151 622q-27 -26 -91 -90q-14 10 -24 21q12 14 32.5 39t37.5 44.5t31 35.5q10 1 29 1q12 -14 47 -56.5t52 -62.5q-8 -8 -24 -22z" />
    <glyph glyph-name="dotaccent.sc" unicode="&#xf6f7;" horiz-adv-x="300" 
d="M152 631q39 0 39 -43q0 -15 -10.5 -27.5t-28.5 -12.5t-30 12t-12 29q0 16 10.5 29t31.5 13z" />
    <glyph glyph-name="hungarumlaut.sc" unicode="&#xf6f8;" horiz-adv-x="300" 
d="M196 668q10 -12 28 -40q-123 -71 -146 -84q-4 5 -9.5 15t-8.5 14q65 45 136 95zM335 664q13 -14 28 -39q-117 -68 -146 -86q-3 6 -9.5 15.5t-8.5 13.5q109 77 136 96z" />
    <glyph glyph-name="lslash.sc" unicode="&#xf6f9;" horiz-adv-x="469" 
d="M178 228l-1 -177q0 -10 5 -12.5t29 -2.5q126 0 150 5q11 1 15 15l31 84q16 -1 38 -9q-11 -51 -32 -131h-255h-97q0 21 1 33l60 3q3 0 3 3v163q-14 -7 -41.5 -21.5t-35.5 -18.5q-2 4 -7.5 14.5t-7.5 16.5q50 27 92 49v210l-65 3q0 6 0.5 17t0.5 16h97h103q0 -21 -1 -33
l-79 -3q-2 0 -2 -2l-1 -182q57 30 132 69q10 -19 15 -34q-115 -58 -147 -75z" />
    <glyph glyph-name="oe.sc" unicode="&#xf6fa;" horiz-adv-x="824" 
d="M513 235l-1 -186q0 -10 7 -12.5t38 -2.5q115 0 143 6q9 1 15 16l26 71q16 -2 38 -8q-17 -76 -28 -119h-245h-45v66q-61 -76 -177 -76q-102 0 -167 62q-71 70 -71 186q0 70 31.5 128.5t81.5 92.5q63 39 147 39q100 0 155 -66v56h37h172h76q4 -52 6 -113q-12 -2 -38 -6
l-14 68q-2 13 -21 14q-33 3 -138 3h-27l-1 -186q25 0 71.5 0.5t70.5 1.5q12 0 16 3.5t6 12.5l3 38q19 2 38 0q0 -13 -0.5 -37.5t-0.5 -36.5v-72q-14 -1 -39 -1l-2 40q-1 10 -5.5 13.5t-17.5 3.5q-40 1 -140 1zM294 28q56 0 100 26.5t67 77.5v229q-19 45 -62 72t-102 27
q-72 0 -121 -43q-72 -64 -72 -171t55 -162q55 -56 135 -56z" />
    <glyph glyph-name="ogonek.sc" unicode="&#xf6fb;" horiz-adv-x="300" 
d="M230 4h40q-61 -46 -61 -96q0 -21 11 -32.5t30 -11.5q20 0 36 7q6 -15 8 -27q-27 -16 -59 -16q-28 0 -50.5 18.5t-22.5 48.5q0 55 68 109z" />
    <glyph glyph-name="ring.sc" unicode="&#xf6fc;" horiz-adv-x="300" 
d="M153 706q40 0 64 -22.5t24 -56.5t-25.5 -57.5t-64.5 -23.5t-65 22t-26 58q0 31 26.5 55.5t66.5 24.5zM151 674q-23 0 -37 -14.5t-14 -34.5q0 -21 14.5 -34t37.5 -13q24 0 36.5 13.5t12.5 34.5t-13 34.5t-37 13.5z" />
    <glyph glyph-name="scaron.sc" unicode="&#xf6fd;" horiz-adv-x="429" 
d="M90 135l11 -80q1 -7 8 -11q26 -17 80 -17q74 0 105 31q26 26 26 65q0 42 -24.5 62.5t-86.5 46.5q-13 5 -20 8q-59 25 -89 53.5t-30 75.5q0 28 14.5 53.5t36.5 41.5q47 34 131 34q62 0 104 -19q6 -65 8 -111q-6 0 -19.5 -1.5t-21.5 -2.5l-13 72q-1 6 -5 10q-21 15 -63 15
q-60 0 -88 -23q-32 -27 -32 -63q0 -38 22.5 -56t96.5 -49q67 -28 99 -57.5t32 -79.5q0 -62 -43 -100q-49 -43 -148 -43q-69 0 -125 20q-2 20 -4.5 61t-3.5 59q25 4 42 5zM226 620l90 90q14 -10 24 -22q-17 -20 -53.5 -63.5t-46.5 -55.5h-29q-17 20 -51.5 61.5t-48.5 58.5
q10 11 23 21q13 -13 46 -45t46 -45z" />
    <glyph glyph-name="tilde.sc" unicode="&#xf6fe;" horiz-adv-x="300" 
d="M206 547q-24 0 -60 30q-4 3 -12.5 9.5t-13 9t-11 5t-13.5 2.5q-22 0 -32 -50q-21 0 -31 1q8 90 66 90q9 0 16 -1.5t14.5 -5.5t11 -6.5t12 -9t9.5 -7.5q4 -3 11 -8.5t10.5 -8t10 -5t12.5 -2.5q15 0 20.5 12t9.5 39h31q-4 -94 -61 -94z" />
    <glyph glyph-name="zcaron.sc" unicode="&#xf6ff;" horiz-adv-x="489" 
d="M107 40l1 -3q233 0 259 6q17 6 22 20l26 80q19 -1 42 -7q-10 -45 -33 -137q-2 0 -93.5 0.5t-133.5 0.5h-151q-2 4 -6 13t-5 13q103 117 337 421l-1 4q-197 2 -230 -3q-11 0 -17 -17l-25 -81q-39 6 -41 6l24 132q6 0 31.5 -0.5t41.5 -0.5q185 0 278 1q1 -3 10 -29
q-285 -358 -336 -419zM248 619q15 15 46.5 47t44.5 44q16 -14 24 -22q-17 -20 -53.5 -63.5t-46.5 -55.5h-9h-11.5h-9.5q-13 16 -29.5 36t-37.5 45.5t-32 38.5q7 7 23 21q46 -45 91 -91z" />
    <glyph glyph-name="exclam.sc" unicode="&#xf721;" horiz-adv-x="256" 
d="M163 498q2 0 2 -2q-3 -55 -8 -181.5t-8 -181.5q-6 -1 -19.5 -2.5t-19.5 -2.5q-1 31 -4 94.5t-3 74.5q-4 123 -8 188q35 13 68 13zM131 78q21 0 32 -15t11 -31q0 -15 -13 -28t-30 -13q-20 0 -33 12t-13 30q0 17 12.5 31t33.5 14z" />
    <glyph glyph-name="dollar.oldstyle" unicode="&#xf724;" horiz-adv-x="395" 
d="M224 408l-4 -162q63 -15 97 -42.5t34 -76.5q0 -57 -38 -89q-40 -35 -102 -39l-1 -80q-7 -1 -19 -2t-19 -1l1 82q-91 0 -148 31q7 25 29 45q56 -37 120 -39l3 178q-133 30 -133 114q0 52 47 86q38 27 94 30l1 82q23 4 40 5l-2 -85q69 -2 117 -24q-1 -9 -9.5 -24.5
t-17.5 -22.5q-51 33 -90 34zM182 256l3 151q-44 -2 -67 -23q-25 -25 -25 -54t22 -46t67 -28zM215 204l-4 -168q39 3 61 21q30 22 30 62q0 62 -87 85z" />
    <glyph glyph-name="ampersand.sc" unicode="&#xf726;" horiz-adv-x="605" 
d="M255 268v-3q20 -13 45.5 -34.5t38.5 -34t44.5 -43.5t34.5 -34q19 23 35.5 62t17.5 69q0 6 -3 6l-60 2q0 23 1 34h91h72q2 -17 0 -34l-48 -2q-23 -101 -81 -163q6 -7 14.5 -16t17.5 -18.5t12 -13.5q11 -12 28 -12l62 -1q1 -12 -1 -32q-22 -1 -107 -4q-14 15 -59 65
q-79 -71 -192 -71q-78 0 -123 33q-53 40 -53 102q0 48 32 86.5t87 60.5v3q-34 25 -53 49.5t-19 58.5q0 52 44 86q42 29 100 29q63 0 98 -27q38 -30 38 -74q0 -84 -114 -129zM140 384q0 -29 19 -50t58 -45q50 16 75 40t25 62q0 29 -23 51q-21 21 -63 21t-66 -21
q-25 -22 -25 -58zM230 28q47 0 89.5 17t66.5 42q-101 107 -190 166q-98 -41 -98 -123q0 -47 40 -76q36 -26 92 -26z" />
    <glyph glyph-name="zero.oldstyle" unicode="&#xf730;" horiz-adv-x="529" 
d="M253 -10q-80 0 -137 48q-70 60 -70 165q0 48 19.5 95.5t55.5 80.5q60 55 152 55q76 0 130 -40q79 -60 79 -170q0 -121 -82 -188q-58 -46 -147 -46zM259 31q68 0 112 40q55 50 55 146q0 92 -61 142q-39 34 -100 34q-56 0 -100 -38q-62 -55 -62 -149q0 -87 55 -137
q43 -38 101 -38z" />
    <glyph glyph-name="one.oldstyle" unicode="&#xf731;" horiz-adv-x="407" 
d="M53 35l146 3q4 0 4 5v323q-11 -3 -147 -45q-2 6 -5.5 17t-5.5 15q206 84 208 84q3 0 3 -4q-2 -238 -2 -395l131 -3q0 -24 -1 -35q-24 0 -78 0.5t-79 0.5q-29 0 -87 -0.5t-88 -0.5q0 24 1 35z" />
    <glyph glyph-name="two.oldstyle" unicode="&#xf732;" horiz-adv-x="420" 
d="M107 45l2 -4q16 0 126.5 0.5t152.5 0.5q0 -30 -1 -42h-224h-127q-7 20 -11 40q98 49 143 76q73 45 106 86t33 92q0 40 -24 67q-30 30 -84 30q-77 0 -135 -76q-16 9 -31 23q65 96 180 96q74 0 113 -41q38 -39 38 -92q0 -64 -41 -114.5t-126 -99.5q-33 -19 -90 -42z" />
    <glyph glyph-name="three.oldstyle" unicode="&#xf733;" horiz-adv-x="410" 
d="M224 162v-6q68 -2 107.5 -42.5t39.5 -95.5q0 -78 -57 -127q-66 -60 -179 -60q-79 0 -135 27q14 36 15 38q56 -24 119 -24q91 0 140 46q41 36 41 95q0 58 -43.5 88t-119.5 30q-5 0 -26 -0.5t-27 -0.5q-1 13 -1 38q89 0 140.5 37t51.5 91q0 41 -23 68q-28 28 -79 28
q-42 0 -78 -21.5t-59 -53.5q-17 12 -29 24q12 19 31 37.5t60.5 37t89.5 18.5q68 0 107 -39q35 -35 35 -87q0 -55 -34.5 -92.5t-86.5 -53.5z" />
    <glyph glyph-name="four.oldstyle" unicode="&#xf734;" horiz-adv-x="474" 
d="M309 -182q0 29 0.5 92.5t0.5 93.5q-15 0 -138 -0.5t-135 -0.5q-3 8 -9 23.5t-9 22.5q16 21 59.5 82t72.5 99q106 140 160 205q35 0 52 -1q0 -43 -1 -123t-1.5 -145t-0.5 -122q46 -1 108 -1q0 -14 -2 -40h-106q0 -29 -0.5 -89t-0.5 -93q-16 -3 -50 -3zM314 372h-5
q-44 -58 -127 -172q-44 -59 -106 -148q-4 -7 3 -7q26 0 127 -0.5t104 -0.5z" />
    <glyph glyph-name="five.oldstyle" unicode="&#xf735;" horiz-adv-x="422" 
d="M56 172l-4 3q19 128 35 249h136h145q0 -27 -2 -42q-156 0 -237 -1q-20 -114 -28 -165q20 2 77 2q96 0 148.5 -50t52.5 -120q0 -98 -71 -161q-68 -58 -183 -58q-64 0 -111 22q10 29 13 37q48 -18 104 -18q94 0 144 47t50 122q0 64 -44.5 100.5t-129.5 36.5q-11 0 -95 -4z
" />
    <glyph glyph-name="six.oldstyle" unicode="&#xf736;" horiz-adv-x="477" 
d="M101 301l6 -2q62 80 162 80q70 0 114 -46q21 -24 34.5 -59.5t13.5 -67.5q0 -106 -64 -169q-50 -47 -136 -47q-76 0 -127 53q-26 27 -42 74t-16 95q0 180 123 308q68 68 178 105q14 -25 17 -34q-96 -32 -157 -96q-75 -76 -106 -194zM240 29q54 0 89 32q47 44 47 131
q0 61 -33 104q-30 40 -87 40q-102 0 -155 -99q-1 -11 -1 -32q0 -38 13 -75t33 -60q36 -41 94 -41z" />
    <glyph glyph-name="seven.oldstyle" unicode="&#xf737;" horiz-adv-x="405" 
d="M321 379l-1 4q-261 0 -311 -2q0 27 4 44h231h128q6 -13 12 -37q-31 -56 -71.5 -141.5t-68.5 -148t-67.5 -154t-48.5 -110.5q-36 10 -46 14q30 64 109 242t130 289z" />
    <glyph glyph-name="eight.oldstyle" unicode="&#xf738;" horiz-adv-x="490" 
d="M302 324v-6q71 -20 107 -62t36 -96q0 -76 -59 -124q-54 -46 -149 -46q-77 0 -133 39q-58 46 -58 116q0 56 36 103t103 70v5q-109 40 -109 134q0 50 38 93q50 55 142 55q83 0 128 -47q34 -37 34 -86q0 -103 -116 -148zM128 463q0 -49 30.5 -76t96.5 -51q111 42 111 130
q0 42 -25 70q-29 32 -92 32q-63 2 -98 -39q-23 -30 -23 -66zM392 153q0 59 -38.5 91.5t-122.5 57.5q-56 -15 -94 -56.5t-38 -95.5q0 -55 40 -89t103 -34q69 0 110 35q40 34 40 91z" />
    <glyph glyph-name="nine.oldstyle" unicode="&#xf739;" horiz-adv-x="471" 
d="M370 131l-5 2q-57 -79 -151 -79q-71 0 -118 42q-56 53 -56 134q0 97 67 156q54 48 132 48q77 0 124 -50q61 -66 61 -185q0 -94 -35.5 -176.5t-90.5 -130.5q-69 -61 -165 -87q-10 14 -19 37q89 22 151 80q80 75 105 209zM227 396q-53 0 -88 -37q-45 -47 -45 -122
q0 -63 37 -105q32 -38 88 -38q40 0 81 24.5t69 69.5q1 11 1 29q0 84 -40 132q-39 47 -103 47z" />
    <glyph glyph-name="question.sc" unicode="&#xf73f;" horiz-adv-x="388" 
d="M345 379q0 -51 -33 -89.5t-99 -74.5q-22 -12 -22 -28q0 -19 19 -61q-14 -7 -37 -14q-12 13 -26 46.5t-14 53.5q87 48 120.5 80t33.5 83q0 42 -27 63.5t-72 21.5q-51 0 -86 -25q-3 -4 -4 -10l-14 -69q-6 0 -20.5 1.5t-21.5 2.5q7 85 9 101q58 37 144 37q72 0 111 -34
t39 -85zM189 74q21 0 32 -12.5t11 -31.5q0 -14 -12.5 -26.5t-28.5 -12.5q-19 0 -32.5 11.5t-13.5 28.5q0 16 12 29.5t32 13.5z" />
    <glyph glyph-name="grave.sc" unicode="&#xf760;" horiz-adv-x="300" 
d="M99 673q28 -17 82 -52t71 -46q-2 -4 -17 -29q-137 71 -164 85q14 22 28 42z" />
    <glyph glyph-name="a.sc" unicode="&#xf761;" horiz-adv-x="518" 
d="M2 33l46 4q4 0 6 3q160 381 192 455q15 1 40 1q27 -66 91 -227t93 -232l52 -3q0 -23 -1 -34h-74h-108v33l72 4q2 0 1 4q-4 10 -43 110q-1 3 -5 3h-213q-19 -45 -46 -117l83 -3q0 -23 -1 -34h-119h-66v33zM265 430h-5q-9 -24 -43.5 -109t-50.5 -126q-3 -5 1 -5h188
q-60 161 -90 240z" />
    <glyph glyph-name="b.sc" unicode="&#xf762;" horiz-adv-x="500" 
d="M50 33l62 2q5 0 5 6v411l-67 2q0 23 1 33q47 1 161 1q106 0 149 -19q27 -13 44 -37.5t17 -52.5q0 -41 -27 -71t-72 -44v-5q57 -6 94 -39t37 -78q0 -65 -53 -103.5t-141 -38.5h-109h-102q0 21 1 33zM171 451l-1 -177q2 0 19 -0.5t30 -0.5q63 0 106 23.5t43 67.5
q0 90 -141 90q-26 0 -56 -3zM170 237l-1 -173q0 -18 17.5 -23.5t65.5 -5.5q62 0 104 24t42 79q0 43 -39.5 71.5t-128.5 28.5q-50 0 -60 -1z" />
    <glyph glyph-name="c.sc" unicode="&#xf763;" horiz-adv-x="507" 
d="M406 348l-11 86q-2 9 -7 12q-26 13 -71 13q-85 0 -140 -52q-73 -68 -73 -174q0 -50 10 -82.5t38 -64.5q50 -56 145 -56q62 0 150 32q1 -6 4.5 -18.5t5.5 -18.5q-102 -35 -168 -35q-97 0 -160 46q-38 29 -60.5 76.5t-22.5 104.5q0 141 104 223q71 58 185 58q68 0 106 -17
q6 -84 7 -129q-30 -2 -42 -4z" />
    </font>
</defs>
</svg>
